<svg width="76" height="76" viewBox="0 0 76 76" fill="none" xmlns="http://www.w3.org/2000/svg">
<path d="M76 5.9356V56.5192C75.9573 56.6604 75.9035 56.7979 75.8738 56.9409C75.3338 59.5288 73.8532 61.3885 71.3037 62.0703C69.8341 62.4623 68.2272 62.4065 66.6779 62.4418C64.1581 62.4957 61.6364 62.4567 59.0907 62.4567C59.0877 62.3435 59.0952 62.2304 59.1129 62.1186C59.973 59.0938 61.4034 56.2617 63.3268 53.7753C63.5265 53.5691 63.7864 53.4319 64.069 53.3833C66.3773 52.8705 68.2699 51.7354 69.6987 49.8219C73.6082 44.583 70.4093 36.7915 63.9224 35.9183C62.169 35.6824 60.3691 35.8013 58.5916 35.7548C58.3318 35.7548 58.0702 35.7325 57.8271 35.7214C56.4726 25.3643 48.1914 18.3994 38.9361 17.9907C34.2194 17.7827 29.9257 19.0738 26.1572 21.9069C21.5648 25.3605 18.9708 30.0161 18.1785 35.7567C16.7386 35.7567 15.334 35.7288 13.9293 35.7567C13.1154 35.7561 12.3034 35.8383 11.506 36.0019C9.51224 36.4513 7.73542 37.5782 6.47772 39.191C5.22001 40.8038 4.55905 42.803 4.60723 44.8487C4.68702 48.9562 7.70594 52.4823 11.8641 53.3666C12.2316 53.4485 12.5595 53.6552 12.7919 53.9518C13.5879 55.111 14.4192 56.2628 15.0426 57.515C15.8182 59.0681 16.399 60.7178 17.0986 62.4102C13.3244 62.4102 9.7637 62.4734 6.20668 62.3861C5.23386 62.3784 4.27852 62.1264 3.42819 61.6532C2.57787 61.1799 1.85976 60.5006 1.33968 59.6774C0.721789 58.7337 0.436046 57.5763 0 56.5192V5.9356C0.220806 5.23336 0.35255 4.48654 0.67541 3.83632C2.0021 1.17412 4.238 0 7.16971 0C27.7251 0 48.2805 0 68.8358 0C68.9843 0 69.1327 0 69.2812 0C71.5078 0.076169 73.419 0.891737 74.6622 2.76624C75.2838 3.70999 75.5639 4.87295 76 5.9356ZM66.908 8.95449H9.11428V13.3147H66.9117L66.908 8.95449Z" fill="#D4D3D6"/>
<path d="M22.4128 75.9517C22.3868 73.0368 22.4666 70.1145 22.3144 67.2052C21.9972 61.0504 19.7817 55.5867 15.9816 50.749C15.8663 50.6202 15.7591 50.4843 15.6606 50.3422C15.1225 49.4133 14.3951 49.0677 13.2632 49.0417C10.8511 48.9934 9.04751 46.9833 9.05865 44.6351C9.06978 42.2868 10.8826 40.3882 13.2929 40.2154C13.5156 40.2005 13.7383 40.2005 13.9609 40.2005C29.9864 40.2005 46.0124 40.2005 62.0391 40.2005C63.8241 40.2005 65.2993 40.7709 66.2604 42.3258C66.6787 42.9877 66.9126 43.7495 66.9379 44.5324C66.9632 45.3152 66.7789 46.0906 66.4041 46.7781C66.0293 47.4656 65.4777 48.0403 64.8065 48.4426C64.1353 48.8448 63.3688 49.06 62.5865 49.0659C61.605 49.0919 61.0483 49.4374 60.4601 50.1582C57.0701 54.3605 54.7915 59.0607 53.9788 64.413C53.7567 66.027 53.6328 67.6531 53.6077 69.2822C53.5465 71.5116 53.5928 73.7409 53.5928 75.9554L22.4128 75.9517ZM20.3717 49.1327C21.1826 50.4703 21.9712 51.7206 22.7022 53.0043C22.7874 53.1889 22.9283 53.3421 23.1051 53.4421C23.2819 53.5421 23.4857 53.5839 23.6875 53.5617C27.4728 53.5394 31.2562 53.5487 35.0414 53.5487H35.7298V49.129L20.3717 49.1327ZM40.2628 53.5468H41.1201C44.2874 53.5468 47.4585 53.4391 50.6185 53.5896C52.3515 53.6732 53.5093 53.2997 54.118 51.5664C54.3555 50.8865 54.9047 50.318 55.3073 49.6956C55.4187 49.521 55.5133 49.3241 55.632 49.1216H40.2628V53.5468ZM35.7391 58.0334H25.068C25.4521 59.5196 25.8251 60.9687 26.198 62.4122H35.7391V58.0334ZM50.9283 58.0334H40.2832V62.4177H49.8076C50.1787 60.9557 50.5498 59.5084 50.9246 58.0408L50.9283 58.0334ZM35.7409 66.9414H26.8549V71.3091H35.7409V66.9414ZM49.186 66.9303H40.2795V71.2942H49.186V66.9303Z" fill="#D4D3D6"/>
<path d="M35.7409 35.7307H31.2877C30.8349 34.0958 30.5047 32.448 29.9146 30.9004C29.3246 29.3529 28.4803 27.9373 27.7065 26.3805C29.9562 24.3675 32.7528 23.0697 35.7409 22.6519V35.7307Z" fill="#D4D3D6"/>
<path d="M40.2759 22.6519C43.3039 23.0909 46.1334 24.4211 48.4049 26.4734C46.4859 29.2156 45.27 32.3884 44.8646 35.7121H40.2759V22.6519Z" fill="#D4D3D6"/>
<path d="M26.879 35.7214H22.6113C22.9077 33.7484 23.5927 31.8539 24.6264 30.1481L24.9029 30.1053L26.879 35.7214Z" fill="#D4D3D6"/>
<path d="M51.3197 30.0719C52.3747 31.7911 53.0774 33.7034 53.3867 35.6973H49.3306C49.6157 33.7089 50.2917 31.7969 51.3197 30.0719Z" fill="#D4D3D6"/>
</svg>
