<svg width="70" height="70" viewBox="0 0 70 70" fill="none" xmlns="http://www.w3.org/2000/svg">
<path d="M24.7133 69.9983H20.6093C20.6093 55.5418 20.6058 41.0853 20.599 26.6287C20.5896 26.4066 20.6292 26.185 20.7149 25.9798C20.8006 25.7746 20.9303 25.5907 21.0949 25.441C24.9003 21.654 28.6925 17.8533 32.4717 14.039C32.721 13.766 32.8658 13.4137 32.8804 13.0444C32.9078 8.69681 32.8975 4.34755 32.8975 0H53.3853V12.4753H37.07C36.8323 13.2939 37.1418 13.81 37.677 14.338C41.3963 18.0208 45.0814 21.7412 48.7922 25.4308C48.9631 25.5894 49.0969 25.7838 49.1841 26C49.2713 26.2162 49.3097 26.449 49.2966 26.6817C49.2852 41.1211 49.2852 55.5606 49.2966 70H45.1926C45.1926 65.3095 45.1926 60.619 45.1926 55.9286C45.1921 55.292 45.1504 54.656 45.0677 54.0248C44.2863 48.2144 38.5013 44.1967 32.7949 45.4989C28.0068 46.5926 24.7475 50.6257 24.7236 55.5816C24.6945 60.3889 24.7133 65.1945 24.7133 69.9983ZM41.0919 35.0179C41.1107 31.6821 38.3456 28.888 34.9889 28.8521C31.6629 28.8162 28.867 31.5761 28.814 34.9462C28.7609 38.3162 31.5825 41.1428 34.9512 41.1462C38.2892 41.1496 41.0731 38.3726 41.0919 35.0179Z" fill="#D4D3D6"/>
<path d="M0 41.1513H16.5206V69.9983H0V41.1513ZM8.22011 49.3047H12.2318V45.287H8.22011V49.3047ZM8.22011 57.5076H12.2318V53.4899H8.22182L8.22011 57.5076Z" fill="#D4D3D6"/>
<path d="M53.3853 69.9984V41.1992H69.9059V69.9984H53.3853ZM61.6704 49.3407V45.3024H57.6723V49.3407H61.6704ZM61.6806 53.5019H57.6689V57.5248H61.6806V53.5019Z" fill="#D4D3D6"/>
<path d="M28.8086 69.9983V57.6051H32.9042V69.9983H28.8086Z" fill="#D4D3D6"/>
<path d="M37.0015 69.9983V57.6051H41.1055V69.9983H37.0015Z" fill="#D4D3D6"/>
<path d="M16.4897 28.847V37.0106H1.27051C1.46545 36.7987 1.59199 36.6483 1.73051 36.5099C4.14164 34.0951 6.54423 31.6718 8.97759 29.2793C9.24917 29.0301 9.59946 28.8838 9.96769 28.8658C12.1275 28.8282 14.2838 28.847 16.4897 28.847Z" fill="#D4D3D6"/>
<path d="M68.6882 37.026H53.428V28.847C54.89 28.847 56.3538 28.982 57.7817 28.8145C59.7722 28.5821 61.1727 29.264 62.4911 30.7576C64.3978 32.916 66.5353 34.871 68.6882 37.026Z" fill="#D4D3D6"/>
<path d="M29.2568 53.4148C29.6704 52.2322 30.4408 51.207 31.4619 50.4803C32.483 49.7537 33.7045 49.3615 34.958 49.3577C37.5042 49.3577 39.8555 51.0257 40.6438 53.4148H29.2568Z" fill="#D4D3D6"/>
<path d="M36.9963 34.9821C36.996 35.5226 36.7836 36.0413 36.4047 36.427C36.0258 36.8127 35.5107 37.0345 34.97 37.0448C34.4305 37.0417 33.9137 36.8277 33.5302 36.4486C33.1467 36.0694 32.9269 35.5553 32.918 35.0163C32.9183 34.4758 33.1307 33.957 33.5096 33.5713C33.8885 33.1856 34.4036 32.9638 34.9443 32.9536C35.4838 32.9566 36.0006 33.1706 36.3841 33.5497C36.7676 33.9289 36.9874 34.443 36.9963 34.9821Z" fill="#D4D3D6"/>
</svg>
