<svg width="66" height="66" viewBox="0 0 66 66" fill="none" xmlns="http://www.w3.org/2000/svg">
<path d="M23.3189 0.0112915V4.02852C19.1783 3.79287 15.3135 4.56924 11.7231 6.96602V0.0112915H23.3189Z" fill="#D4D3D6"/>
<path d="M54.2432 0.0113089V6.95145C50.6932 4.59826 46.843 3.7735 42.6475 4.03497V0L54.2432 0.0113089Z" fill="#D4D3D6"/>
<path d="M0 42.6659H4.01475V53.8929C2.18971 53.2118 0.903627 51.9754 0.263007 50.0871C0.169415 49.8062 0.0871373 49.5222 0 49.2381V42.6659Z" fill="#D4D3D6"/>
<path d="M0 31.0677H3.95022V38.8004H0V31.0677Z" fill="#D4D3D6"/>
<path d="M15.5895 9.31759V10.0294C15.5895 13.7222 15.5895 17.4161 15.5895 21.1111C15.5992 26.8601 19.8028 31.0565 25.5587 31.0678H27.1337C27.1869 32.0362 27.1901 32.9755 27.295 33.9036C27.5597 36.1745 29.4815 38.1919 31.7632 38.6632C34.1724 39.1603 36.7333 38.0435 37.9194 36.0131C38.4807 35.0438 38.7773 33.9439 38.7794 32.8238C38.7794 32.2686 38.7794 31.7118 38.7794 31.0678C39.4249 31.0678 40.0413 31.0678 40.6545 31.0678C45.3438 31.0194 49.1714 27.9285 50.1541 23.3561C50.3005 22.6196 50.3713 21.87 50.3655 21.1191C50.3865 17.4263 50.3752 13.7319 50.3752 10.0375V9.34505L50.5285 9.18365C51.5451 9.91157 52.6359 10.5555 53.5622 11.3819C56.6507 14.1386 58.1159 17.6313 58.1095 21.7728C58.0949 31.8667 58.1466 41.959 58.0885 52.0529C58.0546 57.8633 55.3453 62.1194 50.1525 64.7357C48.3775 65.6266 46.4605 65.9801 44.4837 65.9817C36.8172 65.9817 29.154 66.0124 21.4875 65.9817C13.8484 65.9478 7.90046 59.9115 7.86173 52.195C7.83914 47.75 7.86173 43.3051 7.86173 38.8585C7.86173 33.082 7.82942 27.3056 7.87138 21.5291C7.90849 16.3643 10.2693 12.473 14.6213 9.74694C14.8569 9.60006 15.1054 9.47741 15.3572 9.35152C15.4329 9.33057 15.511 9.31915 15.5895 9.31759ZM15.5895 42.6934C15.5895 45.8164 15.5895 48.8831 15.5895 51.9513C15.5855 52.2088 15.5952 52.4663 15.6186 52.7227C15.9526 55.8797 18.2279 58.0925 21.3777 58.1119C29.1061 58.1603 36.8344 58.1603 44.5628 58.1119C47.8272 58.0925 50.2687 55.6909 50.351 52.4209C50.4317 49.2236 50.3639 46.023 50.3591 42.8241C50.3591 42.7886 50.322 42.7515 50.2897 42.6918L15.5895 42.6934Z" fill="#D4D3D6"/>
<path d="M19.535 7.99734H27.1515V27.1006C23.0496 27.8124 19.598 25.5576 19.4882 21.5C19.3688 17.1035 19.4592 12.7006 19.4608 8.3008C19.4769 8.19773 19.5017 8.0962 19.535 7.99734Z" fill="#D4D3D6"/>
<path d="M38.8037 27.2878V7.98599H46.4654C46.4847 8.28135 46.5089 8.47021 46.5089 8.65259C46.5089 12.8167 46.5089 16.9808 46.5089 21.1449C46.5009 24.063 44.8823 26.2871 42.1246 26.9795C41.0838 27.241 39.9639 27.1893 38.8037 27.2878Z" fill="#D4D3D6"/>
<path d="M34.8696 27.1732H31.084V7.91986H34.8696V27.1732Z" fill="#D4D3D6"/>
<path d="M61.9194 53.8606V42.724H65.9165C65.9409 42.8351 65.9565 42.9479 65.9632 43.0614C65.9632 44.8368 65.9858 46.6235 65.9632 48.4037C65.9229 50.949 64.2576 53.1827 61.9194 53.8606Z" fill="#D4D3D6"/>
<path d="M65.9213 38.7713H62.0066V31.121H65.9213V38.7713Z" fill="#D4D3D6"/>
<path d="M31.0564 31.0968H34.8598C34.8598 31.8748 34.9501 32.6689 34.8356 33.4323C34.6936 34.391 33.7528 35.0108 32.8104 34.9236C32.3473 34.8816 31.9152 34.6732 31.5939 34.337C31.2726 34.0008 31.0839 33.5596 31.0628 33.095C31.029 32.4526 31.0564 31.807 31.0564 31.0968Z" fill="#D4D3D6"/>
<path d="M46.4975 46.5783C46.4975 48.557 46.5233 50.4874 46.4878 52.4177C46.4701 53.4281 45.681 54.177 44.6773 54.2561C44.5079 54.269 44.3352 54.2561 44.1626 54.2561C36.7139 54.2561 29.2642 54.2561 21.8134 54.2561C20.1642 54.2561 19.4494 53.5508 19.4478 51.919C19.4478 50.1436 19.4478 48.3682 19.4478 46.5573H23.2898V50.3679H27.1626V46.5864L46.4975 46.5783Z" fill="#D4D3D6"/>
</svg>
