<svg width="66" height="66" viewBox="0 0 66 66" fill="none" xmlns="http://www.w3.org/2000/svg">
<path d="M53.0772 65.8458C52.0853 65.5863 51.0676 65.4041 50.1096 65.056C45.3275 63.3314 42.1164 58.1429 42.7003 53.1769C43.3454 47.7306 47.4242 43.4754 52.653 42.8114C59.0769 41.9958 64.8331 46.309 65.8315 52.6837C65.8627 52.8287 65.9036 52.9714 65.954 53.1109V55.4286C65.9105 55.5898 65.854 55.751 65.8234 55.9122C65.017 60.3672 62.4881 63.4216 58.2947 65.0753C57.3706 65.4412 56.3593 65.5943 55.3916 65.8458H53.0772ZM52.3353 56.1475H59.9995V52.3259H56.1448V48.5027H52.3353V56.1475Z" fill="#D4D3D6"/>
<path d="M39.2939 58.0946H0.0537109V19.3095H58.0495V39.3266C52.3884 38.0227 47.3838 39.3073 43.3082 43.3997C39.2326 47.4921 37.9875 52.4581 39.2939 58.0946ZM19.4206 34.9312V23.4277H7.78239V34.9312H19.4206ZM19.4383 38.8656H7.7953V50.3675H19.4351L19.4383 38.8656ZM34.8908 23.4116H23.3704V34.9135H34.8908V23.4116ZM50.345 23.4229H38.8342V34.9248H50.345V23.4229ZM23.3575 50.3563H34.8666V38.8544H23.3575V50.3563Z" fill="#D4D3D6"/>
<path d="M27.1847 3.82485H31.0652L31.0474 3.8071V11.4906H34.9279V3.8071L34.9102 3.82485H38.7906L38.7729 3.8071V11.4906H42.655V3.8071L42.6372 3.82485H46.5177L46.4999 3.8071V11.4906H50.374V3.8071L50.3578 3.82485C51.4674 3.88287 52.6158 3.78131 53.6819 4.02953C56.2785 4.63718 57.9349 6.68902 58.0607 9.39203C58.1526 11.3584 58.0784 13.3345 58.0784 15.3557H0.0166203C0.0166203 14.6562 0.0166203 13.9567 0.0166203 13.2604C0.0279101 11.8662 -0.0607957 10.4623 0.0843588 9.08258C0.406924 5.95888 2.7423 3.89897 5.89054 3.82644C6.51309 3.81193 7.13564 3.82644 7.75819 3.82644L7.74045 3.80871V11.4922H11.6209V3.80871L11.6032 3.82644H15.6127L15.5949 3.80871V11.4922H19.477V3.80871L19.4593 3.82644H23.3397L23.322 3.80871V11.4922H27.2041V3.80871L27.1847 3.82485Z" fill="#D4D3D6"/>
<path d="M7.75651 3.82485V0H11.6015V3.82485L11.6192 3.8071H7.73877L7.75651 3.82485Z" fill="#D4D3D6"/>
<path d="M15.611 3.82485V0H19.4576V3.82485L19.4753 3.8071H15.5933L15.611 3.82485Z" fill="#D4D3D6"/>
<path d="M23.3381 3.82485V0H27.1847V3.82485L27.2024 3.8071H23.3203L23.3381 3.82485Z" fill="#D4D3D6"/>
<path d="M31.0651 3.82485V0H34.9101V3.82485L34.9278 3.8071H31.0474L31.0651 3.82485Z" fill="#D4D3D6"/>
<path d="M38.7907 3.82485V0H42.6325V3.82485L42.6502 3.8071H38.7729L38.7907 3.82485Z" fill="#D4D3D6"/>
<path d="M46.5177 3.82485V0H50.3627V3.82485L50.3804 3.8071H46.5032L46.5177 3.82485Z" fill="#D4D3D6"/>
<path d="M11.6372 31.0516V27.2735H15.5725V31.0516H11.6372Z" fill="#D4D3D6"/>
<path d="M11.6531 42.7001H15.5497V46.5008H11.6531V42.7001Z" fill="#D4D3D6"/>
<path d="M27.2395 27.2638H31.0199V31.0677H27.2395V27.2638Z" fill="#D4D3D6"/>
<path d="M42.6968 27.2606H46.4693V31.0645H42.6968V27.2606Z" fill="#D4D3D6"/>
<path d="M27.2219 46.496V42.7147H31.004V46.496H27.2219Z" fill="#D4D3D6"/>
</svg>
