<svg width="57" height="75" viewBox="0 0 57 75" fill="none" xmlns="http://www.w3.org/2000/svg">
<path d="M0.00121061 74.4779C0.00121061 69.2582 0.00121061 64.0386 0.00121061 58.8189C-0.0426531 55.3892 1.10667 52.0508 3.25247 49.3753C3.32549 49.284 3.40945 49.2018 3.51899 49.0813C3.66685 49.2091 3.79465 49.3114 3.91331 49.4228C11.1862 56.3612 18.4616 63.296 25.7393 70.2272C25.9137 70.3709 26.0516 70.5538 26.1417 70.7611C26.2318 70.9683 26.2716 71.1939 26.2578 71.4195C26.2176 72.4365 26.2468 73.459 26.2468 74.4779H13.1231V65.635H8.74185V74.4779H0.00121061Z" fill="#D4D3D6"/>
<path d="M30.6208 74.4779C30.6208 73.3823 30.6026 72.2868 30.6336 71.2004C30.6424 70.9214 30.749 70.6545 30.9348 70.4463C38.3702 63.3252 45.8183 56.2261 53.3432 49.0466C53.6645 49.4666 53.9858 49.8446 54.2559 50.2536C55.9861 52.7718 56.8954 55.7636 56.8591 58.8189C56.8591 64.0373 56.8591 69.257 56.8591 74.4779H48.1094V65.635H43.7281V74.4779H30.6208Z" fill="#D4D3D6"/>
<path d="M52.4906 32.7376H48.1185V20.117C46.5157 20.5588 45.3929 22.0725 43.5966 21.8242C43.3118 21.0445 43.0964 20.2466 42.7405 19.5162C40.7817 15.4992 37.5505 13.3081 33.0816 13.1256C30.2922 13.0105 27.4955 13.0982 24.7006 13.0982C18.899 13.0982 14.8847 16.1602 13.302 21.9465C12.7288 21.8132 12.0807 21.795 11.5677 21.5229C7.75237 19.5016 3.96257 17.4292 0.0668945 15.3148C0.302388 15.1633 0.463033 15.0446 0.636459 14.9496C9.73855 9.99778 18.8443 5.05323 27.9537 0.115978C28.0925 0.046427 28.2446 0.0071963 28.3997 0.000900349C28.5549 -0.00539561 28.7096 0.0213849 28.8537 0.0794576C38.0543 5.0508 47.2465 10.0386 56.4301 15.0428C56.5305 15.0975 56.6236 15.1706 56.8244 15.3057C55.5849 15.9776 54.4403 16.6423 53.2573 17.2247C52.6859 17.5077 52.4742 17.8328 52.4797 18.5029C52.5162 22.9727 52.4979 27.4498 52.4979 31.9141L52.4906 32.7376Z" fill="#D4D3D6"/>
<path d="M42.7204 38.2994C40.214 44.8982 32.9721 49.0978 26.0132 47.8817C18.4518 46.5598 13.1943 40.3663 13.1268 32.6865C13.1085 30.5557 13.1268 28.423 13.1268 26.2484H43.7665C43.5693 30.3037 44.2155 34.3627 42.7204 38.2994Z" fill="#D4D3D6"/>
<path d="M26.2431 64.6728L6.70996 46.0485C8.2361 45.435 9.58699 44.8781 10.9543 44.3614C11.0931 44.3102 11.3651 44.4545 11.502 44.5859C16.325 49.1714 21.1407 53.7648 25.9492 58.3661C26.0952 58.4858 26.1941 58.6533 26.2285 58.839C26.2504 60.7178 26.2431 62.6022 26.2431 64.6728Z" fill="#D4D3D6"/>
<path d="M50.1522 46.0448L30.703 64.5979C30.6649 64.4264 30.6387 64.2526 30.6246 64.0775C30.6246 62.4342 30.6045 60.7744 30.6355 59.122C30.6483 58.8204 30.7688 58.5334 30.975 58.3131C35.7409 53.7386 40.522 49.1793 45.3182 44.6352C45.4277 44.5436 45.5565 44.4778 45.695 44.4431C45.8335 44.4083 45.978 44.4053 46.1178 44.4344C47.4085 44.9073 48.6754 45.4459 50.1522 46.0448Z" fill="#D4D3D6"/>
<path d="M17.97 21.8005C18.6454 19.4962 20.9492 17.6118 23.5214 17.5242C26.7946 17.411 30.0769 17.411 33.35 17.5242C35.9204 17.6137 38.2425 19.5144 38.8942 21.8005H17.97Z" fill="#D4D3D6"/>
<path d="M30.6116 52.3954L28.5232 54.6997L26.4805 52.3954H30.6116Z" fill="#D4D3D6"/>
</svg>
