<svg width="67" height="76" viewBox="0 0 67 76" fill="none" xmlns="http://www.w3.org/2000/svg">
<path d="M39.5933 0C41.0916 0.244463 42.6047 0.41856 44.0826 0.751919C45.5606 1.08528 47.0552 1.5853 48.4628 1.98903L39.8838 10.5934C38.0673 9.66738 36.1399 8.5784 34.133 7.66907C31.2937 6.37268 28.3156 5.57077 25.1563 5.58929C23.2325 5.6004 21.3976 5.95971 19.6829 6.85978C19.53 6.93599 19.3732 7.00396 19.2131 7.06347C19.1816 7.07458 19.1299 7.03017 18.9634 6.95979C19.189 6.75978 19.3666 6.58938 19.5571 6.43196C24.0506 2.77093 29.5507 0.566275 35.3261 0.111137C35.5197 0.0849949 35.7118 0.0478777 35.9013 0H39.5933Z" fill="#D4D3D6"/>
<path d="M17.7647 75.6629V71.2718C18.3862 71.2718 18.9892 71.2718 19.5923 71.2718C20.8871 71.257 22.3446 71.5885 23.4526 71.1181C24.5606 70.6477 25.2709 69.3754 26.1551 68.4513C26.9048 67.6685 27.6509 66.882 28.3933 66.0918C28.556 65.9215 28.704 65.7344 28.839 65.5788C13.1626 60.8396 3.21663 50.763 0.538223 34.4655C-1.65185 21.159 2.94288 9.91926 12.4782 0.664886C14.6054 2.79467 16.6845 4.87813 18.6415 6.84123L15.7559 9.86368L12.8056 6.84494C2.60253 17.9365 0.669563 37.4027 13.1256 51.1741C26.0367 65.4344 47.1273 64.9992 59.5537 53.8669L56.4924 50.8333C57.4006 49.8906 58.1997 48.9813 59.0821 48.1831C59.4779 47.8127 59.3558 47.3701 59.5482 46.9997C61.3628 43.492 61.1371 39.8677 60.1697 36.2082C59.2818 32.845 57.7262 29.7799 55.8931 26.8464C55.8284 26.7445 55.7784 26.6334 55.7544 26.5908L64.3131 18.0235C67.6426 25.4685 67.8479 37.7379 59.6277 47.5738C61.7234 49.6702 63.8211 51.7723 65.9445 53.8983C63.255 56.743 60.375 59.2154 57.0659 61.1748C53.7744 63.1111 50.2162 64.5519 46.5058 65.451C46.6593 65.6547 46.7536 65.8103 46.8757 65.94C48.4128 67.5697 49.9407 69.2124 51.5111 70.8107C51.8048 71.0775 52.1823 71.2334 52.5784 71.2514C54.2247 71.2977 55.8709 71.2718 57.5727 71.2718V75.6629H17.7647Z" fill="#D4D3D6"/>
<path d="M31.6785 44.0958L22.5001 53.2724C19.5598 51.5135 16.9931 49.1935 14.9458 46.4441C14.4372 45.7497 13.9544 45.0348 13.5068 44.2995C13.4051 44.1347 13.4013 43.744 13.5197 43.631C16.4201 40.6863 19.3426 37.7639 22.3447 34.7544C25.0417 38.2572 28.1789 41.397 31.6785 44.0958Z" fill="#D4D3D6"/>
<path d="M43.6426 13.4473C46.628 10.4582 49.5321 7.5487 52.4362 4.64292C52.5398 4.53921 52.6526 4.44477 52.7802 4.32809C56.6356 6.5469 59.842 9.73991 62.0788 13.5881L52.9578 22.722C50.2683 19.2384 47.1369 16.1206 43.6426 13.4473Z" fill="#D4D3D6"/>
<path d="M15.9667 10.186C15.9403 10.3405 15.8982 10.4919 15.841 10.6378C14.3242 13.5529 14.2483 16.6253 14.855 19.77C15.5949 23.5925 17.2412 27.039 19.2481 30.3263C19.3998 30.5763 19.5478 30.8282 19.6643 31.0245L11.0613 39.6362C9.26703 35.3044 8.65665 30.78 9.05434 26.1167C9.6555 19.2477 12.8481 13.2251 15.9667 10.186Z" fill="#D4D3D6"/>
<path d="M56.4665 50.5981C48.9344 57.4411 36.8391 59.7487 26.8413 55.4503C26.9893 55.2762 27.1132 55.1058 27.2593 54.9595C29.8157 52.3964 32.3812 49.8444 34.9209 47.2683C35.2797 46.8979 35.5184 46.8553 35.966 47.1368C39.2345 49.1851 42.6768 50.8407 46.4799 51.6352C49.7872 52.3297 53.0205 52.3334 56.0984 50.6833C56.2188 50.6459 56.3419 50.6174 56.4665 50.5981Z" fill="#D4D3D6"/>
<path d="M34.8394 40.9289C31.3444 38.3195 28.2437 35.2188 25.6333 31.7227C27.594 29.7652 29.5363 27.8224 31.4008 25.9575L40.6069 35.1581L34.8394 40.9289Z" fill="#D4D3D6"/>
<path d="M43.8884 31.7838L34.686 22.548L40.5478 16.6679C44.0586 19.2749 47.1689 22.3828 49.7798 25.8926L43.8884 31.7838Z" fill="#D4D3D6"/>
<path d="M52.769 47.2516C51.0062 47.8183 49.2064 47.6812 47.4251 47.3034C44.2935 46.6386 41.4449 45.2866 38.8127 43.6476L43.992 38.462L52.769 47.2516Z" fill="#D4D3D6"/>
<path d="M28.0417 22.6609C26.4361 24.2666 24.6974 26.0056 22.9013 27.7983C20.4393 23.435 18.1919 19.018 19.1759 13.7843L28.0417 22.6609Z" fill="#D4D3D6"/>
<path d="M36.6874 14.0066L31.4527 19.257L22.574 10.3507C24.1259 9.84884 25.7555 9.90813 27.3944 10.1915C30.7701 10.7749 33.7741 12.2416 36.6874 14.0066Z" fill="#D4D3D6"/>
<path d="M56.18 43.9661L47.3179 35.0766L52.5249 29.8484C54.9813 34.2024 57.2325 38.6194 56.18 43.9661Z" fill="#D4D3D6"/>
</svg>
