<svg width="61" height="84" viewBox="0 0 61 84" fill="none" xmlns="http://www.w3.org/2000/svg">
<path d="M19.8012 0C20.6542 0.929467 21.4991 1.86911 22.3664 2.78431C22.6226 3.03082 22.8946 3.2603 23.1807 3.47124L12.8897 13.9094L9.37793 10.3954L19.6384 0H19.8012Z" fill="#D4D3D6"/>
<path d="M14.675 83.2787V78.4622H24.4042C24.4042 78.0769 24.4042 77.7651 24.4042 77.443C24.4408 74.1349 24.3146 70.8165 24.5528 67.5247C24.8297 63.7049 27.0182 61.0898 30.4851 59.5427C31.843 58.9312 33.2803 58.7274 34.7603 58.7274C43.2008 58.7423 51.6427 58.7423 60.0858 58.7274H60.9999V63.6193H58.1701C56.8407 63.6193 55.5093 63.6397 54.182 63.6091C53.669 63.5969 53.4328 63.7253 53.2862 64.2634C52.2113 68.1749 49.7623 70.9001 46.0388 72.492C45.8396 72.5799 45.6357 72.6569 45.428 72.7223C43.9398 73.1769 43.9378 73.1749 43.9378 74.7606V78.399H53.6588V83.2624L14.675 83.2787ZM48.3657 63.6763H42.812C43.2334 65.1032 43.6487 66.53 44.0803 68.0017C46.0794 67.2638 47.5106 65.8369 48.3657 63.6763Z" fill="#D4D3D6"/>
<path d="M35.2674 43.2364C40.2083 38.0449 39.622 30.495 35.2837 26.0882C31.1367 21.8791 23.3783 20.9293 17.9325 25.9435C17.2162 25.2463 16.657 24.4038 16.2926 23.4726C15.9281 22.5413 15.7667 21.5428 15.8193 20.544C15.8824 18.4589 16.7965 16.7528 18.2622 15.3077C20.5586 13.0411 22.741 10.6563 25.1657 8.52217C28.2784 5.77251 32.3195 5.93351 35.2837 8.85235C41.0219 14.5039 46.7222 20.1982 52.3845 25.9353C55.3221 28.9173 55.4626 33.0103 52.643 36.1003C50.1718 38.8018 47.5668 41.3773 44.8377 43.8173C42.1545 46.2143 37.8589 45.8617 35.2674 43.2364Z" fill="#D4D3D6"/>
<path d="M14.9785 30.7212C13.4435 36.2633 14.8645 40.8638 19.3656 44.5246C15.5627 46.5017 13.7325 49.5204 15.1087 53.7642C16.3302 57.5371 19.3473 58.8762 23.3864 58.756C19.4797 62.9019 19.27 67.9018 19.5713 73.0077C11.9309 72.6327 2.1284 66.2059 0.306346 55.0279C-1.71522 42.6656 6.61941 33.1468 14.9785 30.7212Z" fill="#D4D3D6"/>
<path d="M33.8465 34.9915C33.6816 39.1047 30.1494 42.1581 26.314 41.9217C21.7944 41.6383 18.9708 38.2365 19.325 33.7502C19.608 30.1587 23.1931 27.2113 26.829 27.4152C31.4177 27.6699 34.0745 31.3735 33.8465 34.9915Z" fill="#D4D3D6"/>
<path d="M50.7049 51.6545C49.6341 50.5681 48.4757 49.3981 47.4089 48.3178L57.5655 38.1263L60.9002 41.4569L50.7049 51.6545Z" fill="#D4D3D6"/>
</svg>
