<svg width="70" height="70" viewBox="0 0 70 70" fill="none" xmlns="http://www.w3.org/2000/svg">
<path d="M69.9041 64.5214C69.622 65.6222 69.2988 66.6957 68.5464 67.6031C67.187 69.2364 65.4377 69.9897 63.3429 70C60.2034 70 57.0639 70 53.9243 70H6.69103C4.01148 70 1.90305 68.9351 0.685537 66.4971C0.283725 65.7076 0.0618312 64.8387 0.0357747 63.9529C-0.0172349 57.7587 0.00838817 51.5626 0.00838817 45.3119H49.6117C48.9158 47.7413 49.374 49.9345 51.1969 51.7339C52.4366 52.958 53.9842 53.5024 55.7249 53.4459C59.2663 53.3107 62.5854 49.7821 61.2448 45.2656H69.9007L69.9041 64.5214ZM24.6613 61.7615V57.7432H8.36854V61.7615H24.6613Z" fill="#D4D3D6"/>
<path d="M69.9043 10.7998C67.6243 13.433 65.3495 16.0667 63.0798 18.701C59.1172 23.3111 55.1631 27.928 51.2176 32.5518C50.655 33.2126 49.9984 32.8017 49.2888 33.0003V32.1443C49.2888 25.7422 49.2859 19.3408 49.2802 12.9399C49.2748 12.0291 49.2085 11.1196 49.0818 10.2177C49.0477 10.0318 49.0572 9.84044 49.1098 9.65887C49.1623 9.47729 49.2564 9.31046 49.3845 9.1716C51.7443 6.31014 54.0978 3.44186 56.445 0.566708C56.5733 0.38546 56.6898 0.196163 56.7939 0H56.9307C59.865 2.43115 62.7999 4.86116 65.7354 7.29002C67.1137 8.42684 68.5124 9.53971 69.9009 10.6628L69.9043 10.7998Z" fill="#D4D3D6"/>
<path d="M69.9042 41.1464H57.5222V37.0631H61.5253V32.9678H56.2654C56.4244 32.7349 56.5082 32.5877 56.6159 32.4542C58.644 30.0281 60.6823 27.609 62.7001 25.1727C62.8119 25.0196 62.9618 24.8985 63.1349 24.8216C63.3081 24.7447 63.4984 24.7146 63.6867 24.7344C66.8554 24.8765 69.2271 26.9207 69.8102 30.0316C69.833 30.0929 69.8647 30.1506 69.9042 30.2028V41.1464Z" fill="#D4D3D6"/>
<path d="M12.6984 0L15.2993 3.49264L2.75823 14.0287L0.00512695 10.8871C3.36697 7.99881 6.68266 5.15848 9.98807 2.30787C10.8602 1.55456 11.6981 0.767009 12.5633 0H12.6984Z" fill="#D4D3D6"/>
<path d="M3.82007 18.4905L10.0923 13.219L22.5752 28.114L25.7079 25.486L13.225 10.5909L19.4955 5.32117L22.8505 9.31374C24.723 11.5394 26.6006 13.7754 28.4593 16.0199C28.6475 16.2373 28.7618 16.5089 28.7859 16.7955C28.803 22.1029 28.7962 27.4104 28.7859 32.7178C28.7754 32.7963 28.76 32.8741 28.7397 32.9506H28.1122C24.2442 32.9506 20.3745 32.9506 16.5065 32.9387C16.2277 32.9387 15.8499 32.8359 15.684 32.6408C11.7493 27.9565 7.81802 23.2603 3.82007 18.4905Z" fill="#D4D3D6"/>
<path d="M53.3516 37.0254V41.1138H0V40.4752C0 37.4003 0 34.3254 0 31.2506C0 28.3503 1.43639 26.4156 4.05609 25.1573L10.554 32.913H8.37381V37.022L53.3516 37.0254Z" fill="#D4D3D6"/>
<path d="M45.1659 16.5918V32.9044H32.9377V16.5918H45.1659Z" fill="#D4D3D6"/>
<path d="M39.1039 0.0650635C40.8412 2.17605 42.8658 4.01311 43.9551 6.57095C44.7479 8.41007 45.1665 10.389 45.1863 12.392H32.9496C32.8128 7.22154 35.6087 3.51147 39.1039 0.0650635Z" fill="#D4D3D6"/>
<path d="M55.4514 49.3438C55.0448 49.3495 54.6457 49.2342 54.3046 49.0124C53.9636 48.7907 53.6961 48.4725 53.536 48.0982C53.376 47.724 53.3306 47.3105 53.4056 46.9104C53.4806 46.5102 53.6727 46.1414 53.9575 45.8508C54.2422 45.5601 54.6068 45.3608 55.0049 45.2779C55.4031 45.1951 55.8168 45.2326 56.1936 45.3857C56.5704 45.5387 56.8934 45.8003 57.1214 46.1374C57.3494 46.4745 57.4723 46.8719 57.4743 47.279C57.474 47.8197 57.262 48.3388 56.8838 48.7248C56.5056 49.1108 55.9913 49.333 55.4514 49.3438Z" fill="#D4D3D6"/>
</svg>
