<svg width="65" height="91" viewBox="0 0 65 91" fill="none" xmlns="http://www.w3.org/2000/svg">
<g clip-path="url(#clip0_489_832)">
<path d="M11.1937 90.9989H1.64938C0.738868 90.9989 0 90.3182 0 89.4785V59.6621C0 58.8224 0.738868 58.1406 1.64938 58.1406H63.3383C64.2488 58.1406 64.9877 58.8224 64.9877 59.6621V89.4416C64.9877 90.2824 64.2488 90.963 63.3383 90.963H53.7539C52.8858 90.963 52.109 90.3439 52.109 89.5435C52.109 76.6689 43.0038 70.9593 32.4387 70.9593C22.4809 70.9593 12.8386 76.6689 12.8386 89.5491C12.8408 90.3619 12.0752 90.9989 11.1937 90.9989Z" fill="#CB7C05"/>
<path d="M64.9999 26.8183V34.6092C64.9999 35.4488 64.261 36.1295 63.3505 36.1295H1.66379C0.753272 36.1295 0.0144043 35.4488 0.0144043 34.6092V26.8183C0.0144043 25.9787 0.753272 25.2969 1.66379 25.2969H63.3505C64.261 25.2969 64.9999 25.9787 64.9999 26.8183Z" fill="#CB7C05"/>
<path d="M44.5094 23.0433H20.4771C20.2089 23.0434 19.9454 22.9719 19.7138 22.8361C19.4821 22.7003 19.2905 22.505 19.1587 22.2704C19.0268 22.0357 18.9594 21.7701 18.9633 21.5007C18.9672 21.2312 19.0424 20.9677 19.181 20.737L31.1938 0.73551C31.3286 0.511152 31.5188 0.32558 31.746 0.196763C31.9732 0.0679468 32.2296 0.000244141 32.4905 0.000244141C32.7514 0.000244141 33.0078 0.0679468 33.235 0.196763C33.4622 0.32558 33.6524 0.511152 33.7872 0.73551L45.8056 20.7359C45.9445 20.9666 46.0199 21.2303 46.024 21.4999C46.0281 21.7695 45.9607 22.0353 45.8288 22.2701C45.6969 22.5049 45.5051 22.7003 45.2733 22.8362C45.0415 22.972 44.7779 23.0435 44.5094 23.0433Z" fill="#CB7C05"/>
<path d="M2.59336 38.4268H13.3479C14.78 38.4268 15.9413 39.3414 15.9413 40.4688V54.0062C15.9413 55.1336 14.78 56.0482 13.3479 56.0482H2.59336C1.16127 56.0482 0 55.1336 0 54.0062V40.4688C0 39.3414 1.16127 38.4268 2.59336 38.4268Z" fill="#CB7C05"/>
<path d="M51.6397 38.4268H62.3944C63.8265 38.4268 64.9877 39.3414 64.9877 40.4688V54.0062C64.9877 55.1336 63.8265 56.0482 62.3944 56.0482H51.6397C50.2077 56.0482 49.0464 55.1336 49.0464 54.0062V40.4688C49.0508 39.3414 50.2077 38.4268 51.6397 38.4268Z" fill="#CB7C05"/>
</g>
<defs>
<clipPath id="clip0_489_832">
<rect width="65" height="91" fill="white"/>
</clipPath>
</defs>
</svg>
