<svg width="72" height="89" viewBox="0 0 72 89" fill="none" xmlns="http://www.w3.org/2000/svg">
<path d="M13.14 0.196655H69.9187C71.4658 0.758614 72 1.89642 72 3.50135C71.9738 23.5037 71.9684 43.5068 71.9838 63.5107C71.9838 65.7285 71.0311 66.6998 68.8411 66.6998H12.1387C11.8335 66.6998 11.5281 66.672 11.1396 66.6535V65.5435C11.1396 44.8751 11.1334 24.2067 11.1211 3.53833C11.1188 1.94265 11.6114 0.793303 13.14 0.196655ZM41.5848 30.8639H31.5436C29.268 30.8639 26.9901 30.8408 24.7122 30.887C24.0988 30.8955 23.511 31.1346 23.0658 31.5566C22.6206 31.9787 22.3507 32.5528 22.3095 33.1649C22.1915 34.5779 22.9708 35.6764 24.326 35.9608C24.7214 36.0364 25.1237 36.0706 25.5262 36.0626C36.2227 36.0626 46.9169 36.0626 57.6088 36.0626C57.983 36.0694 58.3571 36.0399 58.7258 35.9747C59.3337 35.8832 59.8851 35.5667 60.2706 35.0878C60.6561 34.6089 60.8476 34.0027 60.8071 33.3892C60.7816 31.8514 59.7179 30.8708 58.0158 30.8662C52.5335 30.8585 47.0533 30.8577 41.5756 30.8639H41.5848ZM41.6287 41.9967C38.9161 41.9967 36.2057 41.9967 33.4954 41.9967C31.7748 41.9967 30.651 43.0258 30.6394 44.5706C30.6256 46.1501 31.7587 47.1931 33.5324 47.1954C38.8946 47.1954 44.2582 47.1954 49.6234 47.1954C51.3509 47.1954 52.454 46.1779 52.4632 44.6192C52.4748 43.0142 51.3717 42.0013 49.5864 41.9967C46.9246 41.9921 44.2721 41.9967 41.6265 41.9967H41.6287ZM41.6287 16.5282C44.3391 16.5282 47.0495 16.542 49.7576 16.5282C51.3764 16.5282 52.4424 15.499 52.4679 14.0074C52.4933 12.5158 51.4804 11.3618 49.8847 11.3503C44.3484 11.3109 38.812 11.3248 33.278 11.3503C32.1865 11.3503 31.3239 11.8475 30.8637 12.8812C30.0867 14.6341 31.2777 16.4981 33.2387 16.5258C36.0231 16.5582 38.819 16.5282 41.6265 16.5282H41.6287Z" fill="#9F1217"/>
<path d="M17.6404 88.9999C16.6437 88.5559 16.313 87.7697 16.3199 86.7059C16.3477 82.0807 16.3315 77.467 16.3338 72.8488C16.3338 72.5667 16.3616 72.2869 16.3801 71.9585H27.4805V72.9275C27.4805 77.4301 27.4551 81.935 27.4991 86.4376C27.4991 87.5407 27.2493 88.4033 26.3011 88.9999H25.0894C24.1181 88.4819 23.1514 87.9547 22.1708 87.4575C22.0833 87.4193 21.9888 87.3995 21.8933 87.3995C21.7978 87.3995 21.7034 87.4193 21.6158 87.4575C20.6307 87.9524 19.6594 88.475 18.6834 88.9907L17.6404 88.9999Z" fill="#9F1217"/>
<path d="M32.73 71.9054H68.0618C69.1417 71.9355 69.4654 72.354 69.1486 73.4039C68.4036 75.8467 68.3119 78.4422 68.8827 80.9314C68.9844 81.3801 69.144 81.8171 69.2296 82.2704C69.366 82.9803 69.0516 83.3781 68.3254 83.4267C68.1821 83.4267 68.0386 83.4267 67.893 83.4267H32.73V71.9054Z" fill="#9F1217"/>
<path d="M0 73.3555V62.6921C0 44.7141 0 26.7368 0 8.76027C0 5.07863 1.89863 2.12546 5.08769 0.816539C5.42071 0.680097 5.78151 0.585281 5.99658 0.527466C5.8717 11.4198 5.95959 22.2658 5.9434 33.1349C5.92721 44.0041 5.92942 54.8733 5.95717 65.7424C5.95717 66.6235 5.79769 67.0884 4.88884 67.4584C2.57625 68.4019 1.09154 70.2034 0.342259 72.5947C0.256693 72.8652 0.180377 73.1358 0.111 73.4064L0 73.3555Z" fill="#9F1217"/>
<path d="M11.0565 83.3666C9.90024 83.3666 8.74392 83.4845 7.61769 83.3388C6.19082 83.1538 5.24268 81.9513 5.21262 80.4805C5.17099 78.6026 5.17099 76.7256 5.21262 74.8493C5.20294 74.102 5.48492 73.3803 5.99876 72.8375C6.5126 72.2947 7.21781 71.9736 7.96457 71.9424C8.96361 71.8707 9.97193 71.9285 11.0565 71.9285V83.3666Z" fill="#9F1217"/>
</svg>
