<svg width="101" height="101" viewBox="0 0 101 101" fill="none" xmlns="http://www.w3.org/2000/svg">
<path d="M46.9936 0H53.6789C54.0309 0.0631774 54.3776 0.152695 54.7296 0.181652C62.1031 0.766042 69.1299 2.60082 75.5525 6.33882C86.4775 12.6987 92.4405 22.0252 92.275 34.9371C92.2277 38.6225 92.2881 42.3078 92.2514 45.9721C92.2514 46.6907 92.4379 47.0461 93.1314 47.3541C94.7352 48.0367 96.1758 49.0532 97.3578 50.3362C98.5398 51.6192 99.4361 53.1394 99.9874 54.7958C100.279 55.6224 100.45 56.4911 100.673 57.3414V60.2975C100.604 60.4789 100.546 60.6644 100.5 60.853C99.8246 64.7384 97.7493 67.6603 94.4001 69.6794C93.612 70.1532 92.7426 70.4902 91.9125 70.8876C91.9493 70.9561 91.9545 70.9956 91.9781 71.0114L92.6506 71.4036C96.2494 73.5095 98.7213 76.5288 99.969 80.5195C100.261 81.4461 100.442 82.407 100.673 83.3494V86.1081C100.045 87.8139 99.0102 89.1564 97.2266 89.7329C96.2649 90.0501 95.2781 90.2843 94.2766 90.4331C93.0289 90.6069 91.7602 90.6437 90.4467 90.7438C90.4467 91.465 90.536 92.1337 90.431 92.7707C90.1552 94.4107 89.9765 96.1033 89.4275 97.6538C88.6237 99.9203 86.8506 100.976 84.4497 100.871C79.7003 100.663 75.8284 98.6567 72.7865 95.0161L72.1902 94.287C57.5535 103.161 43.056 103.132 28.5112 94.2633C28.3221 94.5002 28.125 94.7582 27.9149 95.0082C24.7627 98.7646 20.7672 100.765 15.8603 100.878C13.9979 100.921 12.4927 100.089 11.6574 98.4646C11.0793 97.2583 10.6718 95.9771 10.4464 94.6581C10.1837 93.363 10.21 92.0257 10.1049 90.6358C9.4167 90.6358 8.77835 90.7201 8.17418 90.6174C6.50614 90.3358 4.78558 90.1567 3.20423 89.6039C0.984551 88.83 -0.0924212 87.04 0.0179059 84.7051C0.280589 78.798 3.03608 74.3677 8.10325 71.3668C8.34229 71.2246 8.5761 71.0772 8.91234 70.8719C8.4973 70.7166 8.22413 70.6086 7.9562 70.5138C3.25153 68.6159 0.101952 64.1276 0.00475886 59.1946C-0.0640016 56.6999 0.613715 54.2417 1.95071 52.1363C3.2877 50.0309 5.22282 48.3745 7.50702 47.3804C8.26092 47.0514 8.42115 46.6591 8.41852 45.9194C8.40276 41.2917 8.30293 36.656 8.47631 32.0336C8.75475 24.5602 11.4683 18.0266 16.6773 12.6381C23.3311 5.75704 31.7317 2.37179 40.9703 0.792352C42.9667 0.452774 44.9867 0.260607 46.9936 0ZM50.4532 27.5664C50.382 27.6002 50.3143 27.6408 50.2509 27.6875C50.1563 27.8191 50.0591 27.9507 49.9698 28.0903C43.0061 38.7172 33.2894 44.5822 20.5203 45.1244C19.8951 45.1508 19.6824 45.4245 19.5011 45.9378C18.0406 50.0786 16.5512 54.2088 15.0959 58.3496C14.9408 58.7762 14.8816 59.232 14.9226 59.6842C16.2045 70.656 20.9013 79.843 29.3702 86.9689C40.2085 96.0901 55.8381 97.1984 67.7508 89.5487C77.9456 82.9993 83.4909 73.3542 85.5608 61.5374C85.8572 59.7972 85.6672 58.0087 85.0118 56.37C83.8008 53.1137 82.6634 49.8312 81.6337 46.517C81.2659 45.335 80.709 44.9981 79.5191 44.9375C71.4705 44.5716 64.3281 41.8024 58.1603 36.5876C55.1262 34.0131 52.5241 30.9673 50.4532 27.5664Z" fill="#9F1217"/>
<path d="M50.3611 84.0601C45.6643 83.9917 41.5218 82.4807 38.015 79.306C36.494 77.9319 36.2944 75.9655 37.5316 74.6072C38.7689 73.2489 40.6392 73.2304 42.168 74.5624C47.0907 78.8532 53.5869 78.8611 58.5017 74.5809C60.062 73.2226 61.9901 73.2515 63.209 74.6546C64.3832 76.0076 64.1809 77.9345 62.6994 79.2849C59.1925 82.4701 55.0474 83.9811 50.3611 84.0601Z" fill="#9F1217"/>
<path d="M73.3827 56.7965C73.3803 57.6254 73.2141 58.4456 72.8935 59.2097C72.5729 59.9739 72.1044 60.6668 71.515 61.2484C70.9256 61.83 70.227 62.2887 69.4596 62.5981C68.6922 62.9076 67.8712 63.0615 67.0441 63.051C65.39 63.0249 63.8119 62.3507 62.6477 61.1728C61.4836 59.9949 60.826 58.4069 60.8159 56.7491C60.8256 55.0748 61.496 53.4723 62.6806 52.2916C63.8652 51.1109 65.4679 50.4478 67.1387 50.4471C67.9661 50.4485 68.7849 50.6143 69.5479 50.935C70.3109 51.2557 71.0028 51.7249 71.5835 52.3154C72.1643 52.906 72.6224 53.6061 72.9312 54.3753C73.24 55.1445 73.3934 55.9674 73.3827 56.7965Z" fill="#9F1217"/>
<path d="M27.2897 56.7596C27.2835 55.9299 27.4416 55.1073 27.7549 54.3394C28.0682 53.5714 28.5304 52.8734 29.1149 52.2858C29.6993 51.6981 30.3943 51.2325 31.1596 50.916C31.9249 50.5995 32.7453 50.4383 33.5732 50.4418C35.2446 50.453 36.8436 51.1269 38.0206 52.3162C39.1976 53.5056 39.8568 55.1135 39.8539 56.7886C39.8348 58.4462 39.168 60.0303 37.9968 61.2011C36.8256 62.3718 35.2431 63.0359 33.5889 63.051C32.7621 63.0559 31.9425 62.8966 31.1775 62.5824C30.4124 62.2682 29.717 61.8053 29.1313 61.2204C28.5457 60.6355 28.0815 59.9402 27.7654 59.1746C27.4493 58.4089 27.2876 57.5881 27.2897 56.7596Z" fill="#9F1217"/>
</svg>
