<svg width="81" height="69" viewBox="0 0 81 69" fill="none" xmlns="http://www.w3.org/2000/svg">
<g clip-path="url(#clip0_422_801)">
<path d="M80.9998 56.0814C80.4685 57.131 80.0362 58.2515 79.3754 59.2127C78.6384 60.2872 77.4862 60.8685 76.2216 61.1928C66.3286 63.728 56.435 66.2639 46.5408 68.8004C44.4116 69.3453 42.8024 68.7697 42.0958 67.1311C41.8067 66.4222 41.661 65.6623 41.6673 64.8959C41.6445 50.0247 41.6349 35.1542 41.6388 20.2844C41.6388 19.7337 41.7911 19.5169 42.3395 19.3807C53.5834 16.5947 64.8229 13.796 76.0579 10.9845C78.2175 10.4453 79.7544 11.0075 80.558 12.5866C80.7352 12.9377 80.8551 13.3176 80.9998 13.686V56.0814ZM51.8314 58.6391C53.294 58.3513 54.6385 58.1133 55.9678 57.8179C59.8586 56.9506 63.7037 55.926 67.1564 53.8366C70.8549 51.5975 73.3287 48.4968 73.6315 43.9802C73.8315 41.0101 72.388 38.7192 69.7465 37.8673C68.9847 37.6236 68.1772 37.5565 67.2707 37.3857C67.6516 37.1056 67.9373 36.8926 68.2229 36.6681C70.6111 34.7782 72.3385 32.4949 72.4946 29.2945C72.6299 26.5105 71.43 24.6072 68.7657 23.857C67.4503 23.4897 66.0778 23.3764 64.7206 23.5232C60.508 24.0028 56.5315 25.4015 52.6141 26.994C52.0085 27.2416 51.8066 27.5562 51.8085 28.2163C51.8313 38.04 51.8364 47.8637 51.8237 57.6874L51.8314 58.6391Z" fill="#CB7C05"/>
<path d="M39.3536 42.6927C39.3536 49.9703 39.2965 57.2479 39.3784 64.5255C39.4203 68.3092 37.093 69.5314 34.0459 68.7198C24.4266 66.1622 14.7691 63.7581 5.12685 61.2868C1.81692 60.4387 0.00585938 58.0826 0.00585938 54.6616C0.00585938 41.4072 0.00585938 28.1536 0.00585938 14.9005C0.00585938 13.4807 0.297203 12.2009 1.5389 11.3413C2.52541 10.6602 3.61661 10.6602 4.7269 10.9365C13.0049 12.9959 21.283 15.0572 29.561 17.1204C32.5776 17.8725 35.5847 18.6554 38.609 19.3615C39.2432 19.5111 39.3708 19.7836 39.3708 20.3822C39.3492 27.819 39.3435 35.2559 39.3536 42.6927ZM14.7863 45.0624C17.7686 45.8701 20.6596 46.6702 23.562 47.4261C24.0495 47.5509 24.2456 47.7907 24.3732 48.2435C25.0703 50.6898 25.8454 53.1151 26.4681 55.5768C26.7138 56.5361 27.1614 56.9716 28.0927 57.1731C29.5953 57.4993 31.075 57.9406 32.6728 58.3723C32.5643 57.9387 32.5014 57.6355 32.4119 57.3401C29.394 47.1531 26.3786 36.9655 23.3658 26.7772C23.1639 26.0961 22.8745 25.743 22.1489 25.5742C20.1568 25.106 18.1914 24.5266 16.1403 23.9721C12.9542 33.1281 9.79086 42.215 6.61805 51.3499L12.2171 52.8484C13.0817 50.2159 13.9178 47.6814 14.7805 45.0624H14.7863Z" fill="#CB7C05"/>
<path d="M40.4124 0C43.6805 0 46.7961 0.869175 49.9347 1.49467C57.9905 3.09614 66.0425 4.71933 74.0907 6.36429C74.761 6.49167 75.416 6.69042 76.0447 6.95718C76.616 7.20661 76.616 7.65749 76.0751 7.95297C75.5633 8.22254 75.0211 8.42874 74.4601 8.56699C63.2582 11.4067 52.0531 14.2348 40.8447 17.0514C40.4935 17.1358 40.1275 17.1358 39.7763 17.0514C28.9273 14.3231 18.0808 11.5825 7.2369 8.82982C6.67588 8.68879 6.12889 8.49611 5.60287 8.25422C5.37434 8.14869 5.08868 7.85515 5.09059 7.64985C5.09249 7.44455 5.38577 7.12603 5.6105 7.05695C6.61414 6.74613 7.63112 6.46601 8.65761 6.24919C17.5933 4.34969 26.529 2.44635 35.4742 0.598654C37.0987 0.268639 38.767 0.193788 40.4124 0ZM58.021 5.16131C57.4496 4.9349 57.0402 4.74493 56.6193 4.61446C49.7633 2.47704 38.9574 -0.71185 26.43 4.54153C25.084 5.13513 23.8351 5.93084 22.7258 6.90153C21.6003 7.86088 21.686 9.09651 22.781 10.0674C23.4088 10.6315 24.1226 11.0902 24.895 11.4258C29.4923 13.3445 34.3696 13.9796 39.2716 14.5341C40.6942 14.6953 41.2256 13.7897 42.1474 12.9665C41.8103 12.9262 41.6617 12.9147 41.5132 12.8917C38.7841 12.4657 36.0417 12.1242 33.3374 11.5755C32.149 11.3356 30.9873 10.7946 29.9094 10.2074C28.5592 9.46874 28.5153 8.35398 29.6561 7.32939C29.8161 7.19082 29.9846 7.06264 30.1608 6.94566C31.713 5.88814 33.4624 5.15965 35.3028 4.80441C41.5703 3.48051 47.7083 4.07533 53.7226 6.21467C53.9342 6.31099 54.1689 6.34428 54.3987 6.3106C55.5623 5.96524 56.7031 5.58342 58.021 5.16131Z" fill="#CB7C05"/>
<path d="M57.5981 52.9405V42.3877C59.5845 42.048 61.5861 41.4878 63.6048 41.413C67.2594 41.2748 68.0955 43.8708 67.3623 46.7527C66.8538 48.7539 65.4578 50.0528 63.7038 51.0218C61.8108 52.0694 59.7597 52.5625 57.5981 52.9405Z" fill="#CB7C05"/>
<path d="M57.5505 38.4295V31.1903C57.5505 29.5153 57.5411 29.475 59.1198 29.0433C60.4073 28.6922 61.7118 28.3218 63.0316 28.1894C66.3491 27.8518 67.1585 30.2367 66.5072 32.6274C65.8807 34.9298 64.1266 36.1981 62.0584 37.0193C60.6491 37.5718 59.1617 37.9287 57.5505 38.4295Z" fill="#CB7C05"/>
<path d="M19.4025 29.45C20.6499 33.9378 21.9221 38.5119 23.2286 43.2031L15.7402 41.1904C16.9762 37.2264 18.1989 33.3027 19.4025 29.45Z" fill="#CB7C05"/>
</g>
<defs>
<clipPath id="clip0_422_801">
<rect width="81" height="69" fill="white"/>
</clipPath>
</defs>
</svg>
