<svg width="124" height="81" viewBox="0 0 124 81" fill="none" xmlns="http://www.w3.org/2000/svg">
<path d="M0 27.7421C0.677888 26.2892 1.92655 25.5836 3.32147 24.9567C21.3504 16.8427 39.3683 8.70314 57.3753 0.537923C58.9825 -0.190595 60.3732 -0.174023 61.9825 0.55657C80.0595 8.76191 98.1462 16.9451 116.242 25.1062C117.182 25.547 118.019 26.1837 118.696 26.9742C119.448 27.8521 119.385 28.9771 118.964 30.0875C118.679 30.7884 118.518 31.5346 118.49 32.2918C118.459 41.968 118.49 51.6462 118.451 61.3245C118.451 62.2295 118.657 62.7546 119.516 63.2175C122.933 65.046 124.694 69.2947 123.744 73.1157C123.283 75.0231 122.216 76.7267 120.706 77.9684C119.197 79.2101 117.326 79.9221 115.378 79.9965C113.431 80.0709 111.512 79.5036 109.913 78.3807C108.315 77.2577 107.123 75.6403 106.519 73.7737C105.196 69.4752 106.861 65.3137 110.749 63.0369C111.137 62.8085 111.536 62.1963 111.54 61.7625C111.586 52.8169 111.573 43.8712 111.569 34.9256C111.569 34.6558 111.516 34.386 111.477 34.0082C111.048 34.1224 110.706 34.1971 110.376 34.305C106.509 35.5856 102.656 36.9015 98.7739 38.1303C97.9126 38.4022 97.6921 38.8173 97.6963 39.6765C97.7272 47.4432 97.6963 55.2079 97.721 62.9746C97.721 64.3839 97.48 65.6168 96.2396 66.503C94.9992 67.3893 93.767 67.1444 92.4484 66.7666C87.3343 65.3137 82.2552 63.674 77.067 62.5678C69.3774 60.9281 61.558 60.6002 53.7015 61.0879C44.4343 61.6811 35.2981 63.5995 26.5674 66.7853C23.6498 67.8376 21.5914 66.3162 21.5852 63.178C21.5708 55.4507 21.5585 47.7255 21.6059 40.0003C21.6059 38.9252 21.2865 38.4956 20.2604 38.151C14.4912 36.2125 8.761 34.1431 2.99792 32.1817C1.5556 31.6919 0.486266 30.9364 0 29.4544V27.7421Z" fill="#9E9E9F"/>
</svg>
