<svg width="112" height="91" viewBox="0 0 112 91" fill="none" xmlns="http://www.w3.org/2000/svg">
<g clip-path="url(#clip0_480_804)">
<path d="M15.3873 30.2271V31.5765C15.3873 44.3448 15.3809 57.1126 15.3683 69.88C15.3683 70.7746 15.5925 71.2497 16.4388 71.6919C19.0802 73.0718 20.3952 75.3894 20.4623 78.3367C20.5371 81.6159 20.5092 84.899 20.4725 88.1796C20.4509 90.0346 19.4324 90.9824 17.5524 90.99C14.4274 91.0044 11.3058 91.0044 8.18764 90.99C6.27847 90.9811 5.32963 90.0574 5.31696 88.1593C5.29501 84.918 5.29501 81.6767 5.31696 78.4355C5.33977 75.25 6.81056 72.9236 9.64961 71.5158C10.2767 71.2041 10.3565 70.8202 10.3565 70.2297C10.3464 56.5525 10.3489 42.8754 10.3641 29.1982C10.3641 28.4937 10.1513 28.1541 9.48494 27.9146C7.11084 27.0593 4.757 26.1407 2.3981 25.2537C0.920932 24.6923 0.167104 23.8092 0.232981 22.6282C0.31026 21.261 1.17426 20.5679 2.38665 20.1067C19.7149 13.5245 37.038 6.92578 54.3561 0.310626C54.8438 0.108288 55.3667 0.00415039 55.8947 0.00415039C56.4227 0.00415039 56.9456 0.108288 57.4333 0.310626C74.7117 6.91395 91.9972 13.4995 109.29 20.0674C110.537 20.5413 111.459 21.2306 111.515 22.6624C111.56 23.851 110.83 24.6898 109.318 25.2701C92.0318 31.8591 74.7471 38.4481 57.4637 45.037C56.3552 45.4615 55.3822 45.4476 54.275 45.0231C41.7516 40.2258 29.2206 35.4501 16.682 30.6959C16.3197 30.5578 15.9535 30.4311 15.3873 30.2271Z" fill="#9E9E9F"/>
<path d="M20.4852 37.5609C23.4205 38.6722 26.2165 39.7264 29.0086 40.7895C36.8632 43.7799 44.7178 46.7449 52.5546 49.786C54.8185 50.6628 56.976 50.6464 59.2285 49.786C69.3558 45.9002 79.4907 42.0342 89.6333 38.1881C90.1083 38.0069 90.5872 37.8359 91.2599 37.5888V38.9446C91.2599 47.6454 91.2599 56.3429 91.2599 65.0369C91.2599 67.191 90.8888 67.7219 88.9087 68.4771C78.4756 72.4516 68.0451 76.4299 57.6171 80.412C56.4414 80.8631 55.3874 80.8885 54.1965 80.4298C43.7381 76.4105 33.27 72.4187 22.7921 68.4543C20.8754 67.7245 20.4852 67.1695 20.4839 65.1091C20.4839 56.372 20.4839 47.6349 20.4839 38.8977L20.4852 37.5609Z" fill="#9E9E9F"/>
</g>
<defs>
<clipPath id="clip0_480_804">
<rect width="111.287" height="91" fill="white" transform="translate(0.229248)"/>
</clipPath>
</defs>
</svg>
