<svg width="64" height="64" viewBox="0 0 64 64" fill="none" xmlns="http://www.w3.org/2000/svg">
<path d="M24.3421 18.4035C24.0686 18.4035 24.0686 18.4035 23.7951 18.4035H23.5216C23.5216 18.4035 23.5216 18.4035 23.2481 18.1288C22.9746 17.8541 22.9746 17.5794 22.9746 17.3047V17.0301V16.7554V16.4807C22.9746 16.4807 22.9746 16.4807 23.2481 16.206C23.2481 16.206 23.2481 16.206 23.5216 15.9314H23.7951H24.0686C24.3421 15.9314 24.8891 15.9314 25.1626 16.206C25.1626 16.206 25.1626 16.206 25.4362 16.4807V16.7554V17.0301V17.3047V17.5794V17.8541V18.1288C25.4362 18.1288 25.4362 18.1288 25.1626 18.4035C25.1626 18.4035 25.1626 18.4035 24.8891 18.6781H24.6156C24.8891 18.4035 24.6156 18.4035 24.3421 18.4035C24.3421 18.4035 24.6156 18.4035 24.3421 18.4035Z" fill="#E42229"/>
<path d="M48.6839 18.4033C48.6839 18.4033 48.4104 18.4033 48.6839 18.4033C44.8549 17.5793 40.7523 17.3046 36.6497 17.3046C34.4617 17.3046 32.0001 17.3046 29.8121 17.5793C29.2651 17.5793 28.4446 17.03 28.4446 16.4806C28.4446 15.9312 28.9916 15.1072 29.5386 15.1072C31.7266 14.8325 34.1882 14.8325 36.6497 14.8325C41.0258 14.8325 45.4019 15.3819 48.9574 15.9312C49.5045 16.2059 50.0515 16.7553 50.0515 17.3046C49.778 18.1287 49.2309 18.4033 48.6839 18.4033Z" fill="#E42229"/>
<path d="M5.7435 29.3906C5.47 29.3906 5.47 29.3906 5.7435 29.3906C5.47 29.3906 5.47 29.3906 5.19649 29.3906H4.92299C4.92299 29.3906 4.92299 29.3906 4.64948 29.116C4.64948 29.116 4.64948 29.116 4.37598 28.8413V28.5666V28.2919V28.0173V27.7426V27.4679V27.1932C4.37598 27.1932 4.37598 27.1932 4.64948 26.9185C4.64948 26.9185 4.64948 26.9185 4.92299 26.6439H5.19649H5.46999C5.7435 26.6439 5.7435 26.6439 6.01701 26.6439H6.29051H6.56401C6.56401 26.6439 6.56401 26.6439 6.83752 26.9185C6.83752 26.9185 6.83752 26.9185 7.11103 27.1932V27.4679V27.7426V28.0173V28.2919V28.5666V28.8413C7.11103 28.8413 7.11102 28.8413 6.83752 29.116C6.83752 29.116 6.83752 29.116 6.56401 29.3906H6.29051C6.01701 29.3906 6.01701 29.3906 5.7435 29.3906Z" fill="#E42229"/>
<path d="M11.2137 20.3262L7.38463 12.6352C7.11113 12.0858 6.83762 11.8112 6.29061 11.8112H4.92309C4.37608 11.8112 4.10257 12.0858 3.82907 12.6352L0 20.3262C0 20.6009 0 20.6009 0 20.8755V62.6266C0 63.176 0.54701 64 1.36752 64H10.1197C10.6667 64 11.4872 63.4506 11.4872 62.6266V20.8755C11.2137 20.6009 11.2137 20.3262 11.2137 20.3262ZM2.46154 21.1502L3.82907 18.4034H7.65814L9.02566 21.1502V21.6996H2.46154V21.1502ZM8.75215 24.1717V49.7167H6.83762V33.7854C6.83762 33.236 6.29061 32.412 5.4701 32.412C4.92309 32.412 4.10257 32.9614 4.10257 33.7854V49.7167H2.46154V24.1717H8.75215ZM2.46154 52.1888H8.75215V54.1116H2.46154V52.1888ZM5.7436 14.5579L6.29061 15.9313H4.92309L5.7436 14.5579ZM8.75215 61.2532H2.46154V56.5837H8.75215V61.2532V61.2532Z" fill="#E42229"/>
<path d="M62.6324 12.3605L37.1964 0C36.6494 0 36.3759 0 36.1024 0L10.393 12.3605C10.1195 12.6352 9.84595 12.9099 9.84595 13.4592C9.84595 14.0086 10.1195 14.2833 10.6665 14.5579L19.1451 18.1288V26.3691C19.1451 26.9185 19.4186 27.1931 19.6921 27.4678H19.9656V32.412C19.4186 32.412 18.5981 32.9614 18.5981 33.7854C18.5981 34.3348 19.1451 35.1588 19.9656 35.1588V35.7081C19.9656 39.279 21.0596 42.5751 23.5212 45.3219C25.4357 47.5193 27.8973 49.1674 31.1793 50.2661V51.9142H20.7861C17.7776 51.9142 15.316 54.3863 15.316 57.4077V62.3519C15.316 62.9013 15.8631 63.7253 16.6836 63.7253H56.8888C57.4358 63.7253 58.2563 63.176 58.2563 62.3519V57.4077C58.2563 54.3863 55.7948 51.9142 52.7862 51.9142H42.393V50.2661C45.4016 49.1674 48.1366 47.5193 50.0512 45.3219C52.2392 42.5751 53.6067 39.5536 53.6067 35.7081V34.8841C54.1537 34.8841 54.9743 34.3348 54.9743 33.5107C54.9743 32.9614 54.4272 32.1373 53.6067 32.1373V27.1931H53.8802C54.1537 26.9184 54.4272 26.6438 54.4272 26.0944V17.8541L57.4358 16.7554V29.6652C57.4358 30.2146 57.9828 31.0386 58.8033 31.0386C59.6238 31.0386 60.1708 30.4893 60.1708 29.6652V15.9313L63.1794 14.8326C63.7264 14.5579 63.9999 14.2833 63.9999 13.7339C63.4529 13.1845 63.1794 12.6352 62.6324 12.3605ZM51.4187 24.4463C49.7777 23.6223 47.8631 23.3476 45.9486 23.3476C42.393 23.3476 38.8375 24.721 36.3759 27.4678C33.9144 24.721 30.6323 23.3476 26.8032 23.3476C24.8887 23.3476 22.9742 23.897 21.3332 24.4463V15.1073C25.7092 14.0086 30.9058 13.4592 36.3759 13.4592C41.846 13.4592 47.0426 14.0086 51.4187 15.1073V24.4463ZM55.7948 57.4077V61.2532H17.5041V57.4077C17.5041 55.7596 18.8716 54.3863 20.5126 54.3863H52.7862C54.4272 54.1116 55.7948 55.485 55.7948 57.4077ZM50.5982 35.7081C50.5982 41.4764 46.7691 46.1459 40.4785 48.0687C39.9315 48.3433 39.658 48.618 39.658 49.1674V51.6395H33.6409V49.1674C33.6409 48.618 33.3674 48.0687 32.8204 48.0687C26.2562 46.1459 22.7007 41.7511 22.7007 35.7081V34.8841H24.0682C24.6152 37.6309 27.0768 39.5536 29.8118 39.5536C32.5469 39.5536 35.0084 37.6309 35.5554 34.8841H37.7434C38.2905 37.6309 40.752 39.5536 43.487 39.5536C46.2221 39.5536 48.6836 37.6309 49.2307 34.8841H50.5982V35.7081V35.7081ZM26.2562 33.7854C26.2562 31.8627 27.8973 30.4893 29.5383 30.4893C31.4528 30.4893 32.8204 32.1373 32.8204 33.7854C32.8204 35.4335 31.1793 37.0815 29.5383 37.0815C27.6238 37.3562 26.2562 35.7081 26.2562 33.7854ZM39.9315 33.7854C39.9315 31.8627 41.5725 30.4893 43.2135 30.4893C45.1281 30.4893 46.4956 32.1373 46.4956 33.7854C46.4956 35.4335 44.8546 37.0815 43.2135 37.0815C41.5725 37.3562 39.9315 35.7081 39.9315 33.7854ZM49.2307 32.6867C48.6836 29.9399 46.2221 28.0172 43.487 28.0172C40.752 28.0172 38.2905 29.9399 37.7434 32.6867H35.5554C35.0084 29.9399 32.5469 28.0172 29.8118 28.0172C27.0768 28.0172 24.6152 29.9399 24.0682 32.6867H22.7007V26.6438C24.0682 25.8197 25.7092 25.5451 27.3503 25.5451C30.6323 25.5451 33.9144 27.1931 35.8289 29.9399C36.1024 30.2146 36.3759 30.4893 36.9229 30.4893C37.1964 30.4893 37.7434 30.2146 38.017 29.9399C39.9315 27.1931 43.2135 25.5451 46.4956 25.5451C48.1366 25.5451 49.7777 25.8197 51.1452 26.6438V32.6867H49.2307V32.6867ZM53.0597 12.9099C48.4101 11.5365 42.393 10.7124 36.3759 10.7124C30.3588 10.7124 24.3417 11.5365 19.6921 12.9099C19.1451 13.1845 18.8716 13.4592 18.8716 14.0086V15.382L13.9485 13.4592L36.6494 2.74678L59.0768 13.7339L54.1537 15.382V14.0086C53.8802 13.4592 53.6067 12.9099 53.0597 12.9099Z" fill="#E42229"/>
</svg>
