<svg width="31" height="37" viewBox="0 0 31 37" fill="none" xmlns="http://www.w3.org/2000/svg">
<path d="M14.1666 0H16.6185C17.1965 0.0724089 17.7842 0.131302 18.3633 0.218193C21.2959 0.66037 24.0224 1.63161 26.374 3.48818C29.1333 5.66624 30.7181 8.50854 30.747 12.0537C30.8048 18.9885 30.7836 25.9253 30.7595 32.8621C30.7518 35.2651 28.9194 37 26.4935 37C19.0803 37 11.6662 36.9961 4.25115 36.9884C3.92727 36.9891 3.60426 36.9548 3.28773 36.8861C1.29635 36.4381 0.0198242 34.791 0.0121169 32.6603C0.00633637 28.6382 0.00633637 24.6155 0.0121169 20.5921C0.0121169 17.6543 -0.0293053 14.7145 0.041024 11.7785C0.1075 9.0096 1.13546 6.59308 3.07096 4.60328C5.5084 2.09311 8.57977 0.866011 11.9565 0.289636C12.6897 0.166058 13.4306 0.0955798 14.1666 0ZM15.4046 11.9146C15.3083 12.0411 15.2273 12.1435 15.1493 12.2458C12.7639 15.3584 9.67614 17.242 5.74444 17.6436C5.48721 17.6697 5.37738 17.7402 5.3793 18.0298C5.39279 20.2504 5.35522 22.4622 5.40435 24.677C5.40921 25.4589 5.53664 26.2353 5.782 26.9776C7.01806 30.4639 9.47286 32.7954 12.8545 34.177C14.6464 34.9098 16.4383 34.8152 18.213 34.0573C20.2496 33.1884 21.9173 31.8464 23.2776 30.1105C24.7035 28.2897 25.4819 26.2564 25.4106 23.9007C25.3519 21.9756 25.3981 20.0476 25.3981 18.1206V17.6919C21.1697 17.3231 17.8902 15.3285 15.4046 11.9166V11.9146Z" fill="#E42229"/>
<path d="M15.3641 30.8299C13.6723 30.8039 12.1405 30.2458 10.8514 29.0661C10.3129 28.5727 10.2474 27.8602 10.6877 27.3688C11.1279 26.8774 11.8322 26.8571 12.3881 27.3418C14.208 28.927 16.5674 28.9241 18.4056 27.336C18.9624 26.8532 19.658 26.8697 20.1051 27.3746C20.5521 27.8795 20.4721 28.5804 19.9307 29.0738C18.6484 30.2401 17.13 30.801 15.3641 30.8299Z" fill="#E42229"/>
<path d="M12.3063 20.8198C12.3068 21.1237 12.2473 21.4246 12.1311 21.7052C12.0149 21.9859 11.8444 22.2407 11.6294 22.455C11.4145 22.6692 11.1593 22.8387 10.8786 22.9536C10.5979 23.0685 10.2973 23.1265 9.99407 23.1243C9.38746 23.1176 8.80765 22.8729 8.37887 22.4429C7.95008 22.0128 7.70646 21.4316 7.7002 20.8237C7.70223 20.2098 7.94649 19.6216 8.37967 19.1875C8.81285 18.7534 9.39978 18.5086 10.0124 18.5066C10.3148 18.5066 10.6143 18.5665 10.8936 18.6829C11.1728 18.7994 11.4263 18.97 11.6395 19.185C11.8527 19.4 12.0214 19.6551 12.1358 19.9357C12.2503 20.2162 12.3082 20.5167 12.3063 20.8198Z" fill="#E42229"/>
<path d="M20.7611 18.502C21.374 18.4999 21.9628 18.7412 22.3987 19.1731C22.8345 19.605 23.0819 20.1923 23.0868 20.8065C23.0845 21.4203 22.8401 22.0084 22.407 22.4424C21.9739 22.8765 21.3871 23.1213 20.7746 23.1236C20.168 23.1233 19.5861 22.8828 19.1559 22.4543C18.7256 22.0258 18.4818 21.4443 18.4778 20.8364C18.4734 20.5326 18.5292 20.2308 18.6419 19.9487C18.7545 19.6665 18.9218 19.4095 19.1341 19.1925C19.3463 18.9754 19.5994 18.8027 19.8787 18.6842C20.1579 18.5656 20.4578 18.5037 20.7611 18.502Z" fill="#E42229"/>
</svg>
