<svg width="69" height="75" viewBox="0 0 69 75" fill="none" xmlns="http://www.w3.org/2000/svg">
<path d="M46.8684 1.66789C49.405 3.82449 49.8054 7.9711 47.6511 10.517C47.2416 11.0005 47.1438 11.3952 47.3739 11.9891C47.8124 13.1281 48.1621 14.2996 48.5353 15.4295C50.5284 15.0855 52.4544 14.6908 54.4058 14.43C57.4371 14.0226 60.4684 14.0009 63.4073 15.0294C67.7848 16.5576 69.8014 20.2932 68.7071 24.8074C68.0511 27.5235 66.7448 29.93 65.0833 32.1391C63.815 33.8303 62.4035 35.4147 60.9848 37.1349C61.1479 37.3051 61.3888 37.5605 61.6334 37.8121C64.0614 40.32 66.1632 43.0633 67.6344 46.2484C68.6799 48.5118 69.3213 50.8585 68.794 53.3882C68.4837 55.0167 67.5545 56.4619 66.2012 57.4207C65.9973 57.5586 65.8282 57.7419 65.7072 57.9562C65.5862 58.1705 65.5165 58.4099 65.5036 58.6556C65.1938 61.207 63.8023 63.0014 61.4323 63.9068C58.8866 64.8773 56.5112 64.383 54.5689 62.4582C53.8931 61.79 53.5198 60.8195 52.9835 60.0028C52.8313 59.771 52.6211 59.4741 52.3874 59.4216C51.1191 59.1282 49.8507 58.9001 48.4973 58.6357C48.4067 58.8964 48.3161 59.159 48.2273 59.4252C47.1402 62.9326 45.8555 66.3476 43.6976 69.3571C42.4419 71.1008 40.9652 72.6164 38.9396 73.4548C35.8883 74.7223 32.6795 73.931 30.103 71.3326C28.1208 69.3408 26.7365 66.9416 25.6856 64.3613C25.0043 62.6936 24.4535 60.9734 23.8447 59.2767L23.6345 58.6973C21.2483 59.0703 18.9345 59.5356 16.5972 59.7747C13.4535 60.097 10.3226 59.9829 7.41815 58.5071C5.07901 57.3175 3.59507 55.4651 3.29973 52.796C3.2832 52.5979 3.21906 52.4067 3.11275 52.2387C3.00645 52.0707 2.86112 51.9308 2.68913 51.8309C0.417022 50.2356 -0.572268 47.1447 0.333675 44.5879C1.35014 41.7215 3.99188 39.7786 6.85647 40.1625C8.14834 40.3436 8.72815 39.8456 9.39311 39.0072C9.93668 38.3083 10.5726 37.6763 11.1053 37.0842C9.76092 35.4654 8.38751 33.9408 7.1663 32.3093C5.40152 29.9698 3.97557 27.4312 3.36134 24.5231C2.37929 19.8043 4.78548 15.9999 9.47102 14.7777C12.5404 13.9755 15.6314 14.0751 18.7207 14.5676C20.3351 14.8248 21.9368 15.1525 23.6128 15.4621C23.7578 15.0221 23.919 14.5568 24.0694 14.0769C25.1203 10.7596 26.3868 7.54376 28.4469 4.70089C29.8131 2.81772 31.4293 1.2297 33.7014 0.449267C36.4192 -0.506806 38.4268 0.572399 39.1697 0.824092C39.3016 0.868599 39.4456 0.860822 39.5719 0.802364C42.9348 -1.05727 45.8338 0.778819 46.8684 1.66789ZM25.3939 36.9973C25.3939 38.8732 25.3721 40.7528 25.4156 42.6287C25.4351 42.796 25.4902 42.9571 25.577 43.1014C25.6639 43.2457 25.7806 43.3697 25.9193 43.4653C29.1155 45.3376 32.328 47.1821 35.5568 48.9989C35.7201 49.074 35.8978 49.1129 36.0777 49.1129C36.2575 49.1129 36.4352 49.074 36.5986 48.9989C39.8238 47.1773 43.032 45.3249 46.2233 43.4417C46.3543 43.3535 46.4644 43.2378 46.5461 43.1027C46.6278 42.9676 46.679 42.8164 46.6962 42.6595C46.7252 38.9052 46.7252 35.151 46.6962 31.3967C46.6757 31.2419 46.622 31.0934 46.5388 30.9612C46.4557 30.829 46.345 30.7163 46.2143 30.6307C43 28.7403 39.7712 26.8753 36.5279 25.0355C36.3869 24.9678 36.2327 24.9317 36.0762 24.9298C35.9197 24.9279 35.7646 24.9603 35.622 25.0247C32.3606 26.8728 29.1101 28.7476 25.8704 30.6488C25.7419 30.7399 25.6344 30.8576 25.5553 30.9938C25.4762 31.13 25.4274 31.2816 25.412 31.4383C25.374 33.2907 25.3939 35.1449 25.3939 36.9973ZM44.3027 57.408C42.4419 56.6837 40.6282 55.9902 38.82 55.275C37.914 54.9128 37.0081 54.2175 36.1021 54.2211C35.1962 54.2247 34.2377 54.9074 33.2937 55.275C31.4818 55.983 29.6699 56.6765 27.8146 57.3935C28.0229 58.0689 28.2096 58.7371 28.4342 59.3853C29.4398 62.3314 30.6085 65.1906 32.6016 67.6441C34.7668 70.3132 37.2346 70.3856 39.4233 67.7528C41.9364 64.7361 43.1957 61.111 44.3027 57.408ZM22.5039 19.6993C21.4567 19.4802 20.4058 19.2303 19.344 19.0474C16.6533 18.5839 13.9573 18.3068 11.2322 18.8084C8.85498 19.2448 7.56311 20.4254 7.49063 22.4118C7.47382 23.0604 7.56819 23.7071 7.76966 24.3239C8.99812 28.1754 11.5366 31.1486 14.2671 33.9516C16.5591 32.1699 18.8204 30.4171 21.0707 28.6498C21.207 28.5228 21.2954 28.3526 21.3208 28.1681C21.7176 25.3796 22.0981 22.5983 22.5039 19.6993ZM57.8049 33.9661C59.4661 32.38 60.9452 30.6139 62.2151 28.7005C63.1826 27.2247 64.0269 25.691 64.46 23.9636C65.1068 21.3996 64.1628 19.7337 61.6389 18.9913C61.5936 18.9768 61.5447 18.9732 61.4976 18.9605C59.2635 18.3792 57.0004 18.4589 54.7483 18.7505C53.0143 18.9768 51.3057 19.3534 49.6206 19.6558C50.0355 22.6128 50.4287 25.4502 50.8364 28.275C50.8614 28.4362 50.9422 28.5836 51.0647 28.6914C53.2951 30.4497 55.5328 32.1916 57.8049 33.9661ZM44.3607 16.6373C44.031 15.6215 43.6885 14.6455 43.4022 13.655C43.2591 13.1643 43.0399 12.9959 42.4963 12.9941C41.5536 12.9954 40.6222 12.7884 39.7689 12.3881C38.9155 11.9878 38.1612 11.4039 37.56 10.6783C36.9587 9.95265 36.5254 9.10322 36.2909 8.19071C36.0564 7.27821 36.0266 6.32519 36.2036 5.39983C36.258 5.10287 36.3141 4.80592 36.3848 4.47093C35.0512 4.33332 34.0891 4.93448 33.2303 5.7475C31.875 7.0277 30.9473 8.6121 30.2189 10.2961C29.313 12.3821 28.5321 14.5169 27.704 16.612C30.1465 17.5879 32.4276 18.4227 34.6418 19.4168C35.6455 19.8641 36.4536 19.8822 37.4719 19.4277C39.6987 18.4245 42.0035 17.5789 44.3607 16.6373ZM22.5112 54.3877C22.1379 51.7223 21.7411 49.1564 21.4385 46.5816C21.3443 45.7848 21.0435 45.2634 20.3822 44.8469C19.7395 44.4213 19.1207 43.9607 18.5286 43.4671C17.1244 42.339 15.7329 41.1928 14.2798 40.0104L11.7866 42.8333C13.0785 44.8252 13.3412 46.8441 12.5114 48.9699C11.6707 51.1265 10.0363 52.3904 7.77328 52.9536C8.46542 54.433 9.72831 54.9889 11.1271 55.2568C14.99 55.9902 18.7406 55.1844 22.5112 54.3877ZM63.969 53.5964C64.7662 52.5099 64.7644 51.3909 64.498 50.2719C63.9019 47.7567 62.5176 45.6364 60.9558 43.6355C59.9719 42.377 58.8649 41.2163 57.8629 40.0683C55.5527 41.8791 53.364 43.5721 51.1952 45.2941C50.9878 45.477 50.8502 45.7258 50.8056 45.9985C50.5537 47.6898 50.3544 49.3864 50.1062 51.0777C49.9468 52.1641 49.7293 53.2505 49.5246 54.4094C50.5936 54.605 51.6101 54.7716 52.6157 54.9852C53.0922 55.0884 53.3277 54.9726 53.5778 54.5362C54.2481 53.368 55.2727 52.4431 56.5035 51.895C57.7343 51.3469 59.1075 51.204 60.4249 51.4869C61.8237 51.7712 62.9398 52.5407 63.969 53.5964ZM46.1436 25.4031C45.8736 23.8405 45.629 22.4154 45.3736 20.9251L41.1935 22.4824L46.1436 25.4031ZM26.7456 53.16L30.9383 51.5973L26.0027 48.7001C26.2654 50.2393 26.4901 51.6354 26.7456 53.16ZM30.9564 22.4824L26.7437 20.9288C26.4937 22.4263 26.2636 23.8097 26.0081 25.3379L30.9564 22.4824ZM20.8787 34.1689L17.4614 37.0227L20.8787 39.8655V34.1689ZM46.1309 48.6893L41.2225 51.5756L45.3772 53.1093C45.6309 51.6245 45.8682 50.2375 46.1309 48.6893ZM51.2586 34.2142V39.8655L54.6214 37.0335L51.2586 34.2142Z" fill="#E42229"/>
<path d="M35.9554 43.5395C32.3316 43.4326 29.4543 40.4322 29.5703 36.8796C29.6862 33.3269 32.6505 30.4696 36.1348 30.542C39.7042 30.6162 42.6467 33.6202 42.5724 37.0969C42.4927 40.702 39.4741 43.6427 35.9554 43.5395Z" fill="#E42229"/>
</svg>
