<svg width="101" height="101" viewBox="0 0 101 101" fill="none" xmlns="http://www.w3.org/2000/svg">
<g clip-path="url(#clip0_296_734)">
<path d="M18.57 93.09C17.94 92.21 16.72 92 15.84 92.63C14.96 93.26 14.75 94.48 15.38 95.36L18.33 99.52C18.71 100.06 19.32 100.35 19.93 100.35C20.32 100.35 20.72 100.23 21.06 99.99C21.94 99.36 22.15 98.14 21.52 97.26L18.57 93.09Z" fill="white"/>
<path d="M40.92 82.6699C39.36 75.2299 35.02 68.7899 28.71 64.5499L21.85 59.9399C19.1 58.0899 15.41 58.4899 13.11 60.8299V37.2199C13.11 34.1199 11 31.4899 7.97 30.8199C6.02 30.3899 4 30.8599 2.44 32.1099C0.89 33.3599 0 35.2199 0 37.2199V67.6099C0 71.5899 1.22 75.4099 3.52 78.6599L7.01 83.5799C7.4 84.1199 8 84.3999 8.62 84.3999C9.01 84.3999 9.41 84.2799 9.75 84.0399C10.63 83.4099 10.84 82.1899 10.21 81.3099L6.72 76.3899C4.89 73.8099 3.92 70.7799 3.92 67.6099V37.2199C3.92 36.4099 4.28 35.6599 4.91 35.1599C5.54 34.6599 6.35 34.4699 7.14 34.6399C8.36 34.9099 9.21 35.9699 9.21 37.2199V61.3299C9.21 64.7399 10.46 67.9899 12.74 70.5199C12.84 70.6399 12.94 70.7499 13.04 70.8699C14.34 72.2499 15.87 73.8699 17.31 75.4099L19.33 77.5599C19.34 77.5699 19.34 77.5699 19.35 77.5799C21.08 79.4199 22.35 80.7699 22.38 80.7999C23.12 81.5899 24.36 81.6299 25.15 80.8899C25.94 80.1499 25.98 78.9099 25.24 78.1199C25.2 78.0799 22.91 75.6399 20.29 72.8499L15.8 68.0699C15.79 68.0599 15.78 68.0499 15.77 68.0299C14.72 66.7699 14.73 64.9399 15.83 63.6999C16.81 62.5999 18.47 62.3899 19.69 63.2099L26.54 67.8199C32 71.4899 35.75 77.0499 37.1 83.4899L40.31 98.7899C40.5 99.7099 41.32 100.35 42.23 100.35C42.36 100.35 42.5 100.34 42.63 100.31C43.69 100.09 44.37 99.0499 44.15 97.9899L40.92 82.6699Z" fill="white"/>
<path d="M14.5099 87.36C13.8799 86.48 12.6599 86.27 11.7799 86.9C10.8999 87.53 10.6899 88.75 11.3199 89.63L11.3299 89.65C11.7099 90.19 12.3199 90.47 12.9299 90.47C13.3199 90.47 13.7199 90.35 14.0699 90.11C14.9499 89.48 15.1599 88.26 14.5299 87.38L14.5099 87.36Z" fill="white"/>
<path d="M97.88 32.1099C96.32 30.8599 94.3 30.3899 92.35 30.8199C89.32 31.4899 87.21 34.1299 87.21 37.2199V60.8299C84.91 58.4899 81.22 58.0899 78.47 59.9399L71.61 64.5499C65.3 68.7899 60.97 75.2299 59.4 82.6699L56.19 97.9699C55.97 99.0299 56.65 100.07 57.71 100.29C57.85 100.32 57.98 100.33 58.11 100.33C59.02 100.33 59.83 99.6999 60.03 98.7699L63.24 83.4699C64.59 77.0299 68.34 71.4699 73.8 67.7999L80.66 63.1899C81.88 62.3699 83.54 62.5799 84.52 63.6799C85.62 64.9299 85.64 66.7499 84.59 68.0099C84.58 68.0199 84.57 68.0399 84.55 68.0499C84.55 68.0499 75.14 78.0599 75.11 78.0999C74.37 78.8899 74.41 80.1299 75.2 80.8699C75.99 81.6099 77.23 81.5699 77.97 80.7799C78 80.7499 86 72.2399 87.31 70.8599C87.42 70.7499 87.52 70.6299 87.61 70.5099C89.89 67.9799 91.14 64.7299 91.14 61.3199V37.2199C91.14 35.9699 91.99 34.9099 93.21 34.6399C94 34.4699 94.81 34.6499 95.44 35.1599C96.07 35.6599 96.43 36.4099 96.43 37.2199V67.6099C96.43 70.7699 95.46 73.8099 93.63 76.3899L78.81 97.2399C78.18 98.1199 78.39 99.3499 79.27 99.9699C79.61 100.21 80.01 100.33 80.4 100.33C81.01 100.33 81.62 100.04 82 99.4999L96.81 78.6399C99.11 75.3899 100.33 71.5699 100.33 67.5899V37.2199C100.34 35.2199 99.44 33.3599 97.88 32.1099Z" fill="white"/>
<path d="M69.13 61.86C70.21 61.86 71.09 60.98 71.09 59.9V52.86C71.09 52.62 71.08 52.38 71.07 52.14H80.1C81.18 52.14 82.06 51.26 82.06 50.18V46.52C82.06 42.24 79.15 38.56 74.99 37.56L71.5 36.73V36.1C73.77 34.51 75.25 31.88 75.25 28.91V24.38C75.25 19.54 71.32 15.61 66.48 15.61C64.31 15.61 62.32 16.4 60.79 17.71C59.08 13.53 54.98 10.58 50.19 10.58C45.4 10.58 41.29 13.54 39.58 17.73C38.04 16.41 36.05 15.61 33.87 15.61C29.03 15.61 25.1 19.54 25.1 24.38V24.68V28.91C25.1 31.88 26.59 34.51 28.85 36.1V36.73L25.36 37.56C21.2 38.55 18.29 42.24 18.29 46.52V50.18C18.29 51.26 19.17 52.14 20.25 52.14H29.26C29.25 52.38 29.24 52.62 29.24 52.86V59.91C29.24 60.99 30.12 61.87 31.2 61.87H42.98C44.06 61.87 44.94 60.99 44.94 59.91C44.94 58.83 44.06 57.95 42.98 57.95H40.96V53.9C40.96 52.82 40.08 51.94 39 51.94C37.92 51.94 37.04 52.82 37.04 53.9V57.95H33.16V52.86C33.16 49.08 35.73 45.83 39.4 44.94L44.78 43.65L48.38 51.84C48.69 52.55 49.4 53.01 50.17 53.01C50.95 53.01 51.65 52.55 51.96 51.84L55.56 43.66L60.92 44.94C64.6 45.82 67.17 49.07 67.17 52.86V57.94H63.3V53.89C63.3 52.81 62.42 51.93 61.34 51.93C60.26 51.93 59.38 52.81 59.38 53.89V57.94H57.16C56.08 57.94 55.2 58.82 55.2 59.9C55.2 60.98 56.08 61.86 57.16 61.86H69.13ZM43.96 38.09C43.46 37.87 42.93 37.69 42.39 37.56L38.89 36.72V36.11C39.52 35.67 40.09 35.15 40.59 34.56C41.47 35.91 42.62 37.06 43.96 37.94V38.09ZM29.03 28.91V27.98H31.77C34.17 27.98 36.54 27.5 38.74 26.59V28.91C38.74 31.59 36.56 33.76 33.89 33.76C31.2 33.77 29.03 31.59 29.03 28.91ZM42.67 28.34V26.27H45.35C48.46 26.27 51.41 25.11 53.68 23.05L57.72 25.42V28.62C57.57 32.64 54.25 35.86 50.2 35.86C46.04 35.87 42.67 32.49 42.67 28.34ZM56.39 38.09V37.96C57.75 37.08 58.91 35.93 59.79 34.57C60.28 35.15 60.85 35.67 61.47 36.11V36.72L57.97 37.56C57.43 37.69 56.9 37.87 56.39 38.09ZM61.63 28.91V28.62C61.63 28.52 61.64 28.43 61.64 28.33V26.6C63.84 27.51 66.2 27.98 68.6 27.98H71.34V28.91C71.34 31.59 69.16 33.76 66.49 33.76C63.82 33.76 61.63 31.59 61.63 28.91ZM66.48 19.53C69.05 19.53 71.16 21.53 71.32 24.06H68.6C66.31 24.06 64.06 23.51 62.03 22.46C62.78 20.74 64.49 19.53 66.48 19.53ZM42.67 22.03C42.67 17.88 46.05 14.5 50.2 14.5C53.94 14.5 57.06 17.25 57.63 20.83L54.33 18.89C53.5 18.41 52.45 18.59 51.84 19.32C50.23 21.24 47.86 22.35 45.35 22.35H42.67V22.03ZM33.88 19.53C35.87 19.53 37.59 20.74 38.33 22.46C36.3 23.51 34.05 24.06 31.76 24.06H29.04C29.2 21.54 31.31 19.53 33.88 19.53ZM38.49 41.13C34.63 42.05 31.6 44.74 30.16 48.22H22.22V46.52C22.22 44.06 23.89 41.95 26.28 41.37L31.27 40.18C32.15 39.97 32.77 39.18 32.77 38.27V37.61C33.13 37.66 33.5 37.68 33.87 37.68C34.24 37.68 34.6 37.65 34.96 37.61V38.17C34.96 38.2 34.96 38.23 34.96 38.26C34.96 38.9 35.28 39.53 35.86 39.91C36.08 40.05 36.32 40.14 36.56 40.19L39.48 40.89L38.49 41.13ZM50.18 46.18L47.88 40.95V39.55C48.63 39.7 49.4 39.79 50.2 39.79C50.98 39.79 51.74 39.71 52.48 39.56V40.96L50.18 46.18ZM61.84 41.13L60.86 40.9L63.8 40.2C64.04 40.15 64.28 40.06 64.51 39.92C65.09 39.55 65.4 38.92 65.4 38.27C65.4 38.25 65.4 38.24 65.4 38.22V37.62C65.76 37.66 66.12 37.69 66.49 37.69C66.86 37.69 67.23 37.66 67.59 37.62V38.28C67.59 39.19 68.21 39.98 69.09 40.19L74.08 41.38C76.47 41.95 78.14 44.07 78.14 46.53V48.23H70.17C68.73 44.74 65.69 42.05 61.84 41.13Z" fill="white"/>
<path d="M50.17 57.9399C49.65 57.9399 49.15 58.1499 48.78 58.5099C48.41 58.8799 48.21 59.3799 48.21 59.8999C48.21 60.4199 48.42 60.9199 48.78 61.2899C49.14 61.6499 49.65 61.8599 50.17 61.8599C50.69 61.8599 51.19 61.6499 51.56 61.2899C51.92 60.9199 52.13 60.4199 52.13 59.8999C52.13 59.3799 51.92 58.8799 51.56 58.5099C51.19 58.1499 50.68 57.9399 50.17 57.9399Z" fill="white"/>
<path d="M50.17 6.85C51.25 6.85 52.13 5.97 52.13 4.89V1.96C52.13 0.88 51.25 0 50.17 0C49.09 0 48.21 0.88 48.21 1.96V4.89C48.21 5.97 49.09 6.85 50.17 6.85Z" fill="white"/>
<path d="M40.1799 9.15999C40.5599 9.53999 41.0599 9.72999 41.5599 9.72999C42.0599 9.72999 42.5599 9.53999 42.9499 9.15999C43.7099 8.38999 43.7099 7.14999 42.9499 6.38999L40.8899 4.33999C40.1199 3.56999 38.8799 3.57999 38.1199 4.33999C37.3499 5.10999 37.3599 6.34999 38.1199 7.10999L40.1799 9.15999Z" fill="white"/>
<path d="M58.74 9.77996C59.24 9.77996 59.74 9.58996 60.13 9.20996L62.17 7.16996C62.93 6.39996 62.93 5.15996 62.17 4.39996C61.4 3.63996 60.16 3.63996 59.4 4.39996L57.36 6.43996C56.6 7.20996 56.6 8.44996 57.36 9.20996C57.74 9.58996 58.24 9.77996 58.74 9.77996Z" fill="white"/>
</g>
<defs>
<clipPath id="clip0_296_734">
<rect width="100.34" height="100.34" fill="white"/>
</clipPath>
</defs>
</svg>
