<svg width="89" height="76" viewBox="0 0 89 76" fill="none" xmlns="http://www.w3.org/2000/svg">
<path d="M88.93 55.2906C88.5821 56.1598 88.3821 57.1463 87.8428 57.8981C87.1113 58.9253 86.2321 59.8391 85.2337 60.6099C84.6119 61.0836 84.5358 61.3986 84.7619 62.0614C86.023 65.7553 87.2449 69.4492 88.4799 73.1432C88.5691 73.4148 88.656 73.6886 88.78 74.0732L83.8574 75.7115C82.9551 73.0367 82.0767 70.4314 81.2004 67.8283L81.0113 67.813L78.35 75.7094L73.4144 74.071C74.5189 70.7638 75.5886 67.5371 76.6758 64.3125C76.9671 63.4433 77.2976 62.5742 77.5303 61.6768C77.5955 61.4356 77.4607 60.9793 77.2693 60.8619C74.545 59.1714 73.1034 56.7595 73.3296 53.5566C73.5557 50.3538 75.2864 48.1461 78.2304 46.8619C78.3097 46.819 78.3866 46.7718 78.4609 46.7207V21.917C78.1043 22.0496 77.8086 22.1539 77.5281 22.269C66.7785 26.5496 56.0296 30.8324 45.2814 35.1174C45.0246 35.2402 44.7447 35.3078 44.4601 35.3156C44.1754 35.3235 43.8923 35.2715 43.629 35.163C29.3223 29.4179 15.0105 23.6858 0.693594 17.9667C0.506606 17.8906 0.328315 17.8037 0 17.656C0.313096 17.4995 0.5153 17.3778 0.730553 17.2931C15.046 11.5624 29.3636 5.84044 43.6833 0.127156C44.1549 -0.0423854 44.6708 -0.0423854 45.1423 0.127156C59.4389 5.82016 73.7282 11.5313 88.0103 17.2605C88.2277 17.3518 88.4582 17.4626 88.8539 17.6407L83.7117 19.7789V20.6372C83.7117 29.0507 83.7117 37.4641 83.6943 45.8776C83.6943 46.5295 83.8922 46.8228 84.4749 47.0966C85.4975 47.5583 86.4025 48.2451 87.122 49.1057C87.8415 49.9662 88.357 50.9783 88.6299 52.066C88.7234 52.3941 88.83 52.7179 88.93 53.046V55.2906Z" fill="#E42229"/>
<path d="M20.9621 31.7059C21.4948 31.9232 22.0036 32.1014 22.508 32.3013C29.5701 35.1304 36.635 37.9552 43.7029 40.7756C44.1444 40.9331 44.6268 40.9331 45.0683 40.7756C52.3014 37.9117 59.5272 35.0261 66.7458 32.1188C67.0894 31.9819 67.4372 31.8559 67.7786 31.7255C67.7786 34.3743 67.9852 36.9861 67.7286 39.5479C67.3851 42.9789 65.0847 45.2279 62.3255 47.0162C58.6814 49.3803 54.5916 50.5102 50.3344 51.0643C43.9007 51.9009 37.5518 51.538 31.3812 49.3933C28.1198 48.2569 25.128 46.6359 22.9168 43.872C21.8297 42.5096 21.0491 40.9712 20.986 39.222C20.9034 36.7471 20.9621 34.2634 20.9621 31.7059Z" fill="#E42229"/>
</svg>
