<svg width="18" height="24" viewBox="0 0 18 24" fill="none" xmlns="http://www.w3.org/2000/svg">
<g clip-path="url(#clip0_345_2006)">
<path d="M0 0H12.4705V5.63372H18V24H0V0ZM2.78818 4.2297V8.42238H6.91551V4.2297H2.78818ZM2.78818 9.90512V14.099H6.91551V9.9063L2.78818 9.90512ZM2.78818 15.5341V19.7268H6.91667V15.5341H2.78818ZM15.2321 11.3185H8.33333V12.6973H15.2321V11.3185ZM15.2321 16.947H8.33333V18.3287H15.2321V16.947ZM8.33159 5.63959V7.02599H11.0712V5.63959H8.33159Z" fill="#E42229"/>
<path d="M13.8726 0.501709L17.5255 4.20915H13.8726V0.501709Z" fill="#E42229"/>
<path d="M4.16881 5.63965H5.52415V7.02194H4.1665L4.16881 5.63965Z" fill="#E42229"/>
<path d="M5.52441 12.7026H4.17139V11.3162H5.52441V12.7026Z" fill="#E42229"/>
<path d="M4.16797 18.3239V16.9446H5.52446V18.3239H4.16797Z" fill="#E42229"/>
</g>
<defs>
<clipPath id="clip0_345_2006">
<rect width="18" height="24" fill="white"/>
</clipPath>
</defs>
</svg>
