<svg width="110" height="101" viewBox="0 0 110 101" fill="none" xmlns="http://www.w3.org/2000/svg">
<g clip-path="url(#clip0_296_704)">
<path d="M29.0901 39.86C30.9601 39.86 32.7501 38.98 34.0001 37.43C34.5601 36.74 34.4501 35.73 33.7601 35.17C33.0701 34.61 32.0601 34.72 31.5001 35.41C30.8501 36.21 29.9901 36.65 29.0801 36.65C28.1701 36.65 27.3101 36.21 26.6601 35.41C26.1001 34.72 25.0901 34.62 24.4001 35.17C23.7101 35.73 23.6101 36.74 24.1601 37.43C25.4301 38.98 27.2201 39.86 29.0901 39.86Z" fill="white"/>
<path d="M21.7599 30.7C22.6499 30.7 23.3599 29.98 23.3599 29.1V27.27C23.3599 26.38 22.6399 25.67 21.7599 25.67C20.8699 25.67 20.1599 26.39 20.1599 27.27V29.1C20.1599 29.98 20.8799 30.7 21.7599 30.7Z" fill="white"/>
<path d="M36.4201 30.7C37.3101 30.7 38.0201 29.98 38.0201 29.1V27.27C38.0201 26.38 37.3001 25.67 36.4201 25.67C35.5301 25.67 34.8201 26.39 34.8201 27.27V29.1C34.8201 29.98 35.5401 30.7 36.4201 30.7Z" fill="white"/>
<path d="M82.24 49.02C84.11 49.02 85.9 48.14 87.15 46.59C87.71 45.9 87.6 44.89 86.91 44.33C86.22 43.77 85.21 43.88 84.65 44.57C84 45.37 83.14 45.81 82.23 45.81C81.32 45.81 80.46 45.37 79.81 44.57C79.25 43.88 78.24 43.78 77.55 44.33C76.86 44.89 76.76 45.9 77.31 46.59C78.58 48.14 80.37 49.02 82.24 49.02Z" fill="white"/>
<path d="M74.9101 39.86C75.8001 39.86 76.5101 39.14 76.5101 38.26V36.43C76.5101 35.54 75.7901 34.83 74.9101 34.83C74.0301 34.83 73.3101 35.55 73.3101 36.43V38.26C73.3101 39.14 74.0201 39.86 74.9101 39.86Z" fill="white"/>
<path d="M89.57 39.86C90.46 39.86 91.17 39.14 91.17 38.26V36.43C91.17 35.54 90.45 34.83 89.57 34.83C88.69 34.83 87.97 35.55 87.97 36.43V38.26C87.97 39.14 88.68 39.86 89.57 39.86Z" fill="white"/>
<path d="M105.04 66.54L92.47 61.51C92.4 61.48 92.34 61.45 92.28 61.41C100.96 59.44 105.07 56.13 105.25 55.98C105.68 55.62 105.9 55.07 105.82 54.51C105.8 54.4 104 41.66 104 29.09C104 17.09 94.24 7.33 82.24 7.33C70.24 7.33 60.48 17.09 60.48 29.09C60.48 32.38 60.33 36.4 60.09 40.21L56.59 41.96L46.3 36.82C46.27 36.81 46.24 36.79 46.21 36.78C46.7 35.36 47.02 33.85 47.14 32.29C49.29 31.63 50.86 29.62 50.86 27.25C50.86 25.66 50.15 24.23 49.03 23.26V12.6C49.03 9.65 47.54 6.89 45.1 5.24C44.26 2.16 41.5 0 38.26 0H23.6C15.64 0 9.16 6.47 9.16 14.43V23.27C8.04 24.24 7.33 25.67 7.33 27.26C7.33 29.63 8.9 31.63 11.05 32.3C11.46 37.68 14.23 42.42 18.33 45.46V49.89L5.06 53.87C2.03 54.78 0 57.51 0 60.67V78.57C0 79.46 0.72 80.17 1.6 80.17H1.83V98.72C1.83 99.61 2.55 100.32 3.43 100.32C4.31 100.32 5.03 99.6 5.03 98.72V80.18H11V98.73C11 99.62 11.72 100.33 12.6 100.33C13.49 100.33 14.2 99.61 14.2 98.73V71.08C14.2 69.67 13.79 68.31 13.01 67.14L10.27 63.03C9.78 62.29 8.78 62.09 8.05 62.58C7.31 63.07 7.11 64.07 7.61 64.8L10.35 68.91C10.77 69.56 11 70.3 11 71.08V76.97H3.44H3.21V60.67C3.21 58.94 4.33 57.44 5.99 56.94L11.5 55.29C13.42 63.32 20.7 69.18 29.1 69.18C32.12 69.18 35.05 68.44 37.68 67.02C38.64 68.33 40.19 69.18 41.93 69.18H42.16V69.41C42.16 74.79 45.12 79.48 49.49 81.97V84.59C49.49 84.69 49.43 84.78 49.33 84.81L43.35 86.8C40.45 87.77 38.49 90.48 38.49 93.54V98.74C38.49 99.63 39.21 100.34 40.09 100.34C40.97 100.34 41.69 99.62 41.69 98.74V93.54C41.69 91.86 42.76 90.38 44.35 89.85L46.11 89.26C48.44 92.73 52.35 94.85 56.58 94.85C60.81 94.85 64.72 92.74 67.05 89.26L68.81 89.85C70.4 90.38 71.47 91.87 71.47 93.54V98.74C71.47 99.63 72.19 100.34 73.07 100.34C73.96 100.34 74.67 99.62 74.67 98.74V93.54C74.67 90.48 72.72 87.77 69.81 86.8L63.83 84.81C63.74 84.78 63.67 84.69 63.67 84.59V81.97C66.94 80.11 69.42 77.01 70.46 73.31C73.49 76.48 77.72 78.35 82.22 78.35C89.32 78.35 95.56 73.76 97.7 67.07L103.82 69.52C105.31 70.11 106.27 71.53 106.27 73.14V80.64H106.04H100.31V78.58C100.31 77.69 99.59 76.98 98.71 76.98C97.82 76.98 97.11 77.7 97.11 78.58V98.74C97.11 99.63 97.83 100.34 98.71 100.34C99.6 100.34 100.31 99.62 100.31 98.74V83.84H104.43V98.73C104.43 99.62 105.15 100.33 106.03 100.33C106.91 100.33 107.63 99.61 107.63 98.73V83.84H107.86C108.29 83.84 108.69 83.67 108.99 83.37C109.29 83.07 109.46 82.66 109.46 82.24V73.13C109.5 70.21 107.75 67.62 105.04 66.54ZM63.68 29.09C63.68 18.86 72 10.54 82.23 10.54C92.46 10.54 100.78 18.86 100.78 29.09C100.78 39.86 102.08 50.75 102.5 54C101.06 54.94 97.38 57.01 91.16 58.37V55.82C92.01 55.34 92.83 54.79 93.59 54.17C96.75 51.62 98.98 48.05 99.87 44.11C100.17 42.8 100.32 41.45 100.32 40.09C100.32 31.02 93.76 29.72 87.42 28.46C83.39 27.66 79.21 26.83 75.89 24.17C75.41 23.78 74.75 23.71 74.19 23.98C73.63 24.25 73.28 24.81 73.28 25.43C73.28 25.47 73.21 29.69 67.16 31.2C66.3 31.41 65.78 32.29 65.99 33.15C66.2 34.01 67.08 34.53 67.94 34.32C73 33.05 75.06 30.22 75.91 28.08C79.39 30.14 83.28 30.91 86.79 31.61C93.57 32.96 97.1 33.94 97.1 40.09C97.1 41.21 96.98 42.32 96.73 43.4C96 46.64 94.16 49.58 91.56 51.68C88.89 53.84 85.65 54.98 82.21 54.98C79.07 54.98 76.08 54.02 73.54 52.2C72.61 49.66 71.12 47.34 69.15 45.43V38.26C69.15 37.7 68.86 37.19 68.39 36.9C67.92 36.61 67.33 36.58 66.83 36.83L63.37 38.56C63.59 35.21 63.68 32.04 63.68 29.09ZM65.97 40.85V46.66L60.16 43.76L65.97 40.85ZM47.19 40.85L53 43.75L47.19 46.65V40.85ZM43.98 45.43C42.18 47.17 40.78 49.26 39.85 51.53C39.86 51.38 39.86 51.23 39.86 51.08V45.45C41.46 44.26 42.85 42.82 43.98 41.19V45.43ZM14.2 30.93C14.2 30.04 13.48 29.33 12.6 29.33C11.46 29.33 10.54 28.41 10.54 27.27C10.54 26.13 11.46 25.21 12.6 25.21H16.27C16.96 25.21 17.57 24.77 17.79 24.11L19.26 19.69C22.95 19.61 34.37 19.09 40.81 15.87C41.6 15.47 41.92 14.51 41.53 13.72C41.13 12.93 40.17 12.61 39.38 13C32.48 16.45 18.25 16.5 18.11 16.5C17.42 16.5 16.81 16.94 16.59 17.6L15.12 22H12.6C12.52 22 12.45 22 12.37 22.01V14.44C12.37 8.25 17.41 3.22 23.59 3.22H38.25C40.17 3.22 41.77 4.6 42.08 6.5C42.16 6.98 42.45 7.41 42.88 7.65C44.69 8.67 45.82 10.57 45.82 12.61V22C45.74 22 45.67 21.99 45.59 21.99H43.76C42.87 21.99 42.16 22.71 42.16 23.59C42.16 24.48 42.88 25.19 43.76 25.19H45.59C46.73 25.19 47.65 26.11 47.65 27.25C47.65 28.39 46.73 29.31 45.59 29.31C44.7 29.31 43.99 30.03 43.99 30.91C43.99 39.12 37.31 45.8 29.1 45.8C20.89 45.8 14.2 39.14 14.2 30.93ZM29.09 49.02C31.79 49.02 34.35 48.43 36.65 47.36V51.08C36.65 55.25 33.26 58.64 29.09 58.64C24.93 58.64 21.54 55.26 21.53 51.1C21.53 51.09 21.53 51.08 21.53 51.08V47.36C23.84 48.43 26.4 49.02 29.09 49.02ZM14.57 54.37L18.53 53.18C19.51 58.12 23.87 61.85 29.09 61.85C33.24 61.85 36.84 59.49 38.64 56.05C38.54 56.83 38.48 57.62 38.48 58.41V59.93C37.33 60.92 36.65 62.37 36.65 63.9C34.37 65.25 31.77 65.96 29.09 65.96C22.12 65.97 16.08 61.06 14.57 54.37ZM62.83 87.84L63.85 88.18C62.08 90.34 59.43 91.63 56.58 91.63C53.74 91.63 51.08 90.34 49.31 88.18L50.33 87.84C51.74 87.37 52.68 86.06 52.68 84.58V83.3C53.92 83.65 55.22 83.84 56.57 83.84C57.92 83.84 59.22 83.65 60.46 83.3V84.58C60.48 86.07 61.42 87.38 62.83 87.84ZM56.58 80.64C50.39 80.64 45.36 75.6 45.36 69.42V67.59C45.36 66.7 44.64 65.99 43.76 65.99H41.93C40.79 65.99 39.87 65.07 39.87 63.93C39.87 63.2 40.26 62.54 40.91 62.16C41.05 62.08 41.18 61.97 41.29 61.85C45.26 61.74 58.11 60.99 66.56 56.16C67.33 55.72 67.6 54.74 67.16 53.97C66.72 53.2 65.74 52.93 64.97 53.37C57.57 57.6 45.94 58.45 41.71 58.61V58.42C41.71 55.44 42.61 52.55 44.25 50.11C44.38 50.31 44.55 50.49 44.76 50.62C45.02 50.78 45.31 50.86 45.6 50.86C45.85 50.86 46.09 50.8 46.32 50.69L56.6 45.55L66.88 50.69C67.11 50.8 67.35 50.86 67.6 50.86C67.89 50.86 68.19 50.78 68.44 50.62C68.65 50.49 68.82 50.31 68.95 50.11C70.59 52.55 71.49 55.43 71.49 58.42V60.76C71.49 61.33 71.79 61.86 72.29 62.15C72.94 62.53 73.33 63.19 73.33 63.92C73.33 65.06 72.41 65.98 71.27 65.98H69.44C68.55 65.98 67.84 66.7 67.84 67.58V69.17C67.84 69.18 67.84 69.2 67.84 69.21V69.41C67.81 75.6 62.77 80.64 56.58 80.64ZM82.24 75.14C77.8 75.14 73.68 72.88 71.28 69.18C74.17 69.16 76.51 66.8 76.51 63.91C76.51 62.38 75.83 60.93 74.68 59.94V58.42C74.68 57.77 74.65 57.13 74.58 56.5C76.96 57.62 79.56 58.19 82.24 58.19C84.2 58.19 86.13 57.87 87.97 57.25V59.6C87.97 61.77 89.27 63.69 91.28 64.49L94.74 65.87C93.08 71.36 88.02 75.14 82.24 75.14Z" fill="white"/>
<path d="M61.2601 71.83C60.5701 71.27 59.5601 71.38 59.0001 72.07C58.3501 72.87 57.4901 73.3099 56.5801 73.3099C55.6701 73.3099 54.8101 72.87 54.1601 72.07C53.6001 71.38 52.5901 71.28 51.9001 71.83C51.2101 72.39 51.1101 73.3999 51.6601 74.0899C52.9101 75.6299 54.7001 76.5199 56.5701 76.5199C58.4401 76.5199 60.2301 75.6399 61.4801 74.0899C62.0501 73.3999 61.9501 72.39 61.2601 71.83Z" fill="white"/>
<path d="M51.11 67.35C51.9937 67.35 52.71 66.6337 52.71 65.75C52.71 64.8664 51.9937 64.15 51.11 64.15C50.2264 64.15 49.51 64.8664 49.51 65.75C49.51 66.6337 50.2264 67.35 51.11 67.35Z" fill="white"/>
<path d="M62.0199 67.35C62.9036 67.35 63.6199 66.6337 63.6199 65.75C63.6199 64.8664 62.9036 64.15 62.0199 64.15C61.1363 64.15 60.4199 64.8664 60.4199 65.75C60.4199 66.6337 61.1363 67.35 62.0199 67.35Z" fill="white"/>
</g>
<defs>
<clipPath id="clip0_296_704">
<rect width="109.5" height="100.34" fill="white"/>
</clipPath>
</defs>
</svg>
