<svg width="81" height="81" viewBox="0 0 81 81" fill="none" xmlns="http://www.w3.org/2000/svg">
<path d="M28.2838 80.1112H23.5868C23.5868 63.5661 23.5829 47.021 23.575 30.4759C23.5643 30.2216 23.6096 29.9681 23.7077 29.7332C23.8057 29.4984 23.9542 29.2879 24.1426 29.1166C28.4977 24.7825 32.8379 20.4327 37.163 16.0672C37.4484 15.7548 37.6141 15.3516 37.6308 14.9289C37.6621 9.95327 37.6503 4.97566 37.6503 0H61.0981V14.2776H42.4256C42.1536 15.2145 42.5078 15.8051 43.1204 16.4095C47.377 20.6243 51.5945 24.8822 55.8414 29.1049C56.037 29.2864 56.1902 29.5089 56.2899 29.7563C56.3897 30.0038 56.4337 30.2702 56.4187 30.5365C56.4057 47.0621 56.4057 63.5876 56.4187 80.1132H51.7217C51.7217 74.7451 51.7217 69.3769 51.7217 64.0088C51.7212 63.2802 51.6735 62.5524 51.5789 61.83C50.6845 55.1801 44.0637 50.582 37.5329 52.0723C32.0531 53.324 28.3229 57.9398 28.2955 63.6118C28.2622 69.1135 28.2838 74.6134 28.2838 80.1112ZM47.0287 40.0771C47.0502 36.2593 43.8856 33.0615 40.0438 33.0205C36.2373 32.9794 33.0375 36.1381 32.9768 39.995C32.9162 43.8519 36.1453 47.0869 40.0008 47.0908C43.821 47.0947 47.0071 43.9165 47.0287 40.0771Z" fill="#E42229"/>
<path d="M0 47.0966H18.9074V80.1112H0V47.0966ZM9.4077 56.4279H13.999V51.8297H9.4077V56.4279ZM9.4077 65.8159H13.999V61.2177H9.40966L9.4077 65.8159Z" fill="#E42229"/>
<path d="M61.0979 80.1113V47.1515H80.0053V80.1113H61.0979ZM70.58 56.4691V51.8475H66.0043V56.4691H70.58ZM70.5917 61.2316H66.0004V65.8357H70.5917V61.2316Z" fill="#E42229"/>
<path d="M32.9709 80.1113V65.9275H37.6582V80.1113H32.9709Z" fill="#E42229"/>
<path d="M42.3472 80.1113V65.9275H47.0441V80.1113H42.3472Z" fill="#E42229"/>
<path d="M18.8721 33.0147V42.3577H1.4541C1.67721 42.1152 1.82203 41.9431 1.98056 41.7847C4.74004 39.0211 7.48974 36.2477 10.2747 33.5095C10.5855 33.2243 10.9864 33.0568 11.4078 33.0362C13.8796 32.9931 16.3475 33.0147 18.8721 33.0147Z" fill="#E42229"/>
<path d="M78.6119 42.3753H61.147V33.0146C62.8203 33.0146 64.4955 33.1691 66.1297 32.9775C68.4077 32.7115 70.0106 33.4919 71.5195 35.2013C73.7016 37.6715 76.148 39.909 78.6119 42.3753Z" fill="#E42229"/>
<path d="M33.4836 61.1319C33.957 59.7784 34.8387 58.605 36.0073 57.7734C37.1759 56.9418 38.5739 56.4929 40.0085 56.4886C42.9226 56.4886 45.6135 58.3976 46.5157 61.1319H33.4836Z" fill="#E42229"/>
<path d="M42.3414 40.0361C42.341 40.6546 42.0979 41.2484 41.6643 41.6898C41.2307 42.1311 40.6411 42.385 40.0223 42.3968C39.4049 42.3933 38.8134 42.1484 38.3745 41.7144C37.9356 41.2805 37.684 40.6921 37.6738 40.0752C37.6742 39.4566 37.9173 38.8629 38.351 38.4215C38.7846 37.9801 39.3741 37.7263 39.9929 37.7145C40.6103 37.718 41.2018 37.9629 41.6407 38.3968C42.0797 38.8307 42.3312 39.4191 42.3414 40.0361Z" fill="#E42229"/>
</svg>
