<svg width="48" height="27" viewBox="0 0 48 27" fill="none" xmlns="http://www.w3.org/2000/svg">
<path d="M36.7812 0.703125V4.125C39.9062 4.3125 42.4531 5.42188 44.4219 7.45312C46.3906 9.48437 47.375 12 47.375 15C47.375 18.1562 46.3125 20.8125 44.1875 22.9688C42.0938 25.0938 39.4844 26.1562 36.3594 26.1562C33.3281 26.1562 30.7812 25.0781 28.7188 22.9219C26.6562 20.7656 25.625 18.0938 25.625 14.9062C25.625 11.5937 26.625 8.65625 28.625 6.09375C30.6562 3.53125 33.375 1.73438 36.7812 0.703125ZM11.1875 0.75V4.125C14.3125 4.3125 16.8594 5.42188 18.8281 7.45312C20.7969 9.48437 21.7812 12 21.7812 15C21.7812 18.1562 20.7188 20.8125 18.5938 22.9688C16.5 25.0938 13.8906 26.1562 10.7656 26.1562C7.73438 26.1562 5.1875 25.0781 3.125 22.9219C1.0625 20.7656 0.03125 18.0938 0.03125 14.9062C0.03125 11.5937 1.03125 8.65625 3.03125 6.09375C5.0625 3.53125 7.78125 1.75 11.1875 0.75Z" fill="#E42229"/>
</svg>
