<svg width="87" height="101" viewBox="0 0 87 101" fill="none" xmlns="http://www.w3.org/2000/svg">
<path d="M53.99 11.77C53.99 10.79 53.6 9.86 52.91 9.17C52.24 8.5 51.33 8.09 50.32 8.09H47C46.13 8.09 45.49 7.77 45.02 7.24C44.63 6.81 44.42 6.29 44.28 5.73C44.08 4.92 43.61 4.21 42.97 3.71C42.35 3.23 41.56 2.93 40.71 2.93H28.2C27.34 2.93 26.57 3.22 25.94 3.7C25.14 4.33 24.73 5.28 24.58 5.89C24.21 7.4 24.05 8.08 21.91 8.08H18.59C17.58 8.08 16.66 8.49 15.99 9.16C15.32 9.83 14.91 10.75 14.91 11.76C14.91 12.77 15.32 13.69 15.99 14.35C16.66 15.02 17.58 15.43 18.59 15.43H50.31C51.32 15.43 52.24 15.01 52.9 14.35C53.57 13.69 53.99 12.77 53.99 11.77ZM18.45 91.64C17.64 91.64 16.98 90.98 16.98 90.17C16.98 89.36 17.64 88.7 18.45 88.7H42.89C43.7 88.7 44.36 89.36 44.36 90.17C44.36 90.98 43.7 91.64 42.89 91.64H18.45ZM13.44 85.93C12.63 85.93 11.97 85.27 11.97 84.46C11.97 83.65 12.63 82.99 13.44 82.99H42.88C43.69 82.99 44.35 83.65 44.35 84.46C44.35 85.27 43.69 85.93 42.88 85.93H13.44ZM13.44 80.22C12.63 80.22 11.97 79.56 11.97 78.75C11.97 77.93 12.63 77.28 13.44 77.28H42.88C43.69 77.28 44.35 77.94 44.35 78.75C44.35 79.56 43.69 80.22 42.88 80.22H13.44ZM13.44 74.52C12.63 74.52 11.97 73.86 11.97 73.05C11.97 72.24 12.63 71.58 13.44 71.58H42.88C43.69 71.58 44.35 72.24 44.35 73.05C44.35 73.86 43.69 74.52 42.88 74.52H13.44ZM26.02 68.81C25.21 68.81 24.55 68.15 24.55 67.34C24.55 66.53 25.21 65.87 26.02 65.87H42.89C43.7 65.87 44.36 66.53 44.36 67.34C44.36 68.15 43.7 68.81 42.89 68.81H26.02ZM22.22 31.43C23.63 31.43 24.91 31.99 25.85 32.89L29.37 30.86C29.28 30.46 29.22 30.04 29.22 29.62C29.22 28.17 29.81 26.86 30.76 25.91C31.71 24.97 33.02 24.38 34.47 24.38C35.91 24.38 37.22 24.97 38.17 25.91C39.12 26.86 39.7 28.17 39.7 29.62C39.7 30.05 39.65 30.46 39.55 30.86L43.07 32.89C44.01 31.99 45.29 31.43 46.69 31.43C48.14 31.43 49.45 32.01 50.4 32.96C51.35 33.91 51.94 35.22 51.94 36.67C51.94 38.12 51.35 39.43 50.4 40.38C49.79 41 49.02 41.46 48.17 41.71V45.77C49.03 46.02 49.79 46.49 50.4 47.1C51.35 48.05 51.94 49.36 51.94 50.8C51.94 52.25 51.35 53.56 50.4 54.51C49.46 55.46 48.15 56.05 46.69 56.05C45.28 56.05 44.01 55.49 43.07 54.59L39.55 56.62C39.65 57.02 39.7 57.44 39.7 57.87C39.7 59.31 39.12 60.62 38.17 61.58C37.22 62.53 35.91 63.11 34.47 63.11C33.02 63.11 31.71 62.53 30.76 61.58C29.81 60.63 29.22 59.32 29.22 57.87C29.22 57.44 29.28 57.02 29.37 56.62L25.85 54.59C24.91 55.49 23.63 56.05 22.22 56.05C20.78 56.05 19.46 55.46 18.51 54.51C17.57 53.57 16.98 52.25 16.98 50.8C16.98 49.36 17.57 48.04 18.51 47.1C19.13 46.49 19.89 46.02 20.75 45.77V41.7C19.89 41.45 19.13 40.99 18.51 40.37C17.57 39.42 16.98 38.11 16.98 36.66C16.98 35.22 17.57 33.9 18.51 32.95C19.46 32.01 20.77 31.43 22.22 31.43ZM27.31 35.42C27.41 35.82 27.46 36.24 27.46 36.67C27.46 38.12 26.87 39.43 25.93 40.38C25.31 41 24.55 41.46 23.69 41.71V45.77C24.55 46.02 25.31 46.49 25.93 47.1C26.87 48.05 27.46 49.36 27.46 50.8C27.46 51.23 27.41 51.65 27.31 52.05L30.83 54.08C31.77 53.18 33.05 52.62 34.45 52.62C35.86 52.62 37.13 53.18 38.07 54.08L41.59 52.05C41.49 51.65 41.44 51.23 41.44 50.8C41.44 49.36 42.02 48.04 42.97 47.1C43.59 46.49 44.35 46.02 45.21 45.77V41.7C44.35 41.45 43.59 40.99 42.97 40.37C42.02 39.42 41.44 38.11 41.44 36.66C41.44 36.23 41.49 35.81 41.59 35.41L38.07 33.38C37.13 34.28 35.85 34.83 34.44 34.83C33.03 34.83 31.76 34.27 30.81 33.38L27.31 35.42ZM23.84 35.04C23.42 34.62 22.85 34.37 22.21 34.37C21.58 34.37 21 34.63 20.59 35.04C20.17 35.46 19.91 36.03 19.91 36.67C19.91 37.31 20.17 37.88 20.59 38.3C21 38.72 21.58 38.97 22.21 38.97C22.85 38.97 23.42 38.71 23.84 38.3C24.26 37.88 24.52 37.31 24.52 36.67C24.52 36.04 24.26 35.46 23.84 35.04ZM36.08 27.98C35.66 27.56 35.09 27.3 34.45 27.3C33.81 27.3 33.24 27.56 32.82 27.98C32.4 28.4 32.15 28.97 32.15 29.61C32.15 30.24 32.41 30.82 32.82 31.23C33.24 31.65 33.81 31.91 34.45 31.91C35.08 31.91 35.66 31.65 36.08 31.23C36.5 30.82 36.75 30.24 36.75 29.61C36.75 28.97 36.5 28.4 36.08 27.98ZM48.31 35.04C47.89 34.62 47.32 34.37 46.68 34.37C46.05 34.37 45.47 34.63 45.05 35.04C44.63 35.46 44.38 36.03 44.38 36.67C44.38 37.31 44.64 37.88 45.05 38.3C45.47 38.72 46.04 38.97 46.68 38.97C47.32 38.97 47.89 38.71 48.31 38.3C48.73 37.88 48.98 37.31 48.98 36.67C48.99 36.04 48.73 35.46 48.31 35.04ZM46.69 53.1C47.33 53.1 47.9 52.84 48.32 52.43C48.74 52.01 48.99 51.44 48.99 50.8C48.99 50.17 48.73 49.59 48.32 49.17C47.9 48.75 47.33 48.5 46.69 48.5C46.06 48.5 45.48 48.76 45.06 49.17C44.64 49.59 44.39 50.16 44.39 50.8C44.39 51.44 44.65 52.01 45.06 52.43C45.47 52.84 46.05 53.1 46.69 53.1ZM34.45 60.16C35.08 60.16 35.66 59.9 36.08 59.49C36.5 59.07 36.75 58.5 36.75 57.86C36.75 57.22 36.49 56.65 36.08 56.23C35.66 55.81 35.09 55.56 34.45 55.56C33.81 55.56 33.24 55.82 32.82 56.23C32.4 56.65 32.15 57.22 32.15 57.86C32.15 58.49 32.41 59.07 32.82 59.49C33.24 59.91 33.81 60.16 34.45 60.16ZM22.22 53.1C22.86 53.1 23.43 52.84 23.85 52.43C24.27 52.01 24.53 51.44 24.53 50.8C24.53 50.17 24.27 49.59 23.85 49.17C23.43 48.75 22.86 48.5 22.22 48.5C21.59 48.5 21.01 48.76 20.6 49.17C20.18 49.59 19.92 50.16 19.92 50.8C19.92 51.44 20.18 52.01 20.6 52.43C21 52.84 21.58 53.1 22.22 53.1ZM55.87 79.42C56.68 79.42 57.34 80.08 57.34 80.89C57.34 81.7 56.68 82.36 55.87 82.36H50.99C51.35 86.33 53.1 89.9 55.76 92.56C58.75 95.54 62.88 97.39 67.44 97.39C72 97.39 76.13 95.54 79.12 92.56C81.78 89.89 83.54 86.33 83.89 82.36H62.53C61.72 82.36 61.06 81.7 61.06 80.89C61.06 80.08 61.72 79.42 62.53 79.42H83.88C83.65 76.84 82.84 74.44 81.57 72.34C80.01 69.76 77.76 67.64 75.08 66.24C73.9 65.62 73.21 65.1 72.77 64.31C72.33 63.52 72.24 62.69 72.24 61.43V48.06H62.63V61.49C62.63 62.75 62.47 63.62 61.97 64.41C61.49 65.19 60.78 65.72 59.67 66.31C57.02 67.72 54.8 69.84 53.26 72.4C52.01 74.48 51.21 76.87 50.98 79.42H55.87ZM86.88 80.88C86.88 86.06 84.85 90.97 81.19 94.64C77.67 98.16 72.81 100.33 67.44 100.33H7.77C5.63 100.33 3.69 99.46 2.28 98.05C0.87 96.65 0 94.7 0 92.57V87.81C0 87 0.66 86.34 1.47 86.34C2.28 86.34 2.94 87 2.94 87.81V92.57C2.94 93.9 3.48 95.11 4.36 95.98C5.24 96.86 6.44 97.4 7.77 97.4H57.14C55.88 96.62 54.72 95.69 53.67 94.64C50.15 91.12 47.98 86.26 47.98 80.89C47.98 77.24 48.99 73.82 50.75 70.9C52.56 67.88 55.17 65.39 58.29 63.73C58.93 63.39 59.31 63.13 59.48 62.86C59.64 62.61 59.69 62.19 59.69 61.49V47.81C59.01 47.58 58.4 47.2 57.9 46.7C57.07 45.86 56.55 44.71 56.55 43.44C56.55 42.17 57.07 41.01 57.9 40.18C58.74 39.34 59.89 38.82 61.17 38.82H65.97V27.58C65.97 26.77 66.63 26.11 67.44 26.11C68.25 26.11 68.91 26.77 68.91 27.58V38.83H73.72C74.99 38.83 76.14 39.35 76.98 40.19C77.81 41.02 78.33 42.18 78.33 43.45C78.33 44.72 77.81 45.87 76.98 46.71C76.48 47.21 75.87 47.59 75.19 47.82V61.44C75.19 62.21 75.22 62.66 75.34 62.88C75.46 63.1 75.8 63.32 76.45 63.65C79.6 65.3 82.25 67.79 84.09 70.83C85.85 73.77 86.88 77.21 86.88 80.88ZM73.71 45.12C74.17 45.12 74.59 44.93 74.89 44.63C75.2 44.32 75.38 43.91 75.38 43.45C75.38 42.99 75.19 42.57 74.89 42.27C74.59 41.96 74.17 41.77 73.71 41.77H61.16C60.7 41.77 60.28 41.96 59.98 42.27C59.67 42.58 59.48 42.99 59.48 43.45C59.48 43.91 59.67 44.33 59.98 44.63C60.28 44.93 60.7 45.12 61.16 45.12H73.71ZM56.76 10.29H61.13C63.27 10.29 65.21 11.16 66.62 12.57C68.03 13.98 68.9 15.92 68.9 18.06V20.92C68.9 21.73 68.24 22.39 67.43 22.39C66.62 22.39 65.96 21.73 65.96 20.92V18.06C65.96 16.73 65.42 15.53 64.54 14.65C63.66 13.77 62.46 13.23 61.13 13.23H56.76C56.48 14.46 55.85 15.57 54.98 16.44C53.79 17.64 52.13 18.38 50.31 18.38H18.59C16.77 18.38 15.11 17.64 13.91 16.44C13.04 15.57 12.42 14.47 12.13 13.23H7.77C6.44 13.23 5.24 13.77 4.36 14.65C3.48 15.53 2.94 16.73 2.94 18.06V81.15C2.94 81.96 2.28 82.62 1.47 82.62C0.66 82.62 0 81.97 0 81.16V18.07C0 15.93 0.87 13.99 2.28 12.58C3.69 11.17 5.63 10.3 7.77 10.3H12.14C12.42 9.07 13.05 7.96 13.92 7.09C15.12 5.9 16.77 5.15 18.6 5.15H21.76C22.1 3.69 22.91 2.37 24.15 1.41C25.27 0.53 26.68 0 28.2 0H40.7C42.22 0 43.64 0.53 44.76 1.41C46.01 2.39 46.75 3.62 47.15 5.15H50.31C52.13 5.15 53.79 5.9 54.98 7.09C55.85 7.96 56.48 9.06 56.76 10.29Z" fill="white"/>
</svg>
