<svg width="152" height="186" viewBox="0 0 152 186" fill="none" xmlns="http://www.w3.org/2000/svg">
<g clip-path="url(#clip0_296_902)">
<path d="M77.0873 0C77.3725 0.203825 77.6673 0.397944 77.9476 0.606622C79.3444 1.63545 79.9678 2.98945 79.4217 4.68799C79.2248 5.45669 78.7661 6.1319 78.1251 6.59642C77.4842 7.06094 76.7015 7.28544 75.9129 7.23095C75.1542 7.24342 74.4134 6.99944 73.8095 6.53825C73.2056 6.07705 72.7736 5.42542 72.5829 4.68799C72.0464 2.98945 72.6554 1.63545 74.057 0.606622C74.3373 0.397944 74.6321 0.198972 74.9173 0H77.0873Z" fill="white"/>
<path d="M31.0621 72.2075C30.0327 45.7831 51.3224 24.5998 76.58 24.9007C100.262 25.187 121.528 44.8318 121.344 71.7464C122.02 68.9123 122.934 66.1073 123.345 63.2344C126.776 39.2073 114.162 18.1454 91.519 9.85162C89.0444 8.94412 87.9909 7.09999 88.7255 4.99865C89.4166 3.00893 91.4707 2.11598 93.805 2.99436C114.587 10.8174 127.115 25.6674 130.604 47.7291C132.842 61.8901 129.521 74.9882 121.557 86.9023C121.142 87.5455 120.913 88.2912 120.894 89.057C120.846 96.4433 120.894 103.83 120.832 111.211C120.832 112.293 121.247 112.798 122.107 113.312C138.878 123.397 148.945 138.159 151.367 157.615C152.387 165.865 151.85 174.29 151.923 182.637C151.923 184.52 150.424 185.84 148.54 186C147.94 186.053 147.331 186 146.732 186H5.28738C1.04395 186 -0.00482346 184.996 0.0386742 180.793C0.106337 173.717 -0.260991 166.588 0.415638 159.571C2.34887 139.353 12.3823 124.047 29.5929 113.468C30.806 112.72 31.183 112.012 31.1733 110.633C31.1105 103.616 31.1733 96.5937 31.1008 89.5714C31.0738 88.4537 30.7393 87.3653 30.1342 86.4267C9.91261 56.3091 23.8512 14.5736 58.0161 2.98951C59.6835 2.42656 61.3993 2.20814 62.4529 3.74168C63.1151 4.71228 63.5742 6.36716 63.1924 7.34261C62.7622 8.42968 61.4041 9.44394 60.2249 9.87585C53.9805 12.1907 48.234 15.3549 43.4783 20.0234C28.9356 34.3058 24.7695 51.3397 30.4967 70.8729C30.5788 71.1593 30.7528 71.4262 31.0621 72.2075ZM113.553 110.682C113.582 110.1 113.625 109.629 113.625 109.153C113.625 96.0211 113.659 82.8889 113.592 69.7519C113.56 67.3954 113.327 65.0461 112.896 62.7296C109.513 43.541 90.3977 29.6614 71.3071 32.4471C51.854 35.2909 38.3939 50.8884 38.3794 70.6594C38.3794 83.3709 38.3794 96.0809 38.3794 108.789V110.687C46.3395 111.716 52.7626 115.156 58.3496 120.524C63.098 125.159 69.468 127.739 76.0906 127.71C82.7132 127.68 89.0598 125.042 93.7664 120.364C99.2761 115.016 105.719 111.686 113.553 110.682ZM144.736 178.716C144.736 173.974 144.876 169.388 144.736 164.812C144.021 144.43 134.794 129.118 117.279 118.806C116.649 118.397 115.939 118.126 115.197 118.013C114.454 117.899 113.696 117.944 112.973 118.146C110.498 118.859 107.773 119.301 105.694 120.679C100.808 123.921 96.2457 127.653 91.5866 131.161C91.5866 131.297 91.5866 131.365 91.5866 131.419C100.132 152.097 114.302 167.67 133.852 178.366C134.158 178.555 134.504 178.67 134.862 178.701C138.086 178.725 141.324 178.716 144.736 178.716ZM60.4279 131.55C56.9481 128.638 53.7002 125.881 50.3896 123.203C47.1132 120.605 43.2452 118.865 39.1334 118.141C37.6033 117.801 36.0019 118.058 34.6531 118.859C22.0098 126.064 13.5713 136.641 9.33749 150.588C6.55848 159.697 7.3656 169.029 7.31727 178.332C7.31727 178.425 7.4381 178.522 7.38011 178.429C14.0449 179.667 20.0331 178.531 25.2625 174.193C25.9536 173.615 26.7559 173.179 27.4953 172.659C42.2025 162.444 53.6424 148.163 60.4279 131.55ZM67.3295 133.792C63.7094 142.753 58.8265 151.145 52.8303 158.712C46.7569 166.299 39.6503 172.991 31.7194 178.59H57.9243C57.9243 176.736 57.8905 174.989 57.9243 173.251C58.1321 163.89 65.4977 156.111 74.7047 155.509C79.1988 155.173 83.6542 156.547 87.1851 159.359C90.716 162.171 93.0638 166.214 93.7615 170.684C94.1627 173.276 94.0902 175.945 94.2448 178.546H120.271C103.935 166.899 92.1908 152.058 84.656 133.772C78.9727 135.231 73.016 135.238 67.3295 133.792ZM65.2464 178.599H72.2544V163.555C66.5175 165.826 64.4828 170.179 65.2464 178.59V178.599ZM86.7053 178.638C87.6187 170.524 85.091 165.098 79.7118 163.594V178.638H86.7053Z" fill="white"/>
<path d="M46.2187 76.745C46.122 71.2563 46.4893 65.8695 48.6787 60.7302C54.0483 48.1124 66.9042 40.9397 80.635 42.8955C93.3411 44.7008 103.834 55.3288 105.317 68.4901C106.086 75.2551 106.381 82.1464 104.617 88.8726C100.944 102.883 88.1455 111.783 73.2645 110.803C59.9349 109.92 48.4177 98.8357 46.6827 85.0824C46.3057 82.3162 46.3492 79.5209 46.2187 76.745ZM53.5891 73.2605C53.5891 75.8569 53.5504 78.7541 53.5891 81.6513C53.8453 97.8166 71.0945 108.488 85.6033 101.466C95.69 96.5839 100.924 84.6796 98.2708 73.2412C94.0467 72.6491 89.8758 72.4259 85.9078 71.4213C81.7997 70.3779 78.6969 67.4661 76.029 63.9428C73.4047 67.5437 70.2294 70.3973 66.1309 71.4358C62.1678 72.4404 57.9824 72.6539 53.5794 73.28L53.5891 73.2605ZM54.9085 65.2823C65.5413 66.8983 74.5259 59.0365 72.1287 50.238C64.0672 51.4998 56.2425 58.3425 54.9182 65.2823H54.9085ZM79.7747 50.238C78.8564 60.3031 86.4443 66.8352 97.1109 65.2823C95.7963 58.3522 87.7395 51.3154 79.765 50.2332L79.7747 50.238Z" fill="white"/>
<path d="M75.9373 94.9193C74.7305 94.9362 73.5324 94.7124 72.4124 94.2609C71.2924 93.8094 70.2727 93.1392 69.4126 92.289C68.7006 91.6661 68.2633 90.7855 68.1963 89.8396C68.1292 88.8938 68.438 87.9598 69.055 87.2419C69.6355 86.5312 70.4706 86.0776 71.3808 85.9786C72.2909 85.8797 73.2033 86.1434 73.9219 86.713C75.4008 87.8631 76.6284 87.8826 78.1121 86.713C78.8294 86.143 79.7404 85.8776 80.6501 85.9738C81.5597 86.0699 82.3957 86.5199 82.979 87.2274C83.2887 87.5802 83.5257 87.9911 83.6764 88.4363C83.8271 88.8816 83.8885 89.3525 83.857 89.8217C83.8256 90.2909 83.7019 90.7493 83.4931 91.1702C83.2844 91.5912 82.9947 91.9665 82.6407 92.2745C81.7602 93.1485 80.7119 93.8336 79.5595 94.2883C78.4072 94.743 77.1748 94.9577 75.9373 94.9193Z" fill="white"/>
</g>
<rect x="0.5" y="0.5" width="151" height="185" stroke="#E42229"/>
<defs>
<clipPath id="clip0_296_902">
<rect width="152" height="186" fill="white"/>
</clipPath>
</defs>
</svg>
