<svg width="79" height="79" viewBox="0 0 79 79" fill="none" xmlns="http://www.w3.org/2000/svg">
<path d="M46.9074 61.6494H46.8953C46.2817 61.6478 45.6738 61.7676 45.1067 62.0019C44.5396 62.2362 44.0244 62.5804 43.5909 63.0147C43.1505 63.452 42.8008 63.9721 42.5619 64.545C42.3263 65.1202 42.2046 65.7357 42.2035 66.3573C42.1957 66.976 42.3114 67.5901 42.5438 68.1636C42.7762 68.737 43.1207 69.2584 43.557 69.6972C43.9933 70.1359 44.5127 70.4833 45.0849 70.7189C45.6571 70.9544 46.2705 71.0736 46.8892 71.0692V71.0692C48.1389 71.0692 49.3374 70.5728 50.2211 69.6891C51.1047 68.8055 51.6012 67.607 51.6012 66.3573C51.6012 65.1076 51.1047 63.9091 50.2211 63.0255C49.3374 62.1418 48.1389 61.6454 46.8892 61.6454L46.9074 61.6494ZM48.5183 66.3976C48.5058 66.8177 48.331 67.2166 48.0306 67.5106C47.7303 67.8046 47.3276 67.9708 46.9074 67.9743H46.8832C46.6719 67.9709 46.4634 67.9256 46.2698 67.8409C46.0762 67.7562 45.9014 67.6338 45.7556 67.4809C45.6073 67.332 45.4905 67.1548 45.4119 66.9599C45.3334 66.765 45.2947 66.5563 45.2983 66.3462C45.3019 66.1361 45.3476 65.9288 45.4327 65.7367C45.5178 65.5446 45.6406 65.3715 45.7938 65.2277C46.0908 64.9351 46.4905 64.7704 46.9074 64.7685H46.9376C47.3718 64.7802 47.7838 64.9634 48.0833 65.278C48.2253 65.427 48.3363 65.6027 48.4099 65.7948C48.4835 65.987 48.5183 66.1919 48.5122 66.3976H48.5183Z" fill="#FFBA00"/>
<path d="M77.9193 76.5101C77.5166 75.4892 76.6467 75.5033 76.0044 75.5033H75.7386V70.4068C75.7386 66.5943 75.7386 62.7831 75.7386 58.9733C75.7385 57.2249 75.3289 55.5008 74.5425 53.9392C73.2115 51.253 71.083 49.3461 68.0303 48.0997C66.8906 47.6365 65.7831 47.1573 64.6072 46.6498L63.85 46.3216C65.2068 45.7031 66.4011 44.7774 67.3382 43.6175C68.2753 42.4577 68.9295 41.0956 69.2491 39.6391C69.5687 38.1827 69.545 36.6718 69.1796 35.2261C68.8143 33.7805 68.1175 32.4397 67.1443 31.3099C66.1833 30.1503 65.4694 28.8066 65.0461 27.3612C64.587 25.9053 64.581 24.4253 64.575 22.8587C64.575 22.4559 64.5749 22.0532 64.5629 21.6505C64.5508 21.1773 64.5468 20.7001 64.5427 20.2248C64.5307 18.6965 64.5186 17.1178 64.2528 15.5935C63.8061 12.9895 62.7969 10.5143 61.2956 8.34039C59.7943 6.16646 57.8369 4.3461 55.5599 3.00619C53.3196 1.6902 50.8192 0.878862 48.233 0.628804C45.6469 0.378746 43.0374 0.695985 40.5865 1.55839C33.5146 4.03516 29.2879 9.30687 28.3677 16.8057C28.1663 18.3763 28.1885 19.9832 28.1985 21.5377C28.1985 22.3432 28.2126 23.1768 28.1985 23.9903C28.1811 24.7207 28.1063 25.4485 27.975 26.1671C27.5844 28.2472 26.5292 29.9688 25.0633 31.91C24.3144 32.9074 23.7696 34.0428 23.4603 35.2512C23.1509 36.4595 23.0831 37.717 23.2606 38.9516C23.4381 40.1862 23.8575 41.3736 24.4948 42.4459C25.132 43.5181 25.9746 44.454 26.9742 45.2C27.5417 45.6043 28.1373 45.9676 28.7563 46.2874L28.9214 46.376L27.9388 46.8009C26.7165 47.3284 25.4519 47.8741 24.2176 48.4239C19.409 50.5644 16.9483 54.2997 16.904 59.523C16.8799 62.4589 16.8859 65.4452 16.8919 68.3307C16.8919 69.5671 16.8919 70.8021 16.8919 72.0358C16.8919 72.0882 16.8919 72.1425 16.8919 72.1969C16.8765 72.4033 16.8914 72.611 16.9362 72.8131C17.1537 73.6427 17.7417 74.0897 18.5472 74.0213C18.9086 74.0168 19.255 73.8756 19.5165 73.626C19.7781 73.3764 19.9353 73.037 19.9567 72.6761C19.9812 72.438 19.99 72.1986 19.9829 71.9593V71.8002C19.9829 70.5155 19.9829 69.2321 19.9829 67.9501C19.9829 65.1612 19.9688 62.2797 20.001 59.4465C20.0473 55.6206 21.8294 52.8921 25.2989 51.3416C26.8856 50.6308 28.5207 49.9321 30.0813 49.2535L31.9097 48.4641L31.9781 48.4339V54.1225H31.3599C30.6089 54.1225 29.9001 54.1225 29.1772 54.1225C28.6053 54.1283 28.0407 54.2518 27.5187 54.4853C26.9966 54.7188 26.5282 55.0573 26.1426 55.4797C25.8162 55.8381 25.5681 56.2607 25.4141 56.7205C25.2602 57.1802 25.2038 57.667 25.2486 58.1497C25.4701 60.4513 25.7258 62.7811 25.9735 65.0444C26.0983 66.1909 26.2225 67.3353 26.346 68.4777C26.5232 70.1611 26.6984 71.8465 26.8735 73.5501L27.0749 75.4832H21.4951C15.1582 75.4832 8.60783 75.4831 2.16418 75.4711H2.14606C1.47955 75.4711 0.720391 75.5617 0.120326 76.2161L0.015625 76.3309V78.5459H77.1944L77.3958 78.3143C77.7442 77.9156 78.2435 77.3397 77.9193 76.5101ZM61.5021 23.9642C61.4095 27.3811 62.5819 30.7119 64.7944 33.3175C65.3665 33.9812 65.799 34.7534 66.066 35.5879C66.333 36.4224 66.429 37.3022 66.3484 38.1747C66.2678 39.0472 66.0121 39.8945 65.5967 40.666C65.1813 41.4374 64.6146 42.1173 63.9306 42.6648C61.2283 44.8013 57.1728 44.455 54.8873 41.8936C54.696 41.6685 54.5305 41.4227 54.394 41.1606C54.1141 40.6532 53.8865 40.2163 53.9329 40.0129C53.9792 39.8095 54.3356 39.5518 54.8128 39.1974C57.9984 36.8857 59.6455 33.686 59.7241 29.6869C59.7543 27.9653 59.7462 26.2174 59.7402 24.526C59.7402 23.7588 59.7402 22.9916 59.7402 22.2224V21.729H61.5142V22.166C61.5082 22.7902 61.5102 23.3742 61.5021 23.9642ZM57.0983 49.0682C56.9211 49.1105 56.6956 49.1608 56.4278 49.2353C49.8029 51.0476 41.6859 51.0033 35.1617 49.1447C35.1617 49.0481 35.1617 48.9434 35.1617 48.8507C35.1617 48.301 35.1617 47.7312 35.1778 47.1855C35.2086 47.114 35.258 47.0521 35.3208 47.0062C35.6257 46.8341 35.9459 46.6906 36.2773 46.5773C39.1125 45.5242 40.9308 43.6556 41.6879 41.0177C44.77 41.4886 47.9059 41.4852 50.9869 41.0076C51.7561 43.7401 53.655 45.5907 56.7801 46.6619C57.3983 46.8733 57.5574 47.113 57.5171 47.7775C57.497 48.1198 57.495 48.3816 57.493 48.5829C57.4943 48.7113 57.489 48.8397 57.4769 48.9675C57.4024 48.9977 57.2473 49.034 57.0983 49.0682ZM57.4467 52.1833V54.0963H35.1959V52.3827C42.5128 54.1779 50.1631 54.1094 57.4467 52.1833V52.1833ZM56.7822 7.81678C59.8026 10.7728 61.337 14.2926 61.49 18.5515C58.532 18.8193 55.9324 18.1911 53.5543 16.6365C53.4919 16.5942 53.4295 16.5499 53.369 16.5036C53.3086 16.4573 53.2059 16.3848 53.1214 16.3305C52.2998 15.8069 51.4339 15.9277 50.9064 16.6546C50.3788 17.3816 50.5761 18.2857 51.3252 18.8576C52.8128 19.9844 54.517 20.7919 56.3311 21.2296C56.5888 21.2941 56.5889 21.3041 56.5868 21.5357C56.5868 22.3412 56.5868 23.1466 56.5868 23.9521C56.5868 24.8643 56.5868 25.8066 56.5747 26.7309C56.5611 26.9965 56.4925 27.2563 56.3734 27.4941C55.6404 29.0567 54.2228 30.4722 52.7811 31.1086C51.7098 29.5238 50.0244 29.401 48.8202 29.4533C48.5464 29.4654 48.2645 29.4634 47.9866 29.4634C47.5839 29.4634 47.1811 29.4634 46.7784 29.4976C44.7829 29.6688 43.319 31.2092 43.2948 33.1605C43.2882 34.0867 43.6262 34.9823 44.2433 35.673C44.8604 36.3638 45.7123 36.8003 46.6334 36.8978C47.835 37.006 49.0443 36.9959 50.2439 36.8676C51.4722 36.7407 52.4327 36.0279 53.0992 34.7452C53.2518 34.5003 53.4584 34.2937 53.7033 34.1411C53.9832 33.9397 54.2712 33.7666 54.5792 33.5793C54.831 33.4242 55.0927 33.2652 55.3444 33.094C55.5961 32.9228 55.8579 32.7336 56.1197 32.5403C55.6198 34.0313 54.7004 35.3464 53.4717 36.3279C52.0239 37.5059 50.4392 38.1241 48.7598 38.1684C48.3571 38.1785 47.9423 38.1946 47.5315 38.2127C45.7192 38.2872 43.8465 38.3637 42.0685 37.8522C40.3561 37.353 38.8492 36.3172 37.7697 34.8973C36.6902 33.4773 36.095 31.7484 36.0719 29.9648C36.0558 27.9411 36.0598 25.9597 36.0719 23.8635C36.0719 23.058 36.0719 22.2412 36.0719 21.4129C40.293 20.6732 44.3186 19.0794 47.902 16.7292C51.4373 14.3932 54.459 11.3606 56.7822 7.81678V7.81678ZM50.3083 33.2007C50.3199 33.275 50.315 33.351 50.2938 33.4231C50.2727 33.4953 50.236 33.5619 50.1862 33.6183C50.1364 33.6746 50.0747 33.7193 50.0057 33.7491C49.9367 33.7789 49.8619 33.7931 49.7868 33.7907C48.7457 33.831 47.8235 33.831 46.9677 33.7907C46.8938 33.794 46.8201 33.7824 46.7509 33.7564C46.6817 33.7304 46.6184 33.6908 46.5649 33.6397C46.4624 33.4977 46.4171 33.3223 46.4381 33.1484C46.4582 32.7759 46.6395 32.6067 47.022 32.5866C47.1872 32.5866 47.3503 32.5765 47.5174 32.5765H47.9322H48.3551H48.7719C49.0759 32.5765 49.3901 32.5765 49.6921 32.5765C49.7761 32.5666 49.8613 32.576 49.9411 32.604C50.021 32.632 50.0934 32.6778 50.1528 32.738C50.2122 32.7982 50.2571 32.8712 50.2841 32.9514C50.311 33.0316 50.3193 33.1169 50.3083 33.2007V33.2007ZM39.1547 5.52929C44.6721 2.48265 50.7593 3.58411 54.257 5.93201C49.5169 13.7288 39.8092 19.0549 31.3821 18.477C31.2613 14.3128 33.6072 8.59405 39.1547 5.52929V5.52929ZM30.1759 43.5106C29.2833 43.1302 28.4887 42.5519 27.8524 41.8193C27.2161 41.0867 26.7547 40.219 26.503 39.2819C25.9654 37.1495 26.354 35.2426 27.6569 33.6115C29.6504 31.1146 30.8002 28.6016 31.1687 25.9275C31.2481 25.2591 31.2897 24.5868 31.2935 23.9138V23.5554C31.3076 23.0339 31.3036 22.5164 31.2935 21.9686C31.2935 21.8519 31.2935 21.731 31.2935 21.6102H32.9145C32.9145 21.7834 32.9145 21.9485 32.9145 22.1156C32.9145 22.9835 32.9145 23.8675 32.9145 24.7213C32.9145 26.6624 32.9004 28.668 33.0091 30.6394C33.2105 34.3847 35.0228 37.381 38.3956 39.5497C38.7561 39.7813 38.7661 39.882 38.6513 40.2444C38.4582 40.8791 38.1391 41.4682 37.7133 41.9768C37.2874 42.4854 36.7634 42.9029 36.1726 43.2045C35.2635 43.7121 34.2498 44.0038 33.2099 44.0569C32.1701 44.1099 31.132 43.923 30.1759 43.5106V43.5106ZM65.4146 58.4719C65.1166 61.2588 64.82 64.0463 64.5246 66.8346C64.2709 69.2321 64.0165 71.6297 63.7614 74.0273C63.7192 74.43 63.6668 74.8146 63.6124 75.2355L63.5822 75.4691H30.2001L29.9826 73.4554C29.8034 71.7922 29.6262 70.141 29.449 68.4898C29.1134 65.3485 28.7778 62.2072 28.4422 59.0659C28.422 58.8646 28.3979 58.637 28.3878 58.4155C28.3616 57.9041 28.408 57.6101 28.5308 57.4792C28.6536 57.3483 28.9335 57.296 29.4248 57.296H64.3836C64.8508 57.296 65.1448 57.3705 65.2837 57.5255C65.4227 57.6806 65.473 57.9886 65.4227 58.4759L65.4146 58.4719ZM72.6637 70.729C72.6637 72.3117 72.6517 73.8964 72.6517 75.461H66.7275L66.8443 74.3314C66.9611 73.1957 67.0759 72.07 67.1967 70.9464C67.3511 69.4792 67.5082 68.0105 67.6679 66.5406C67.8424 64.9176 68.0163 63.2946 68.1894 61.6716L68.2619 60.999C68.3566 60.1352 68.4633 59.2431 68.5096 58.3592C68.5722 57.8159 68.5165 57.2656 68.3463 56.7459C68.176 56.2263 67.8953 55.7497 67.5233 55.3488C67.1514 54.948 66.6971 54.6325 66.1916 54.4239C65.6861 54.2153 65.1415 54.1187 64.5951 54.1406C63.7171 54.1265 62.8251 54.1245 61.9612 54.1225H60.6785V48.3655C61.3531 48.6514 62.0337 48.9333 62.6922 49.2051C64.4884 49.9442 66.3449 50.7093 68.0968 51.5953C70.9965 53.0613 72.5631 55.5622 72.6295 58.8263C72.7141 62.7932 72.698 66.8285 72.6819 70.733L72.6637 70.729Z" fill="#FFBA00"/>
<path d="M24.4416 23.93C24.1254 23.7286 23.8052 23.5373 23.475 23.338L23.4307 23.3098C23.5475 23.1769 23.6542 23.052 23.761 22.9252C26.5116 19.651 27.5466 15.8774 26.8338 11.7313C25.8108 5.76896 20.4062 0.879844 14.5284 0.601961C7.80689 0.28582 2.14855 4.31109 0.449038 10.6198C0.342315 11.0226 0.247676 11.4072 0.149007 11.8018C0.102694 11.9851 0.0583951 12.1683 0.0120814 12.3495L0 12.3979V15.664L0.0120814 15.7123C0.0302041 15.7848 0.0503361 15.8553 0.0704725 15.9278C0.10926 16.0602 0.140859 16.1947 0.16512 16.3305C1.10952 22.4641 6.83027 27.5263 12.9175 27.6069C14.3391 27.627 15.7729 27.6351 17.2005 27.6351C18.3543 27.6351 19.5021 27.6351 20.6237 27.625H23.3844C24.4295 27.625 25.1242 27.1176 25.398 26.1611C25.6498 25.2811 25.2994 24.4717 24.4416 23.93ZM20.6157 21.7311C19.5484 22.7782 19.3732 23.5897 20.0398 24.6831C19.2142 24.6489 18.3785 24.6348 17.569 24.6186C15.3701 24.5804 13.0967 24.5401 10.9502 24.1233C6.27652 23.2172 2.89561 18.771 3.06879 13.7792C3.14833 11.3903 4.04282 9.10047 5.60366 7.29018C7.16449 5.4799 9.2977 4.25811 11.6489 3.82781C12.2517 3.71362 12.8638 3.65632 13.4773 3.65665C16.0313 3.67201 18.4924 4.61641 20.4011 6.31352C22.3098 8.01063 23.5356 10.3444 23.8496 12.8791C24.2402 16.3265 23.175 19.2301 20.6157 21.7311Z" fill="#FFBA00"/>
<path d="M10.5467 14.1355C10.5295 14.5479 10.3509 14.937 10.0493 15.2189C9.76613 15.4936 9.38872 15.6499 8.99418 15.6558H8.95793C8.54795 15.6376 8.16135 15.4598 7.88063 15.1605C7.73761 15.0164 7.62462 14.8454 7.54823 14.6574C7.47184 14.4693 7.43356 14.268 7.43563 14.065C7.46179 13.6581 7.63979 13.2758 7.93439 12.9939C8.22899 12.712 8.6187 12.551 9.02638 12.5427C9.43562 12.5628 9.82151 12.7393 10.1044 13.0357C10.3873 13.3321 10.5456 13.7258 10.5467 14.1355V14.1355Z" fill="#FFBA00"/>
<path d="M15.072 14.1214C15.0563 14.5265 14.8872 14.9104 14.5989 15.1953C14.3106 15.4802 13.9247 15.6449 13.5195 15.6558H13.4973C13.0873 15.6419 12.699 15.4677 12.416 15.1705C12.2722 15.0274 12.158 14.8574 12.0799 14.6701C12.0018 14.4828 11.9614 14.282 11.9609 14.0791C11.9822 13.6748 12.1539 13.293 12.4423 13.0087C12.7307 12.7244 13.1149 12.5582 13.5195 12.5427H13.5396C13.9486 12.5597 14.3354 12.7329 14.6205 13.0266C14.9056 13.3203 15.0672 13.7121 15.072 14.1214V14.1214Z" fill="#FFBA00"/>
<path d="M19.5955 14.1275C19.5783 14.5314 19.4085 14.9138 19.1203 15.1975C18.8322 15.4812 18.4471 15.645 18.0429 15.6558H18.0147C17.6043 15.64 17.2162 15.4644 16.9334 15.1665C16.645 14.8757 16.4836 14.4826 16.4844 14.0731C16.5071 13.6653 16.683 13.2811 16.9768 12.9973C17.2706 12.7136 17.6607 12.5512 18.0691 12.5427C18.478 12.5613 18.8643 12.736 19.1482 13.0308C19.4322 13.3256 19.5923 13.7181 19.5955 14.1275V14.1275Z" fill="#FFBA00"/>
</svg>
