<svg width="76" height="68" viewBox="0 0 76 68" fill="none" xmlns="http://www.w3.org/2000/svg">
<path d="M75.9929 9.11563C75.9953 6.83526 75.094 4.64686 73.4864 3.02956C71.8788 1.41226 69.6958 0.497839 67.4155 0.486519C49.8648 0.468686 30.629 0.468686 8.61128 0.486519C4.43671 0.486519 0.954036 3.40569 0.140878 7.57669C0.124968 7.63363 0.102842 7.68865 0.0748986 7.74075L0.0196131 7.86023L0 7.91016V60.1716L0.010699 60.2073C0.0606298 60.3856 0.108777 60.5639 0.155141 60.7423C0.258569 61.1275 0.365564 61.5269 0.51179 61.9121C1.10114 63.5861 2.19719 65.0351 3.6477 66.0577C5.09822 67.0803 6.83119 67.6258 8.60593 67.6185H39.1582C49.287 67.6185 58.4975 67.6185 67.4119 67.6185C69.6913 67.6109 71.8748 66.7005 73.4845 65.0865C75.0941 63.4726 75.9986 61.2866 76 59.0072C76 42.7333 76 25.9512 75.9929 9.11563ZM3.04221 9.31713C3.06361 6.52279 4.65605 4.43819 7.30238 3.73737C7.89854 3.59103 8.51108 3.52211 9.12485 3.5323C30.3544 3.51981 51.1434 3.5216 66.8823 3.5323C69.8692 3.5323 72.0037 5.0641 72.7402 7.73361C72.8713 8.20777 72.9409 8.69683 72.9471 9.18874C72.9631 11.4321 72.9596 13.7128 72.9578 15.9205V17.8054C72.9578 17.8339 72.9578 17.8642 72.9578 17.8999H3.06183C3.04902 17.816 3.04187 17.7315 3.04043 17.6467C3.04043 16.9548 3.04043 16.2646 3.04043 15.5727C3.03151 13.5185 3.02616 11.4 3.04221 9.31713V9.31713ZM72.956 58.6256C72.956 61.518 71.4331 63.6008 68.7797 64.3319C68.1869 64.4932 67.5751 64.5742 66.9607 64.5727C45.7116 64.5869 24.853 64.5852 9.0553 64.5727C6.11295 64.5727 4.0016 63.0462 3.26155 60.3892C3.11703 59.8665 3.04385 59.3266 3.044 58.7843C3.0333 47.6675 3.0333 36.3636 3.044 25.4376V21.2292C3.044 21.1721 3.044 21.1168 3.044 21.0509H72.9578V31.4989C72.959 40.534 72.9584 49.5762 72.956 58.6256Z" fill="#FFBA00"/>
<path d="M70.6568 30.9639C70.6568 29.5819 70.0719 28.9917 68.706 28.9917C61.038 28.9828 53.2756 28.9828 45.6576 28.9917C44.3005 28.9917 43.7477 29.5463 43.7441 30.8997C43.7441 35.4345 43.7441 39.9194 43.7441 44.2277C43.7441 45.5776 44.2791 46.1037 45.6665 46.1037C48.4341 46.1037 51.2011 46.1037 53.9675 46.1037H68.7131C70.0915 46.1037 70.655 45.5348 70.6568 44.1421C70.6622 39.75 70.6622 35.315 70.6568 30.9639ZM46.8274 43.0294V32.1302H67.513V43.0294H46.8274Z" fill="#FFBA00"/>
<path d="M70.6782 55.9078C70.683 56.2417 70.5672 56.566 70.3519 56.8213C70.1367 57.0765 69.8365 57.2454 69.5066 57.297C69.1533 57.3577 68.7951 57.3852 68.4367 57.379C61.8648 57.379 55.2942 57.379 48.7247 57.379H36.5487C31.4308 57.379 26.3135 57.379 21.1968 57.379C20.8108 57.3883 20.4248 57.3584 20.0448 57.2898C19.3476 57.1454 18.9178 56.614 18.8982 55.8632C18.8749 55.5432 18.9636 55.2251 19.149 54.9632C19.3344 54.7013 19.605 54.512 19.9146 54.4277C20.2455 54.3326 20.5886 54.2863 20.9329 54.2904C36.3561 54.2904 52.4213 54.2904 68.6827 54.2904C69.0022 54.2868 69.3206 54.3294 69.6279 54.417C69.9531 54.4973 70.2385 54.6924 70.4314 54.9663C70.6244 55.2401 70.712 55.5745 70.6782 55.9078Z" fill="#FFBA00"/>
<path d="M40.4525 33.6387C40.44 34.5303 39.7035 35.1598 38.6603 35.1651C37.3158 35.1651 35.9569 35.1651 34.6106 35.1651H20.753C19.6224 35.1366 18.9056 34.5553 18.8842 33.6458C18.8758 33.4569 18.9057 33.2683 18.9718 33.0912C19.038 32.9141 19.1392 32.7522 19.2694 32.6151C19.5939 32.2763 20.0914 32.0908 20.7084 32.0801C21.6001 32.0659 22.4917 32.0694 23.3619 32.0712C23.731 32.0712 24.1037 32.0712 24.4693 32.0712H38.211C38.3697 32.0712 38.5355 32.0712 38.6996 32.0712C39.7766 32.1443 40.465 32.747 40.4525 33.6387Z" fill="#FFBA00"/>
<path d="M39.4321 46.1466C39.1912 46.2276 38.937 46.2621 38.6832 46.2482H28.426H20.6403C20.3916 46.2576 20.1435 46.2173 19.9105 46.1297C19.6775 46.0422 19.4643 45.9091 19.2833 45.7382C19.1498 45.6013 19.0456 45.4387 18.9769 45.2603C18.9083 45.0819 18.8766 44.8914 18.8838 44.7004C18.9052 43.7998 19.6132 43.2149 20.6867 43.2131H32.3027C34.4711 43.2131 36.639 43.2131 38.8062 43.2131C39.6978 43.2131 40.3362 43.7374 40.4254 44.5399C40.5074 45.2799 40.1454 45.863 39.4321 46.1466Z" fill="#FFBA00"/>
<path d="M14.8914 33.4604C14.8372 32.2606 14.3228 31.1278 13.455 30.2976C12.5872 29.4673 11.4328 29.0034 10.2317 29.0023C10.1372 29.0023 10.0427 29.0023 9.94642 29.0112C7.32149 29.161 5.26185 31.2563 5.35457 33.6815C5.38485 34.311 5.53904 34.9283 5.80833 35.4981C6.07761 36.0679 6.45669 36.5789 6.92383 37.0019C7.77119 37.7894 8.88072 38.2342 10.0374 38.2502H10.2514C11.5985 38.184 12.8643 37.5863 13.7715 36.5882C14.1572 36.1678 14.455 35.6746 14.6473 35.1374C14.8396 34.6003 14.9226 34.0301 14.8914 33.4604V33.4604ZM10.1051 35.1509C9.17785 35.1385 8.45385 34.4644 8.45207 33.6174C8.4527 33.4218 8.49229 33.2284 8.56852 33.0484C8.64476 32.8683 8.75612 32.7053 8.8961 32.5688C9.23077 32.2462 9.67958 32.0692 10.1444 32.0766H10.1675C11.077 32.0873 11.817 32.7757 11.817 33.6138C11.8172 33.8092 11.7781 34.0027 11.7021 34.1828C11.6262 34.3629 11.5149 34.526 11.3748 34.6623C11.2067 34.8256 11.0076 34.9536 10.7892 35.0387C10.5708 35.1239 10.3376 35.1644 10.1033 35.1581L10.1051 35.1509Z" fill="#FFBA00"/>
<path d="M14.8895 55.6922C14.843 54.4829 14.3256 53.3396 13.4476 52.5066C12.5696 51.6736 11.4008 51.2169 10.1906 51.2341H10.023C8.6285 51.2787 7.43551 51.794 6.57421 52.7195C5.75152 53.6245 5.32204 54.8193 5.38023 56.0409C5.43842 57.2625 5.97951 58.411 6.88449 59.2337C7.74693 60.0189 8.87274 60.4517 10.039 60.4463C10.1318 60.4463 10.2174 60.4463 10.3172 60.4463C12.9778 60.2894 15.0286 58.1602 14.8895 55.6922ZM11.8134 55.8224C11.8153 56.0191 11.7778 56.2141 11.7031 56.3961C11.6284 56.578 11.5179 56.7431 11.3783 56.8816C11.2135 57.0432 11.0183 57.1704 10.8041 57.2561C10.5898 57.3418 10.3607 57.3843 10.13 57.3809H10.1211C9.19379 57.3809 8.46088 56.7104 8.45196 55.8634C8.44959 55.6667 8.4869 55.4715 8.56166 55.2895C8.63642 55.1075 8.74709 54.9424 8.88707 54.8042C9.05178 54.6426 9.24696 54.5155 9.46126 54.4301C9.67555 54.3447 9.90469 54.3027 10.1353 54.3066H10.146C11.0733 54.312 11.8062 54.9771 11.8152 55.8224H11.8134Z" fill="#FFBA00"/>
<path d="M10.1482 40.1208C8.84344 40.1259 7.59403 40.6486 6.67443 41.5742C6.2521 41.9894 5.91714 42.4849 5.68928 43.0316C5.46143 43.5783 5.34528 44.165 5.34769 44.7573C5.38157 47.2806 7.51969 49.3384 10.1161 49.3438H10.1286C11.4223 49.3397 12.6615 48.8221 13.5738 47.9047C13.9978 47.4872 14.334 46.9891 14.5624 46.4397C14.7909 45.8902 14.9071 45.3006 14.9041 44.7056C14.8773 42.1858 12.7499 40.128 10.1482 40.1208ZM10.1268 43.1524C10.5867 43.1554 11.0266 43.3407 11.3501 43.6677C11.4951 43.8082 11.6104 43.9765 11.6891 44.1624C11.7679 44.3483 11.8084 44.5482 11.8084 44.7501C11.8084 45.5687 11.0148 46.2909 10.1321 46.2962H10.1232C9.89601 46.2947 9.67133 46.2484 9.46203 46.16C9.25273 46.0716 9.06292 45.9427 8.90348 45.7809C8.75776 45.6403 8.64179 45.4719 8.56244 45.2857C8.4831 45.0994 8.44201 44.8991 8.44162 44.6966C8.45945 43.8871 9.24408 43.1648 10.1268 43.1613V43.1524Z" fill="#FFBA00"/>
<path d="M12.3937 7.77102C12.0062 7.37826 11.5445 7.06656 11.0353 6.85409C10.5262 6.64161 9.97985 6.53261 9.42815 6.53345C8.31616 6.54905 7.25392 6.99687 6.46639 7.78207C5.67885 8.56727 5.22788 9.62819 5.209 10.7401C5.20772 11.2926 5.31579 11.8398 5.52696 12.3503C5.73814 12.8608 6.04825 13.3245 6.43943 13.7146C6.83107 14.1146 7.29769 14.4336 7.81265 14.6533C8.32761 14.873 8.8808 14.9891 9.44063 14.9949H9.45312C10.288 14.9899 11.1026 14.7374 11.7939 14.2693C12.4852 13.8013 13.0222 13.1387 13.337 12.3655C13.6518 11.5922 13.7301 10.743 13.5622 9.92516C13.3943 9.10735 12.9877 8.3577 12.3937 7.77102V7.77102ZM8.31719 10.7722C8.31235 10.6239 8.33767 10.4761 8.39162 10.3378C8.44557 10.1995 8.52703 10.0736 8.63107 9.96775C8.73511 9.86188 8.85956 9.77823 8.99687 9.72187C9.13419 9.66551 9.28152 9.63761 9.42993 9.63986C9.72996 9.64022 10.0186 9.75497 10.2369 9.96073C10.4553 10.1665 10.5869 10.4478 10.6051 10.7473C10.6126 10.9011 10.589 11.0548 10.5357 11.1993C10.4824 11.3438 10.4005 11.476 10.295 11.5881C10.1894 11.7002 10.0622 11.7899 9.9212 11.8517C9.78016 11.9135 9.62809 11.9462 9.4741 11.9479C9.32012 11.9496 9.16737 11.9202 9.02501 11.8615C8.88265 11.8027 8.75361 11.7159 8.64559 11.6061C8.53758 11.4964 8.45282 11.3659 8.39639 11.2226C8.33997 11.0794 8.31303 10.9262 8.31719 10.7722V10.7722Z" fill="#FFBA00"/>
<path d="M24.5187 7.82278C24.1317 7.42992 23.6703 7.11813 23.1614 6.90564C22.6525 6.69314 22.1064 6.58421 21.5549 6.58521V6.58521C20.4457 6.59353 19.3839 7.03654 18.5977 7.81908C17.8115 8.60162 17.3635 9.66129 17.35 10.7705C17.3423 11.3207 17.4432 11.8671 17.6471 12.3783C17.851 12.8894 18.1539 13.3553 18.5382 13.7491C18.9226 14.1429 19.381 14.457 19.887 14.6732C20.3931 14.8895 20.9369 15.0037 21.4872 15.0092H21.5299C22.6463 15.0159 23.7202 14.5821 24.5187 13.802C24.9081 13.4186 25.2172 12.9615 25.4281 12.4574C25.7479 11.6803 25.8319 10.8263 25.6695 10.0018C25.5071 9.17729 25.1056 8.41883 24.5151 7.821L24.5187 7.82278ZM22.6998 10.7705C22.7014 11.0798 22.5826 11.3775 22.3686 11.6008C22.1546 11.8241 21.8622 11.9555 21.5531 11.967V11.967C21.2523 11.9633 20.9649 11.8416 20.7528 11.6282C20.5407 11.4148 20.4208 11.1266 20.419 10.8258C20.4142 10.6774 20.4393 10.5296 20.4926 10.3912C20.546 10.2527 20.6266 10.1263 20.7297 10.0196C20.8328 9.91282 20.9563 9.82784 21.0928 9.76967C21.2294 9.7115 21.3762 9.68132 21.5246 9.68092H21.5496C21.8463 9.67372 22.1339 9.78428 22.3494 9.98843C22.5649 10.1926 22.6909 10.4738 22.6998 10.7705V10.7705Z" fill="#FFBA00"/>
<path d="M36.6787 7.90649C36.2849 7.5053 35.8147 7.18717 35.2958 6.97092C34.7769 6.75467 34.22 6.64471 33.6578 6.64752C33.1083 6.64232 32.5631 6.74635 32.0541 6.95356C31.545 7.16078 31.0822 7.46705 30.6925 7.8546C30.3028 8.24215 29.994 8.70325 29.7839 9.21114C29.5739 9.71903 29.4669 10.2636 29.469 10.8132C29.4628 11.373 29.5684 11.9284 29.7797 12.4468C29.991 12.9652 30.3037 13.4362 30.6994 13.8322C31.088 14.2219 31.5501 14.5305 32.0588 14.7402C32.5676 14.9498 33.1129 15.0564 33.6632 15.0537H33.6775C34.7862 15.046 35.848 14.605 36.636 13.825C37.424 13.045 37.8758 11.9878 37.8948 10.8792C37.9011 10.3275 37.7967 9.78023 37.5878 9.26964C37.3789 8.75905 37.0698 8.29553 36.6787 7.90649V7.90649ZM33.6668 9.68974H33.6864C33.9863 9.69902 34.2707 9.82497 34.4792 10.0408C34.6877 10.2566 34.8038 10.5452 34.8027 10.8453C34.8053 10.9938 34.7781 11.1413 34.7227 11.2791C34.6672 11.4169 34.5846 11.5421 34.4798 11.6474C34.3751 11.7527 34.2502 11.8359 34.1127 11.892C33.9752 11.9481 33.8278 11.976 33.6792 11.9741H33.6685C33.3734 11.9624 33.0943 11.837 32.8896 11.624C32.6849 11.4111 32.5706 11.1272 32.5706 10.8319C32.5706 10.5366 32.6849 10.2527 32.8896 10.0398C33.0943 9.82684 33.3734 9.7014 33.6685 9.68974H33.6668Z" fill="#FFBA00"/>
</svg>
