<svg width="82" height="81" viewBox="0 0 82 81" fill="none" xmlns="http://www.w3.org/2000/svg">
<path d="M21.0575 43.3194C19.6585 43.2617 18.3943 42.8402 17.3456 41.8819C16.6413 41.2354 16.547 40.2694 17.0973 39.594C17.6477 38.9186 18.579 38.8108 19.3814 39.3727C20.6861 40.2867 21.3731 40.2848 22.695 39.3631C23.4936 38.807 24.4115 38.9051 24.9734 39.6094C25.5006 40.2694 25.4198 41.2065 24.756 41.8396C23.7245 42.8229 22.4583 43.2347 21.0575 43.3194Z" fill="#FFBA00"/>
<path d="M81.9961 47.9741C81.8037 48.4859 81.5978 48.994 81.4189 49.5135C80.7531 51.4166 79.687 52.9772 77.8436 53.9393C77.7781 53.974 77.7377 54.0529 77.6511 54.1452C79.8717 56.3524 80.4837 59.1157 80.4625 62.1214C80.4356 66.3375 80.4625 70.5536 80.4625 74.7697C80.4625 76.5227 79.9968 76.9787 78.2226 76.9807H57.4943C57.4943 77.7408 57.4943 78.4277 57.4943 79.1128C57.4789 80.1827 56.917 80.8716 55.8567 80.8908C53.1089 80.9408 50.3591 80.937 47.6112 80.8908C46.5644 80.8735 45.9448 80.1577 45.9698 79.209C45.9948 78.2603 46.6702 77.6484 47.7247 77.6349C49.5932 77.6138 51.4617 77.6349 53.3282 77.6349H54.173C54.7503 74.5657 53.3686 71.7312 50.6304 70.4997C49.2314 69.8685 47.744 69.4394 46.2469 68.9025C45.1154 71.5427 43.1007 72.8704 40.3605 72.905C37.6203 72.9397 35.6961 71.4965 34.5088 68.8756C32.9097 69.4779 31.2895 69.9917 29.752 70.6902C27.7218 71.6119 26.7809 73.3476 26.5865 75.5182C26.5288 76.1763 26.5018 76.8383 26.4557 77.5868C26.8136 77.6041 27.0945 77.6311 27.3774 77.633C29.2709 77.633 31.1663 77.6215 33.0598 77.633C33.918 77.6426 34.58 78.1545 34.7416 78.853C34.8364 79.2045 34.8068 79.5779 34.6577 79.91C34.5087 80.2421 34.2494 80.5125 33.9238 80.6753C33.5821 80.8222 33.2143 80.8988 32.8424 80.9004C30.3074 80.9171 27.7725 80.9171 25.2376 80.9004C23.854 80.9004 23.2518 80.2635 23.246 78.8819C23.246 78.2757 23.246 77.6676 23.246 76.9691H2.13855C0.475968 76.9691 0.0218384 76.5015 0.0218384 74.8236C0.0218384 70.5805 0.10074 66.3356 0.00452647 62.0944C-0.141719 55.6808 3.27579 52.8868 7.35526 51.3512C9.41424 50.5815 11.5694 50.0542 13.6688 49.3846C13.963 49.2884 14.2081 49.0813 14.352 48.8073C14.5078 48.4032 14.275 48.1011 13.8767 47.8452C9.59128 45.1396 7.30908 41.2641 7.21287 36.1725C7.16797 33.8005 7.17312 31.4272 7.22828 29.0526C7.37837 22.9719 12.1005 17.4396 18.0908 16.2754C26.0496 14.736 33.5024 19.8604 34.4972 27.9019C34.9571 31.6331 35.0572 35.4778 34.2683 39.2167C33.4793 42.9556 31.3049 45.7766 28.0836 47.7894C27.6333 48.0703 27.3409 48.3936 27.5352 48.8612C27.641 49.1171 28.0336 49.3076 28.3357 49.4154C28.9361 49.627 29.5769 49.7252 30.1734 49.9426C30.6237 50.1081 30.8142 50.0138 31.0201 49.577C32.6384 46.1287 35.3555 44.1121 39.1174 43.5694C40.0007 43.4424 40.9224 43.5963 41.8249 43.5694C42.1655 43.5598 42.5811 43.5059 42.8294 43.3058C45.1866 41.3969 46.345 38.8799 46.4624 35.8723C46.5625 33.2379 46.499 30.5824 46.8203 27.9827C47.3052 24.0591 48.8832 20.6166 52.1371 18.1304C57.3519 14.151 68.3934 14.4955 71.5723 24.6326C72.3882 27.2323 72.5768 29.8993 72.6095 32.6029C72.6326 34.4618 72.6095 36.3649 72.9751 38.168C73.6428 41.395 75.8615 43.4828 78.7326 44.9126C79.3099 45.1954 79.9449 45.3474 80.4875 45.6707C81.0302 45.994 81.4997 46.4577 82 46.8599L81.9961 47.9741ZM34.1259 65.6775C34.3645 64.7769 34.1259 64.138 33.4139 63.4992C31.6711 62.0094 30.5527 59.9183 30.2811 57.6417C30.1079 56.2215 30.1214 54.7764 30.0483 53.2832L27.1753 52.4923C26.0208 55.1863 24.0965 56.8296 21.1562 56.9181C17.9908 57.0143 15.9068 55.3498 14.6252 52.4057C12.445 53.1177 10.2513 53.7527 8.1173 54.5474C4.71902 55.8155 3.13918 58.3229 3.2046 61.9597C3.27003 65.5966 3.21806 69.2143 3.21806 72.8435V73.7132H8.54448C8.54448 71.7563 8.54448 69.8416 8.54448 67.9269C8.53648 67.5817 8.56943 67.2368 8.64262 66.8994C8.83505 66.1297 9.36231 65.7448 10.1436 65.7063C10.5071 65.6797 10.8679 65.7863 11.1586 66.0062C11.4493 66.2261 11.6501 66.5442 11.7234 66.9013C11.7975 67.2386 11.8305 67.5836 11.8215 67.9289C11.8215 69.8435 11.8215 71.7563 11.8215 73.7594H12.7529C15.9799 73.7594 19.2088 73.7286 22.4359 73.7806C23.2845 73.7941 23.7829 73.6305 23.8983 72.7126C23.9406 72.3566 24.1581 72.018 24.3216 71.6851C25.5667 69.1315 27.7988 67.8019 30.3466 66.8936C31.6012 66.4452 32.877 66.0758 34.1259 65.6755V65.6775ZM77.2085 73.7267V72.8685C77.2085 68.7332 77.2644 64.5941 77.1508 60.4646C77.095 58.4191 76.0867 56.743 74.3356 55.5981C71.7244 53.8932 68.7051 53.3294 65.7822 52.4904C64.6565 55.1401 62.7822 56.7526 59.9516 56.9162C56.7207 57.0932 54.5636 55.4403 53.2763 52.5019C52.5547 52.6943 51.8504 52.9291 51.1288 53.0792C50.6689 53.1716 50.6015 53.4102 50.615 53.8085C50.64 54.5012 50.615 55.1959 50.615 55.8886C50.6792 58.1471 49.9599 60.3581 48.5791 62.1464C48.093 62.7811 47.5401 63.3617 46.93 63.8783C46.3854 64.3401 46.5452 64.9039 46.599 65.4177C46.624 65.6101 47.0685 65.8179 47.3572 65.9199C48.3617 66.2682 49.3892 66.5472 50.3918 66.8994C53.4995 67.9943 55.9934 69.7665 56.9632 73.109C57.1268 73.6767 57.3788 73.7806 57.9022 73.7787C61.237 73.7575 64.5718 73.769 67.9085 73.7652C68.1375 73.7652 68.3684 73.7325 68.659 73.7094V72.8685C68.659 71.1616 68.659 69.4548 68.659 67.7461C68.659 66.4241 69.2363 65.7121 70.26 65.7102C71.2837 65.7082 71.886 66.4337 71.8898 67.7307C71.8898 68.585 71.8898 69.4375 71.8898 70.2919V73.7344L77.2085 73.7267ZM10.488 34.4714C9.94535 38.751 11.835 42.8959 15.4546 45.0222C19.2088 47.2313 23.0555 47.2063 26.6981 44.8086C30.2831 42.4475 31.7013 38.955 31.3761 34.6388C26.5038 34.6561 21.77 34.1578 17.4616 31.7832C15.2083 33.4727 15.2083 33.4727 10.488 34.4772V34.4714ZM69.3228 34.0192C65.4974 34.4926 62.1511 33.6344 59.5244 30.7075C56.8651 33.6805 53.5187 34.4695 49.7298 34.0269C49.4932 38.0871 50.7805 41.3854 54.1749 43.579C57.704 45.8593 61.4025 45.8555 64.9182 43.5617C68.2953 41.3642 69.6076 38.0775 69.3228 34.025V34.0192ZM31.378 31.3252C31.7167 26.7243 30.2119 23.0508 26.2729 20.7147C22.5301 18.4922 18.6623 18.6211 15.0466 21.0457C11.5021 23.4241 10.1532 26.9205 10.4514 31.152C12.5335 30.9269 14.4232 30.4535 15.7932 28.7467C16.4764 27.8942 17.2365 27.825 18.1928 28.4292C22.2184 30.9808 26.6904 31.4599 31.3722 31.3368L31.378 31.3252ZM69.446 30.5651C69.1516 29.0161 68.9726 27.3958 68.53 25.8526C66.6308 19.2215 58.7162 16.7045 53.6015 21.1227C50.8325 23.5146 50.0377 26.8205 49.8164 30.3053C49.8419 30.4172 49.8956 30.5207 49.9724 30.6059C50.0492 30.6911 50.1465 30.7553 50.2552 30.7922C51.2365 30.8211 52.2372 30.8903 53.2012 30.7441C55.3757 30.415 56.9382 29.1566 57.9638 27.2342C58.3718 26.4645 58.9433 26.0662 59.8323 26.1874C60.5635 26.2855 60.8753 26.8339 61.2005 27.4016C62.8323 30.2515 66.5153 31.7178 69.446 30.5767V30.5651ZM40.3509 54.0606C38.3054 54.1279 36.3465 54.5378 34.5165 55.4903C33.2234 56.1638 33.1945 56.2196 33.5543 57.634C33.9414 59.2543 34.8914 60.6844 36.2349 61.6695C37.5783 62.6545 39.228 63.1304 40.8897 63.0123C44.2533 62.7853 46.9454 60.1798 47.3534 56.7065C47.3503 56.552 47.3119 56.4002 47.2412 56.2628C47.1705 56.1254 47.0693 56.006 46.9454 55.9137C44.9365 54.6494 42.7024 54.1414 40.3509 54.0721V54.0606ZM70.9315 41.9607C70.2484 42.8074 69.6442 43.6926 68.8976 44.4411C68.151 45.1896 67.2562 45.7881 66.4422 46.4731C66.2815 46.595 66.1712 46.7717 66.1324 46.9696C66.0997 47.7105 66.1189 48.4532 66.1189 49.069L73.8641 51.6321C73.966 51.6625 74.0715 51.6787 74.1778 51.6802C76.0674 51.7476 77.9225 50.2544 78.3266 48.2839C75.2285 46.9311 72.5864 44.9838 70.9315 41.9723V41.9607ZM33.614 52.3037C38.1361 50.3082 42.6581 50.3467 47.2244 52.323C46.4335 48.8458 43.3047 46.4558 40.0238 46.7041C36.7429 46.9523 33.8334 49.4943 33.614 52.3153V52.3037ZM56.2224 48.0453C56.2224 49.0074 56.1743 49.8272 56.2224 50.645C56.2891 51.4484 56.6434 52.2008 57.2203 52.7639C57.7973 53.327 58.558 53.6631 59.3628 53.7104C60.8195 53.82 62.4147 52.7617 62.686 51.2742C62.8784 50.2601 62.7207 49.1825 62.7207 48.0549C60.5856 48.5764 58.3559 48.5731 56.2224 48.0453V48.0453ZM48.2385 41.9549L45.8659 45.0761C47.7247 46.2634 49.0602 47.9202 49.9492 50.0196L53.0011 49.1998C53.0011 48.4532 53.0203 47.7355 52.9876 47.0216C52.9737 46.9224 52.9395 46.8272 52.8872 46.7418C52.8349 46.6564 52.7656 46.5826 52.6836 46.5251C50.8661 45.372 49.3438 43.8095 48.2385 41.9626V41.9549ZM17.6425 49.6521C17.4616 51.0741 17.8465 52.3942 19.255 53.2293C20.4692 53.949 21.7104 53.8835 22.8553 53.0638C24.0927 52.1767 24.3948 50.9144 24.1889 49.6521H17.6425ZM37.501 66.0796C37.3317 67.2862 37.5472 68.4811 38.7884 69.2239C39.8929 69.8878 41.0456 69.78 42.1155 69.1142C43.3143 68.3676 43.3874 67.1899 43.2489 66.0796H37.501Z" fill="#FFBA00"/>
<path d="M41.02 1.75793C43.1097 0.0915021 45.3958 -0.429977 47.8896 0.36475C49.004 0.721525 50.0117 1.35067 50.8215 2.19518C51.6313 3.0397 52.2177 4.0729 52.5274 5.20121C52.8371 6.32951 52.8605 7.51726 52.5953 8.65687C52.3302 9.79647 51.7849 10.8519 51.0089 11.7276C50.2527 12.5839 49.3887 13.3479 48.567 14.1464C46.5144 16.1323 44.4619 18.1156 42.4093 20.0963C41.4144 21.0585 40.637 21.0488 39.6403 20.0867C36.8558 17.4042 34.0252 14.768 31.312 12.0163C27.4153 8.06572 29.2973 1.55203 34.6852 0.222354C37.0155 -0.351081 39.1149 0.224277 41.02 1.75793ZM41.02 16.9309C43.5466 14.487 46.052 12.1317 48.4766 9.69558C48.8232 9.34207 49.0966 8.92358 49.2811 8.46412C49.4656 8.00467 49.5575 7.5133 49.5516 7.01823C49.5457 6.52315 49.4421 6.03412 49.2467 5.57919C49.0513 5.12426 48.768 4.7124 48.4131 4.36725C46.966 2.92212 44.553 2.79704 43.0905 4.32107C41.2721 6.21648 40.46 5.8451 38.9552 4.32107C37.4504 2.79704 35.0432 2.90095 33.5672 4.41343C32.8681 5.12608 32.4793 6.08642 32.4858 7.08474C32.4923 8.08307 32.8935 9.03827 33.6019 9.74177C36.0361 12.1548 38.5126 14.5005 41.0277 16.9309H41.02Z" fill="#FFBA00"/>
</svg>
