<svg width="63" height="101" viewBox="0 0 63 101" fill="none" xmlns="http://www.w3.org/2000/svg">
<path d="M41.19 58.9601C45.35 56.5301 48.55 52.6601 50.11 48.0201C50.18 48.0201 50.25 48.0301 50.32 48.0301C54.54 48.0301 57.98 44.5901 57.98 40.3701C57.98 36.4301 54.99 33.1701 51.15 32.7601V29.4401C52.56 28.0301 55.98 23.6801 55.28 15.4201C55 12.0701 53.76 9.46005 51.6 7.66005C48.83 5.35005 45.35 5.11005 43.87 5.11005C42.04 3.40005 35.46 -1.89995 26.55 0.730055C24.83 1.24005 23.18 1.90005 21.52 2.76005C20.8 3.13005 20.51 4.02005 20.89 4.74005C21.26 5.46005 22.15 5.75005 22.87 5.37005C24.38 4.60005 25.86 4.00005 27.4 3.54005C35.93 1.02005 41.97 7.33005 42.22 7.60005C42.53 7.93005 42.98 8.11005 43.44 8.06005C43.48 8.06005 47.16 7.75005 49.74 9.92005C51.26 11.2001 52.14 13.1301 52.35 15.6501C52.88 21.9901 50.69 25.4801 49.5 26.8901C46.56 24.6101 43.91 19.8801 43.88 19.8301C43.37 18.8201 41.78 18.8401 41.29 19.8601C39.14 23.9701 35.18 25.6001 32.91 26.2201C32.67 23.0701 30.66 20.5701 30.56 20.4501C30.01 19.7501 28.87 19.7301 28.3 20.4201C22.1 27.6101 14 27.6201 13.1 27.6001C12.92 27.6001 12.74 27.5701 12.56 27.5101C10 26.7301 7.46 24.4701 5.8 22.7501C11.3 21.8001 13.32 18.0001 13.42 17.8101C13.95 16.8601 13.15 15.6001 12.07 15.6701C9.68 15.7401 7.99 14.8601 6.91 12.9801C6.64 12.5101 6.44 12.0301 6.29 11.5901C11.57 11.8501 14.81 10.2001 17.9 8.32005C18.6 7.90005 18.82 6.99006 18.39 6.30006C17.97 5.60006 17.06 5.38005 16.37 5.81005C13.25 7.70005 10.22 9.21005 4.63 8.49005C3.74 8.35005 2.89 9.15005 2.97 10.0501C2.98 10.1401 3.13 12.2601 4.3 14.3501C5.14 15.8501 6.61 17.5401 9.13 18.2701C7.47 19.5101 5.34 20.1001 2.8 20.0201C1.6 19.9401 0.82 21.4501 1.58 22.3801C1.77 22.6301 6.11 28.2601 11.11 30.1201V32.7501C7.28 33.1701 4.28 36.4201 4.28 40.3701C4.28 44.5901 7.72 48.0301 11.94 48.0301C12.01 48.0301 12.08 48.0301 12.15 48.0301C13.71 52.6601 16.91 56.5401 21.07 58.9701C9.18 60.5701 0 70.7701 0 83.0701V86.1301C0 86.94 0.66 87.6001 1.47 87.6001C2.28 87.6001 2.94 86.94 2.94 86.1301V83.0701C2.94 77.3301 5.22 72.1101 8.91 68.2601L27.85 89.1001C29.51 91.0101 32.73 91.0101 34.39 89.1001L40.58 82.2901C41.13 81.6901 41.08 80.7601 40.48 80.2101C39.88 79.66 38.95 79.7101 38.4 80.3101L32.21 87.1201C31.66 87.7601 30.58 87.7601 30.03 87.1201L11.09 66.2901C11.95 65.6101 12.86 65.0001 13.81 64.4601L30.03 82.3001C30.58 82.9401 31.66 82.9401 32.21 82.3001L48.42 64.4601C49.38 65.0001 50.29 65.6201 51.14 66.2901L42.36 75.9601C41.81 76.5601 41.86 77.4901 42.46 78.0401C43.06 78.5901 43.99 78.5401 44.54 77.9401L53.32 68.2701C57.01 72.12 59.29 77.3401 59.29 83.0801V97.4001H50.52V85.9001C50.52 85.0901 49.86 84.4301 49.05 84.4301C48.24 84.4301 47.58 85.0901 47.58 85.9001V97.3901H14.66V85.9001C14.66 85.0901 14 84.4301 13.19 84.4301C12.38 84.4301 11.72 85.0901 11.72 85.9001V97.3901H2.94V92.0201C2.94 91.2101 2.28 90.5501 1.47 90.5501C0.66 90.5501 0 91.2101 0 92.0201V98.8601C0 99.6701 0.66 100.33 1.47 100.33H60.77C61.58 100.33 62.24 99.6701 62.24 98.8601V83.0701C62.24 70.7701 53.06 60.5701 41.19 58.9601ZM33.38 65.3801H28.85L28.01 61.6801H34.21L33.38 65.3801ZM55.03 40.3701C55.03 42.7901 53.2 44.7801 50.86 45.0501C51.05 43.9401 51.15 42.8101 51.15 41.6501V35.7301C53.36 36.1201 55.03 38.0501 55.03 40.3701ZM7.21 40.3701C7.21 38.0501 8.89 36.1301 11.09 35.7301V41.6501C11.09 42.8101 11.19 43.9401 11.38 45.0501C9.04 44.7801 7.21 42.7901 7.21 40.3701ZM14.04 41.6501V30.5301C16.65 30.4001 23.42 29.4801 29.19 23.7901C29.71 24.8301 30.21 26.3001 29.91 27.7501C29.82 28.2101 29.94 28.6801 30.26 29.0301C30.57 29.3801 31.03 29.5601 31.49 29.5101C31.8 29.4801 38.42 28.7901 42.58 23.3201C43.84 25.2201 45.92 27.9801 48.22 29.5901V41.6501C48.22 51.0701 40.56 58.7401 31.13 58.7401C21.7 58.7401 14.04 51.0701 14.04 41.6501ZM24.34 61.6801H25L26.18 66.8901L25.15 72.5401L16.6 63.1301C19 62.2001 21.61 61.6801 24.34 61.6801ZM31.12 79.1101L27.64 75.2801L28.91 68.3201H33.33L34.6 75.2801L31.12 79.1101ZM37.1 72.5401L36.07 66.8901L37.24 61.6801H37.91C40.64 61.6801 43.25 62.1901 45.65 63.1301L37.1 72.5401Z" fill="white"/>
<path d="M31.12 51.1101C36.34 51.1101 37.92 47.4401 37.99 47.2701C38.41 46.3301 37.67 45.2101 36.63 45.2301C36.02 45.2301 35.49 45.6001 35.27 46.1401C35.2 46.3001 34.24 48.1701 31.11 48.1701C27.98 48.1701 27.02 46.2901 26.95 46.1401C26.73 45.6101 26.21 45.2301 25.59 45.2301C24.56 45.2101 23.82 46.3401 24.23 47.2701C24.32 47.4301 25.9 51.1101 31.12 51.1101Z" fill="white"/>
<path d="M22.15 34.5001C21.34 34.5001 20.68 35.1601 20.68 35.9701V40.1201C20.68 40.9301 21.34 41.5901 22.15 41.5901C22.96 41.5901 23.62 40.9301 23.62 40.1201V35.9701C23.62 35.1601 22.96 34.5001 22.15 34.5001Z" fill="white"/>
<path d="M40.1 41.5901C40.91 41.5901 41.57 40.9301 41.57 40.1201V35.9701C41.57 35.1601 40.91 34.5001 40.1 34.5001C39.29 34.5001 38.63 35.1601 38.63 35.9701V40.1201C38.63 40.9301 39.29 41.5901 40.1 41.5901Z" fill="white"/>
</svg>
